<svg height='100px' width='100px'  fill="#0283B3" xmlns:x="http://ns.adobe.com/Extensibility/1.0/" xmlns:i="http://ns.adobe.com/AdobeIllustrator/10.0/" xmlns:graph="http://ns.adobe.com/Graphs/1.0/" xmlns="http://www.w3.org/2000/svg" xmlns:xlink="http://www.w3.org/1999/xlink" version="1.1" x="0px" y="0px" viewBox="0 0 100 100" style="enable-background:new 0 0 100 100;" xml:space="preserve"><g><g i:extraneous="self"><path d="M96.6,90.1h-2.4V38.7c0-1-0.6-1.8-1.6-2.1l-19.9-5.8c-1.4-0.4-2.8,0.6-2.8,2.1v57.2h-3.3V43.3c0-1.5-1.2-2.7-2.7-2.7h-6.2    V7.9c0-1.5-1.2-2.7-2.7-2.7H36c-1.5,0-2.7,1.2-2.7,2.7v35.4V57v33.1h-3.2V17.6c0-1.5-1.4-2.5-2.8-2.1L7.4,21.3    c-0.9,0.3-1.6,1.1-1.6,2.1v66.7H3.4c-0.5,0-0.9,0.4-0.9,0.9v2.9c0,0.5,0.4,0.9,0.9,0.9h93.2c0.5,0,0.9-0.4,0.9-0.9V91    C97.5,90.5,97.1,90.1,96.6,90.1z M75.4,43.2c0-0.2,0.2-0.4,0.4-0.4h12.4c0.2,0,0.4,0.2,0.4,0.4v2.4c0,0.2-0.2,0.4-0.4,0.4H75.8    c-0.2,0-0.4-0.2-0.4-0.4V43.2z M75.4,51c0-0.2,0.2-0.4,0.4-0.4h12.4c0.2,0,0.4,0.2,0.4,0.4v2.4c0,0.2-0.2,0.4-0.4,0.4H75.8    c-0.2,0-0.4-0.2-0.4-0.4V51z M75.4,58.7c0-0.2,0.2-0.4,0.4-0.4h12.4c0.2,0,0.4,0.2,0.4,0.4v2.4c0,0.2-0.2,0.4-0.4,0.4H75.8    c-0.2,0-0.4-0.2-0.4-0.4V58.7z M75.4,66.5c0-0.2,0.2-0.4,0.4-0.4h12.4c0.2,0,0.4,0.2,0.4,0.4v2.4c0,0.2-0.2,0.4-0.4,0.4H75.8    c-0.2,0-0.4-0.2-0.4-0.4V66.5z M75.4,74.2c0-0.2,0.2-0.4,0.4-0.4h12.4c0.2,0,0.4,0.2,0.4,0.4v2.4c0,0.2-0.2,0.4-0.4,0.4H75.8    c-0.2,0-0.4-0.2-0.4-0.4V74.2z M75.4,82c0-0.2,0.2-0.4,0.4-0.4h12.4c0.2,0,0.4,0.2,0.4,0.4v2.4c0,0.2-0.2,0.4-0.4,0.4H75.8    c-0.2,0-0.4-0.2-0.4-0.4V82z M11.3,27.7c0-0.2,0.2-0.4,0.4-0.4h12.4c0.2,0,0.4,0.2,0.4,0.4v2.4c0,0.2-0.2,0.4-0.4,0.4H11.8    c-0.2,0-0.4-0.2-0.4-0.4V27.7z M11.3,35.5c0-0.2,0.2-0.4,0.4-0.4h12.4c0.2,0,0.4,0.2,0.4,0.4v2.4c0,0.2-0.2,0.4-0.4,0.4H11.8    c-0.2,0-0.4-0.2-0.4-0.4V35.5z M11.3,43.2c0-0.2,0.2-0.4,0.4-0.4h12.4c0.2,0,0.4,0.2,0.4,0.4v2.4c0,0.2-0.2,0.4-0.4,0.4H11.8    c-0.2,0-0.4-0.2-0.4-0.4V43.2z M11.3,51c0-0.2,0.2-0.4,0.4-0.4h12.4c0.2,0,0.4,0.2,0.4,0.4v2.4c0,0.2-0.2,0.4-0.4,0.4H11.8    c-0.2,0-0.4-0.2-0.4-0.4V51z M11.3,58.7c0-0.2,0.2-0.4,0.4-0.4h12.4c0.2,0,0.4,0.2,0.4,0.4v2.4c0,0.2-0.2,0.4-0.4,0.4H11.8    c-0.2,0-0.4-0.2-0.4-0.4V58.7z M11.3,66.5c0-0.2,0.2-0.4,0.4-0.4h12.4c0.2,0,0.4,0.2,0.4,0.4v2.4c0,0.2-0.2,0.4-0.4,0.4H11.8    c-0.2,0-0.4-0.2-0.4-0.4V66.5z M11.3,74.2c0-0.2,0.2-0.4,0.4-0.4h12.4c0.2,0,0.4,0.2,0.4,0.4v2.4c0,0.2-0.2,0.4-0.4,0.4H11.8    c-0.2,0-0.4-0.2-0.4-0.4V74.2z M11.3,82c0-0.2,0.2-0.4,0.4-0.4h12.4c0.2,0,0.4,0.2,0.4,0.4v2.4c0,0.2-0.2,0.4-0.4,0.4H11.8    c-0.2,0-0.4-0.2-0.4-0.4V82z M56.6,47c0-0.5,0.4-0.9,0.9-0.9h2.7c0.5,0,0.9,0.4,0.9,0.9v2.7c0,0.5-0.4,0.9-0.9,0.9h-2.7    c-0.5,0-0.9-0.4-0.9-0.9V47z M56.6,55.9c0-0.5,0.4-0.9,0.9-0.9h2.7c0.5,0,0.9,0.4,0.9,0.9v2.7c0,0.5-0.4,0.9-0.9,0.9h-2.7    c-0.5,0-0.9-0.4-0.9-0.9V55.9z M56.6,64.7c0-0.5,0.4-0.9,0.9-0.9h2.7c0.5,0,0.9,0.4,0.9,0.9v2.7c0,0.5-0.4,0.9-0.9,0.9h-2.7    c-0.5,0-0.9-0.4-0.9-0.9V64.7z M56.6,73.6c0-0.5,0.4-0.9,0.9-0.9h2.7c0.5,0,0.9,0.4,0.9,0.9v2.7c0,0.5-0.4,0.9-0.9,0.9h-2.7    c-0.5,0-0.9-0.4-0.9-0.9V73.6z M55.7,81.5c0.5,0,0.9,0.4,0.9,0.9v7.7h-5.8v-8.6H55.7z M47.7,11.6c0-0.5,0.4-0.9,0.9-0.9h2.7    c0.5,0,0.9,0.4,0.9,0.9v2.7c0,0.5-0.4,0.9-0.9,0.9h-2.7c-0.5,0-0.9-0.4-0.9-0.9V11.6z M47.7,20.5c0-0.5,0.4-0.9,0.9-0.9h2.7    c0.5,0,0.9,0.4,0.9,0.9v2.7c0,0.5-0.4,0.9-0.9,0.9h-2.7c-0.5,0-0.9-0.4-0.9-0.9V20.5z M47.7,29.3c0-0.5,0.4-0.9,0.9-0.9h2.7    c0.5,0,0.9,0.4,0.9,0.9V32c0,0.5-0.4,0.9-0.9,0.9h-2.7c-0.5,0-0.9-0.4-0.9-0.9V29.3z M47.7,38.2c0-0.5,0.4-0.9,0.9-0.9h2.7    c0.5,0,0.9,0.4,0.9,0.9v2.7c0,0.5-0.4,0.9-0.9,0.9h-2.7c-0.5,0-0.9-0.4-0.9-0.9V38.2z M47.7,47c0-0.5,0.4-0.9,0.9-0.9h2.7    c0.5,0,0.9,0.4,0.9,0.9v2.7c0,0.5-0.4,0.9-0.9,0.9h-2.7c-0.5,0-0.9-0.4-0.9-0.9V47z M47.7,55.9c0-0.5,0.4-0.9,0.9-0.9h2.7    c0.5,0,0.9,0.4,0.9,0.9v2.7c0,0.5-0.4,0.9-0.9,0.9h-2.7c-0.5,0-0.9-0.4-0.9-0.9V55.9z M47.7,64.7c0-0.5,0.4-0.9,0.9-0.9h2.7    c0.5,0,0.9,0.4,0.9,0.9v2.7c0,0.5-0.4,0.9-0.9,0.9h-2.7c-0.5,0-0.9-0.4-0.9-0.9V64.7z M47.7,73.6c0-0.5,0.4-0.9,0.9-0.9h2.7    c0.5,0,0.9,0.4,0.9,0.9v2.7c0,0.5-0.4,0.9-0.9,0.9h-2.7c-0.5,0-0.9-0.4-0.9-0.9V73.6z M38.9,11.6c0-0.5,0.4-0.9,0.9-0.9h2.7    c0.5,0,0.9,0.4,0.9,0.9v2.7c0,0.5-0.4,0.9-0.9,0.9h-2.7c-0.5,0-0.9-0.4-0.9-0.9V11.6z M38.9,20.5c0-0.5,0.4-0.9,0.9-0.9h2.7    c0.5,0,0.9,0.4,0.9,0.9v2.7c0,0.5-0.4,0.9-0.9,0.9h-2.7c-0.5,0-0.9-0.4-0.9-0.9V20.5z M38.9,29.3c0-0.5,0.4-0.9,0.9-0.9h2.7    c0.5,0,0.9,0.4,0.9,0.9V32c0,0.5-0.4,0.9-0.9,0.9h-2.7c-0.5,0-0.9-0.4-0.9-0.9V29.3z M38.9,38.2c0-0.5,0.4-0.9,0.9-0.9h2.7    c0.5,0,0.9,0.4,0.9,0.9v2.7c0,0.5-0.4,0.9-0.9,0.9h-2.7c-0.5,0-0.9-0.4-0.9-0.9V38.2z M38.9,47c0-0.5,0.4-0.9,0.9-0.9h2.7    c0.5,0,0.9,0.4,0.9,0.9v2.7c0,0.5-0.4,0.9-0.9,0.9h-2.7c-0.5,0-0.9-0.4-0.9-0.9V47z M38.9,55.9c0-0.5,0.4-0.9,0.9-0.9h2.7    c0.5,0,0.9,0.4,0.9,0.9v2.7c0,0.5-0.4,0.9-0.9,0.9h-2.7c-0.5,0-0.9-0.4-0.9-0.9V55.9z M38.9,64.7c0-0.5,0.4-0.9,0.9-0.9h2.7    c0.5,0,0.9,0.4,0.9,0.9v2.7c0,0.5-0.4,0.9-0.9,0.9h-2.7c-0.5,0-0.9-0.4-0.9-0.9V64.7z M38.9,73.6c0-0.5,0.4-0.9,0.9-0.9h2.7    c0.5,0,0.9,0.4,0.9,0.9v2.7c0,0.5-0.4,0.9-0.9,0.9h-2.7c-0.5,0-0.9-0.4-0.9-0.9V73.6z M43.3,82.4c0-0.5,0.4-0.9,0.9-0.9h4.9v8.6    h-5.8V82.4z"></path></g></g></svg>