<svg xmlns="http://www.w3.org/2000/svg" data-name="Layer 1" viewBox="0 0 128 160" x="0px" y="0px"><title>Artboard 24</title><circle cx="64" cy="28" r="4"/><path d="M64,0A52,52,0,0,0,46,100.8l14.68,25.27a4,4,0,0,0,6.64,0L82,100.8A52,52,0,0,0,64,0Zm36,52a36,36,0,0,1-72,0V48H40a4,4,0,0,1,0,8H36.28A28.06,28.06,0,0,0,60,79.71V52H56a4,4,0,0,1,0-8h4V39.3a12,12,0,1,1,8,0V44h4a4,4,0,0,1,0,8H68V79.71A28.06,28.06,0,0,0,91.72,56H88a4,4,0,0,1,0-8h12Z"/><text x="0" y="143" fill="#000000" font-size="5px" font-weight="bold" font-family="'Helvetica Neue', Helvetica, Arial-Unicode, Arial, Sans-serif">Created by Juraj Sedlák</text><text x="0" y="148" fill="#000000" font-size="5px" font-weight="bold" font-family="'Helvetica Neue', Helvetica, Arial-Unicode, Arial, Sans-serif">from the Noun Project</text></svg>