<svg xmlns="http://www.w3.org/2000/svg" width="330" height="335" viewBox="0 0 330 335">
  <g id="Group_206" data-name="Group 206" transform="translate(6056.39 16368.68)">
    <path id="marker" d="M38.583,145.318c-10.633,35.141,6.255,85.19,36.279,110.747l127.6,108.617,115.091-97.968c53.464-45.454,63.239-116.219,23.62-170.99s-118.252-79.2-190-59.023C99.882,51.076,56.1,87.282,38.583,145.318Z" transform="translate(-6091.779 -16398.361)" fill="#f7a900"/>
    <g id="Group_205" data-name="Group 205" transform="translate(-5990.224 -16288)">
      <path id="Path_305" data-name="Path 305" d="M3.985,4.762a3.356,3.356,0,0,0-3.3,3.409v94.377a3.52,3.52,0,0,0,0,2.157v12.55a3.356,3.356,0,0,0,3.3,3.409H36.99a3.356,3.356,0,0,0,3.3-3.409V45.669H195.413a3.356,3.356,0,0,0,3.3-3.409V28.624a3.356,3.356,0,0,0-3.3-3.409H175.855q-.119-.008-.239-.007h-13.2q-.081,0-.161.007H149.445q-.119-.008-.239-.007H136l-.11.007H123.054q-.129-.009-.258-.007h-13.2l-.11.007H96.644q-.129-.009-.258-.007H83.21q-.084,0-.168.007H70.234q-.116-.008-.232-.007H56.8q-.084,0-.168.007H43.823q-.116-.008-.232-.007h-3.3V8.171a3.356,3.356,0,0,0-3.3-3.409Zm13.2,20.453h3.3v3.409a3.356,3.356,0,0,0,3.3,3.409H27.1v6.818H23.788a3.356,3.356,0,0,0-3.3,3.409v3.409h-3.3ZM33.7,32.033h6.6v6.811H33.7Zm13.176,0h6.6v6.818h-6.6Zm13.208,0h6.6v6.811h-6.6Zm13.2,0h6.6v6.818h-6.6Zm13.208,0h6.6v6.811H86.5Zm13.2,0h6.607v6.818H99.7Zm13.208,0h6.6v6.811h-6.6Zm13.2,0h6.607v6.818H126.11Zm13.208,0h6.575v6.811h-6.575Zm13.176,0H159.1v6.818h-6.607Zm13.208,0h6.6v6.811h-6.6Zm13.2,0h13.208v6.818H178.9Z" transform="translate(-0.516 -4.762)" fill-rule="evenodd"/>
    </g>
  </g>
</svg>
