<?xml version="1.0" encoding="utf-8"?>
<!-- Generator: Adobe Illustrator 24.2.1, SVG Export Plug-In . SVG Version: 6.00 Build 0)  -->
<svg version="1.1" id="Layer_1" xmlns="http://www.w3.org/2000/svg" xmlns:xlink="http://www.w3.org/1999/xlink" x="0px" y="0px"
	 viewBox="0 0 139.7 139.7" style="enable-background:new 0 0 139.7 139.7;" xml:space="preserve">
<style type="text/css">
	.st0{opacity:0.38;fill:#F5A91C;}
	.st1{fill:#F5A91C;}
	.st2{fill:#FFFFFF;}
</style>
<circle class="st0" cx="69.9" cy="69.9" r="69.9"/>
<circle class="st1" cx="69.9" cy="69.9" r="57.9"/>
<g>
	<g>
		<path class="st2" d="M79.9,47.1h-5.1l0-5.4h-9.9v5.4h-5.1l0-5.4h-9.9V60l5.9,5.6v19.6l-5.9,5.6V98h39.9v-7.3L84,85.2V65.6l5.9-5.6
			V41.7h-9.9L79.9,47.1z M82.3,44.1h5.1v14.9l-5.9,5.6v21.7l5.9,5.6v3.9H52.3v-3.9l5.9-5.6l0-21.7l-5.9-5.6l0-14.9h5.1v5.4h9.9
			l0-5.4h5.1v5.4h9.9L82.3,44.1L82.3,44.1z"/>
		<path class="st2" d="M63.5,73.9v13h12.7l0-13c0-3.5-2.9-6.3-6.3-6.3C66.4,67.6,63.5,70.4,63.5,73.9L63.5,73.9z M73.8,73.9v10.6
			h-7.9V73.9c0-2.2,1.8-3.9,3.9-3.9S73.8,71.8,73.8,73.9L73.8,73.9z"/>
	</g>
</g>
</svg>
