<svg xmlns="http://www.w3.org/2000/svg" width="330" height="335" viewBox="0 0 330 335">
  <g id="Group_273" data-name="Group 273" transform="translate(6478.39 15960.68)">
    <g id="Group_208" data-name="Group 208" transform="translate(-422 408)">
      <path id="marker" d="M38.583,145.318c-10.633,35.141,6.255,85.19,36.279,110.747l127.6,108.617,115.091-97.968c53.464-45.454,63.239-116.219,23.62-170.99s-118.252-79.2-190-59.023C99.882,51.076,56.1,87.282,38.583,145.318Z" transform="translate(-6091.779 -16398.361)" fill="#f7a900"/>
    </g>
    <path id="Path_359" data-name="Path 359" d="M16.324,149.948h57.3V113.7c0-4.452,10.167-7.949,22.182-7.949s22.182,3.5,22.182,7.949v36.249h58.229V27.846L95.811.5,15.4,27.846v122.1Z" transform="translate(-6409.41 -15893.891)"/>
  </g>
</svg>
