<svg xmlns="http://www.w3.org/2000/svg" width="330" height="335" viewBox="0 0 330 335">
  <g id="Group_273" data-name="Group 273" transform="translate(6478.39 15960.68)">
    <g id="Group_208" data-name="Group 208" transform="translate(-422 408)">
      <path id="marker" d="M38.583,145.318c-10.633,35.141,6.255,85.19,36.279,110.747l127.6,108.617,115.091-97.968c53.464-45.454,63.239-116.219,23.62-170.99s-118.252-79.2-190-59.023C99.882,51.076,56.1,87.282,38.583,145.318Z" transform="translate(-6091.779 -16398.361)" fill="#f7a900"/>
    </g>
    <path id="Path_359" data-name="Path 359" d="M16.645,188.464h77.2V142.873c0-5.6,13.7-10,29.883-10s29.883,4.4,29.883,10v45.591h78.443V34.893L123.725.5,15.4,34.893v153.57Z" transform="translate(-6437.41 -15921.891)"/>
  </g>
</svg>
