<svg xmlns="http://www.w3.org/2000/svg" xmlns:xlink="http://www.w3.org/1999/xlink" version="1.1" x="0px" y="0px" viewBox="0 0 100 125" style="enable-background:new 0 0 100 100;" xml:space="preserve"><g><path d="M43.2,48L47,59.1c0.6-0.4,1.3-0.9,2-1.6c0.4-0.6,2.2-2.9,5.1-3.2c0.2,0,0.4,0,0.6,0l2.1-6.3H50H43.2z"/><path d="M50,5.2c-21.2,0-38.3,17.2-38.3,38.3c0,16.8,10.8,31.1,25.9,36.2L50,94.8l12.4-15.1c15.1-5.2,25.9-19.4,25.9-36.2   C88.3,22.3,71.2,5.2,50,5.2z M71.2,59.4c-2.1,2.1-4.2,3.1-6.3,3.1c-0.2,0-0.5,0-0.7,0c-2.9-0.3-4.7-2.6-5.1-3.2   c-1.7-1.6-3.2-2.4-4.7-2.3c-2,0.2-3.2,2.1-3.3,2.1c0,0,0,0,0,0c-0.1,0.1-0.1,0.2-0.2,0.2c-2.1,2.1-4.2,3.1-6.3,3.1   c-0.2,0-0.5,0-0.7,0c-2.9-0.3-4.7-2.6-5.1-3.2c-1.7-1.6-3.2-2.4-4.7-2.3c-2,0.2-3.2,2.1-3.3,2.1c-0.4,0.6-1.2,0.8-1.9,0.4   c-0.6-0.4-0.8-1.2-0.4-1.9c0.1-0.1,1.9-3,5.2-3.3c2.3-0.3,4.7,0.8,7,3.1c0,0,0,0,0,0c0,0,0,0,0.1,0.1c0,0,0,0,0,0c0,0,0,0,0,0   c0,0,0,0,0.1,0.1c0,0,0,0,0,0c0,0,1.3,1.9,3.3,2.1c0,0,0.1,0,0.1,0l-4.9-14.5h9.2v-7.8h-11c-0.7,0-1.3-0.6-1.3-1.3   c0-0.7,0.6-1.3,1.3-1.3h11v-5h-5.4c-0.7,0-1.3-0.6-1.3-1.3s0.6-1.3,1.3-1.3h5.4v-5.9c0-0.7,0.6-1.3,1.3-1.3c0.7,0,1.3,0.6,1.3,1.3   v5.9h5.4c0.7,0,1.3,0.6,1.3,1.3s-0.6,1.3-1.3,1.3h-5.4v5h11c0.7,0,1.3,0.6,1.3,1.3c0,0.7-0.6,1.3-1.3,1.3h-11v7.8h9.2l-3.2,9.5   c1.3,0.5,2.5,1.4,3.8,2.6c0,0,0,0,0,0c0,0,0,0,0.1,0.1c0,0,0,0,0,0c0,0,0,0,0,0c0,0,0,0,0.1,0.1c0,0,0,0,0,0c0,0,1.3,1.9,3.3,2.1   c1.5,0.2,3.1-0.6,4.8-2.3c0.5-0.5,1.4-0.5,1.9,0C71.7,58,71.7,58.9,71.2,59.4z"/></g><text x="0" y="115" fill="#000000" font-size="5px" font-weight="bold" font-family="'Helvetica Neue', Helvetica, Arial-Unicode, Arial, Sans-serif">Created by Anton Gajdosik</text><text x="0" y="120" fill="#000000" font-size="5px" font-weight="bold" font-family="'Helvetica Neue', Helvetica, Arial-Unicode, Arial, Sans-serif">from the Noun Project</text></svg>