<?xml version="1.0" encoding="utf-8"?>
<!-- Generator: Adobe Illustrator 24.2.1, SVG Export Plug-In . SVG Version: 6.00 Build 0)  -->
<svg version="1.1" id="Layer_1" xmlns="http://www.w3.org/2000/svg" xmlns:xlink="http://www.w3.org/1999/xlink" x="0px" y="0px"
	 viewBox="0 0 139.7 139.7" style="enable-background:new 0 0 139.7 139.7;" xml:space="preserve">
<style type="text/css">
	.st0{opacity:0.38;fill:#F5A91C;}
	.st1{fill:#F5A91C;}
	.st2{fill:#FFFFFF;}
</style>
<circle class="st0" cx="69.9" cy="69.9" r="69.9"/>
<circle class="st1" cx="69.9" cy="69.9" r="57.9"/>
<g>
	<path class="st2" d="M88.2,93.9c-0.2,0-0.4,0-0.6,0c-0.2,0-0.3,0-0.4,0h-1.5h-1c-1.9,0-3.6-1.4-4-3.3c-0.2-0.9-0.4-1.6-0.6-2.1
		c-0.2-0.4-0.4-0.5-0.4-0.5c0,0,0,0-0.1,0c0,0,0,0,0,0h0C79.1,88,78.6,88,78.3,88c-0.6,0-1-0.1-1.5-0.2c-0.5-0.2-0.9-0.5-1.2-0.9
		c-0.2-0.2-0.3-0.5-0.3-0.8c-0.1-0.3-0.1-0.5-0.1-0.7l0,0c0-0.1,0-0.2,0-0.2c-0.3-0.1-0.5-0.3-0.8-0.4l-0.2-0.1
		c-0.2-0.1-0.5-0.2-0.7-0.3c-0.5-0.2-1-0.5-1.5-0.7c-0.9-0.4-1.5-1-2-1.6c-0.3-0.3-0.4-0.7-0.4-1.1c0-0.4,0.2-0.8,0.5-1.1
		c0.3-0.3,0.7-0.4,1.1-0.4c0.4,0,0.9,0.2,1.1,0.5c0.4,0.5,0.8,0.7,1.1,0.9l0,0c0.5,0.3,1,0.5,1.5,0.7c0.2,0.1,0.5,0.2,0.7,0.3
		l0.2,0.1c0.3,0.2,0.6,0.3,1,0.5l0,0c0.4,0.2,0.8,0.5,1,0.9c0.2,0.3,0.3,0.6,0.4,1c0,0.2,0,0.4,0.1,0.5h0c0.2,0,0.5,0,0.8-0.1
		c0.2,0,0.3,0,0.5,0h0c0.5,0,1,0.1,1.5,0.4c0.5,0.2,0.9,0.6,1.3,1.1c0.7,0.9,1.1,2.1,1.4,3.8c0.1,0.4,0.5,0.7,0.9,0.7h1h1.5
		c0.2,0,0.4,0,0.6,0c0.1,0,0.3,0,0.4,0h0c0.1,0,0.1,0,0.2,0c0.2-0.2,0.4-0.4,0.6-0.5c0.1-0.1,0.2-0.2,0.3-0.3c0,0,0-0.1,0.1-0.1l0,0
		c0.1-0.1,0.2-0.3,0.4-0.4c0.3-0.2,0.7-0.4,1-0.5c0.5-0.1,0.8-0.1,1.3-0.1h0.3h0c0.2,0,0.4,0,0.6,0c0.3,0,0.7,0,1,0h0
		c0.1,0,0.2,0,0.3,0c0.1-0.1,0.2-0.3,0.3-0.4c0.2-0.3,0.4-0.6,0.6-0.9c0.1-0.2,0.3-0.5,0.4-0.7c0.2-0.4,0.5-0.7,0.7-1
		c1.8-2.7,3.2-4.8,4.1-6.9c1.1-2.6,1.6-5.2,1.6-8.9c0,0,0-0.1,0-0.1c-0.1-0.2-0.3-0.6-0.5-0.9c-0.4-0.7-0.9-1.7-1.7-2.8
		c-0.8-1.4-1.8-2.9-2.3-3.9c-0.3-0.5-0.5-0.8-0.6-1.1c-0.4-0.6-0.7-1.1-0.7-1.2l0,0c0,0,0,0,0,0c-0.1,0-0.3-0.1-0.5-0.3
		c-0.1,0-0.1-0.1-0.2-0.1c-0.4-0.2-0.8-0.4-1.5-0.7c-0.3-0.2-0.6-0.3-0.8-0.4c0,0-0.1,0-0.1-0.1c0,0-0.1,0-0.1-0.1
		c-0.2-0.1-0.4-0.2-0.7-0.4c-0.2-0.2-0.4-0.4-0.6-0.7c-0.2-0.3-0.2-0.5-0.2-0.7c0,0,0,0,0-0.1c0-0.1,0-0.1,0-0.2
		c0-0.2-0.1-0.4-0.2-0.7c-0.2-0.9-0.4-1.7-0.5-2.5c0-0.2-0.1-0.3-0.1-0.5c-0.2-1-0.3-1.6-0.5-2c-0.2-0.4-0.2-0.8,0-1.2
		c0.2-0.4,0.5-0.7,0.8-0.9c0.2-0.1,0.4-0.1,0.6-0.1c0.6,0,1.2,0.4,1.4,0.9c0.4,0.9,0.5,1.8,0.7,2.7c0,0.2,0,0.3,0.1,0.5
		c0.1,0.8,0.3,1.5,0.4,2.3c0.1,0.3,0.1,0.6,0.2,0.8l0.1,0c0.2,0.1,0.5,0.2,0.9,0.4c0.6,0.3,1,0.5,1.3,0.6c0.4,0.2,0.7,0.3,1,0.5
		c0.2,0.1,0.4,0.3,0.6,0.4c0.3,0.3,0.5,0.5,0.6,0.7c0.1,0.2,0.3,0.4,0.4,0.6c0.1,0.1,0.2,0.3,0.3,0.5c0.1,0.2,0.3,0.6,0.6,1
		c0.3,0.5,0.7,1.2,1.2,1.9c1.1,1.8,1.9,3.1,2.5,4.2c0.5,0.9,0.9,1.5,1.1,2.1c0.1,0.1,0.1,0.3,0.2,0.5l0,0c0,0.1,0.1,0.2,0.1,0.5
		c0,4.2-0.6,7.4-1.9,10.4c-1.1,2.4-2.5,4.6-4.2,7.2c-0.3,0.4-0.6,0.8-0.9,1.3c-0.1,0.1-0.2,0.3-0.4,0.6c-0.1,0.2-0.3,0.4-0.4,0.6
		c-0.3,0.4-0.6,0.9-1.1,1.4l0,0c-0.3,0.3-0.6,0.6-1.3,0.7h0l0,0h0c-0.2,0-0.3,0-0.5,0.1c-0.2,0-0.3,0-0.5,0c-0.4,0-0.8,0-1.2,0
		c-0.2,0-0.4,0-0.5,0h0H92h0c-0.1,0-0.3,0-0.4,0c-0.1,0.1-0.2,0.2-0.2,0.3c-0.3,0.4-0.7,0.7-1.1,1.1l0,0c-0.3,0.3-0.7,0.4-1.1,0.5
		C88.8,93.9,88.5,93.9,88.2,93.9L88.2,93.9z"/>
	<path class="st2" d="M47,89.7c-0.1,0-0.2,0-0.4,0h0c-0.9,0-1.6,0-2.2,0c-0.6-0.1-1.2-0.1-1.8-0.5c-0.4-0.2-0.8-0.7-1-1.1
		c-0.3-0.6-0.3-1.1-0.3-1.6c0-0.4,0-0.9,0.1-1.4c0-0.7,0.1-1.6,0.1-2.6c0-0.1,0-0.1-0.1-0.2c-0.1-0.3-0.3-0.6-0.5-1.1
		c-0.4-0.8-0.9-1.9-1.6-3.3c-0.8-1.6-1.6-3.2-2.2-4.4c-0.3-0.6-0.6-1.1-0.7-1.4c-1.2-2.4-1.7-4.2-1.8-5.8c0-1.1,0.3-2.1,0.8-2.9
		c0.5-0.7,1.2-1.4,2.1-1.9c1.4-0.8,3-1.3,4.7-1.9c0.3-0.1,0.7-0.2,1.1-0.4c0.7-0.2,1.3-0.4,1.9-0.6c0.6-0.2,1.2-0.4,1.7-0.5
		c0.4-0.1,0.7-0.2,0.9-0.3c0.2-0.1,0.3-0.1,0.4-0.1c0,0,0,0,0-0.1c0.1-0.1,0.3-0.4,0.5-0.8v0c1.2-2.1,2.4-4,3.6-5.9
		c0.1-0.2,0.3-0.4,0.4-0.6c0.2-0.3,0.3-0.5,0.5-0.8c0.6-1.1,1.2-1.8,1.7-2.5c0.6-0.7,1.1-1.1,1.7-1.4c0.4-0.2,0.9-0.3,1.3-0.3h0
		c0.7,0,1.2,0.2,1.7,0.4c0.3,0.1,0.5,0.3,0.7,0.4c0.2,0.1,0.3,0.2,0.5,0.3c0.6,0.3,1.2,0.6,2.1,0.7c0-0.1,0-0.1,0.1-0.2
		c0.1-0.3,0.2-0.8,0.4-1.1c0.1-0.3,0.2-0.6,0.2-0.8c0.1-0.2,0.1-0.4,0.2-0.7c0-0.2,0.1-0.3,0.2-0.5c0.1-0.5,0.3-1,0.5-1.5
		c0,0,0,0,0-0.1c0.1-0.3,0.3-0.6,0.7-1c0.2-0.2,0.6-0.5,1.2-0.5h0c1.6,0,3.1-0.1,4.4-0.2c1-0.1,2-0.1,2.8-0.1c0.6,0,1.1,0,1.6,0.1
		c0.4,0.1,1,0.2,1.5,0.6c0.3,0.2,0.7,0.5,0.9,0.9c0.3,0.4,0.4,1,0.4,1.6c0,1.1-0.4,2.2-1,3.5c-0.1,0.1-0.1,0.2-0.1,0.4
		c0,0.4,0.2,0.7,0.5,0.8l4.6,2.3c0.1,0.1,0.3,0.1,0.4,0.1c0.3,0,0.6-0.1,0.7-0.4c0.7-0.9,0.9-2.3,1.3-3.9c0.1-0.7,0.8-1.3,1.5-1.3
		c0.1,0,0.2,0,0.3,0c0.7,0.1,1.2,0.8,1.3,1.5c0,0.1,0,0.2,0,0.3c0,0.1,0,0.2-0.1,0.4c-0.3,1.6-0.6,3.2-1.7,4.7
		c-0.7,1.1-2,1.7-3.3,1.7h0c-0.6,0-1.2-0.1-1.8-0.4l-4.6-2.3c-0.7-0.3-1.3-0.9-1.7-1.5c-0.4-0.6-0.6-1.4-0.6-2.1
		c0-0.6,0.1-1.1,0.4-1.6c0.5-1,0.7-1.8,0.7-2.2c-0.2-0.1-0.7-0.1-1.3-0.1h0c-0.7,0-1.5,0-2.4,0.1c-1.2,0.1-2.5,0.1-4,0.2
		c0,0.1,0,0.1-0.1,0.2c-0.1,0.3-0.2,0.7-0.3,1.1c-0.1,0.3-0.2,0.6-0.2,0.8v0c0,0.2-0.1,0.4-0.2,0.7c0,0.1-0.1,0.3-0.1,0.5
		c-0.1,0.4-0.3,0.9-0.5,1.4c-0.1,0.3-0.3,0.6-0.5,1c-0.2,0.2-0.4,0.4-0.7,0.6c-0.2,0.1-0.5,0.2-0.8,0.2h0h-0.1
		c-2.3,0-3.8-0.9-4.8-1.4c-0.1-0.1-0.2-0.1-0.4-0.2c-0.2-0.1-0.4-0.2-0.5-0.2c0,0-0.1,0.1-0.4,0.3c-0.4,0.4-1,1.3-1.7,2.4l0,0
		c-0.2,0.3-0.3,0.5-0.5,0.8c-0.1,0.2-0.2,0.4-0.4,0.7c-1.2,2-2.3,3.9-3.5,5.9l0,0c0,0.1-0.1,0.1-0.1,0.2c-0.2,0.4-0.4,0.6-0.6,0.9
		c-0.3,0.4-0.6,0.7-1,0.9c-0.3,0.1-0.5,0.2-0.7,0.3c-0.1,0-0.2,0.1-0.3,0.1c-0.2,0.1-0.5,0.2-0.8,0.3c-0.7,0.2-1.3,0.4-1.9,0.6
		c-0.6,0.2-1.2,0.3-1.7,0.5l0,0c-0.3,0.1-0.5,0.2-0.8,0.3c-1.3,0.4-2.5,0.8-3.4,1.2c-1,0.5-1.7,1-2,1.4c-0.2,0.3-0.3,0.6-0.3,1.2
		c0,1,0.5,2.6,1.4,4.5c0.1,0.3,0.4,0.8,0.7,1.4c0.9,1.8,2.4,4.8,3.5,7c0.4,0.8,0.8,1.7,1.1,2.3c0.1,0.1,0.1,0.3,0.2,0.5c0,0,0,0,0,0
		c0,0.1,0,0.2,0,0.4c0,1.3-0.1,2.3-0.1,3.1c0,0.5,0,0.9,0,1.1v0.1c0.1,0,0.2,0,0.4,0c0.4,0,1,0,1.8,0h0.1c0.1-0.1,0.3-0.3,0.5-0.5
		c0.3-0.3,0.7-0.7,1-1.1c0.2-0.2,0.5-0.5,0.7-0.7c0.4-0.4,0.8-0.8,1.2-1.1c0.2-0.2,0.4-0.4,0.8-0.5c0.2-0.1,0.4-0.2,0.8-0.2
		c1.3,0,2.4,0.1,3.2,0.1c0.5,0,0.9,0,1.2,0h0.1c0-0.1,0-0.2,0-0.3c0.1-0.8,0.8-1.5,1.7-1.4c0.9,0.1,1.5,0.8,1.4,1.7
		c0,0.5-0.1,0.9-0.2,1.4c-0.1,0.2-0.3,0.9-0.9,1.3c-0.3,0.2-0.6,0.3-0.9,0.4c-0.4,0.1-0.7,0.1-1.1,0.1c-0.4,0-0.9,0-1.5-0.1
		c-0.7,0-1.5-0.1-2.5-0.1c-0.1,0.1-0.3,0.3-0.5,0.5c-0.3,0.3-0.7,0.7-1,1.1c-0.2,0.2-0.5,0.5-0.7,0.7c-0.4,0.5-0.8,0.8-1.2,1.1
		c-0.2,0.2-0.4,0.4-0.8,0.5C47.6,89.6,47.4,89.7,47,89.7L47,89.7z"/>
	<circle class="st2" cx="63.9" cy="79.8" r="1.6"/>
	<circle class="st2" cx="89.1" cy="43.3" r="1.6"/>
	<circle class="st2" cx="85.4" cy="98" r="1.6"/>
</g>
</svg>
