<?xml version="1.0" encoding="utf-8"?>
<!-- Generator: Adobe Illustrator 24.2.0, SVG Export Plug-In . SVG Version: 6.00 Build 0)  -->
<svg version="1.1" id="Layer_1" xmlns="http://www.w3.org/2000/svg" xmlns:xlink="http://www.w3.org/1999/xlink" x="0px" y="0px"
	 viewBox="0 0 139.7 139.7" style="enable-background:new 0 0 139.7 139.7;" xml:space="preserve">
<style type="text/css">
	.st0{opacity:0.38;fill:#58D118;enable-background:new    ;}
	.st1{fill:#49AA0B;}
	.st2{fill:#FFFFFF;}
</style>
<circle class="st0" cx="69.9" cy="69.9" r="69.9"/>
<circle class="st1" cx="71" cy="69.8" r="57.9"/>
<path class="st2" d="M91.7,43.6c-2.4,0-4.4,2-4.4,4.4v1.4c-1.1-0.9-2.5-1.4-4-1.4h-31c0-2.4-2-4.3-4.4-4.3s-4.4,2-4.4,4.4v47
	c0,0.6,0.5,1.1,1.1,1.1H51c0.6,0,1.1-0.5,1.1-1.1V92h31c1.5,0,2.9-0.5,4-1.4v4.6c0,0.6,0.5,1.1,1.1,1.1h6.4c0.6,0,1.1-0.5,1.1-1.1
	V48C96.1,45.6,94.1,43.6,91.7,43.6z M93.8,48v45.8h-4.1V48c0-1.1,0.9-2.1,2.1-2.1S93.8,46.9,93.8,48z M87.4,58.3v23.1h-6.9V58.3
	H87.4z M78.2,58.3v23.1H71V58.3H78.2z M68.7,58.3v23.1h-7.2V58.3H68.7z M52.4,56v-5.8h31c2.2,0,4,1.8,4,4V56H52.4z M52.4,81.4V58.3
	h6.9v23.1H52.4z M87.4,83.7v1.9c0,2.2-1.8,4-4,4h-31v-5.9H87.4z M50.1,48v45.8H46V48c0-1.1,0.9-2.1,2.1-2.1S50.1,46.9,50.1,48z"/>
</svg>
