<?xml version="1.0" encoding="utf-8"?>
<!-- Generator: Adobe Illustrator 24.2.1, SVG Export Plug-In . SVG Version: 6.00 Build 0)  -->
<svg version="1.1" id="Layer_1" xmlns="http://www.w3.org/2000/svg" xmlns:xlink="http://www.w3.org/1999/xlink" x="0px" y="0px"
	 viewBox="0 0 139.7 139.7" style="enable-background:new 0 0 139.7 139.7;" xml:space="preserve">
<style type="text/css">
	.st0{opacity:0.38;fill:#F5A91C;}
	.st1{fill:#F5A91C;}
	.st2{fill:#FFFFFF;}
</style>
<circle class="st0" cx="69.9" cy="69.9" r="69.9"/>
<circle class="st1" cx="69.9" cy="69.9" r="57.9"/>
<g>
	<g>
		<path class="st2" d="M60.6,57.9h18.6v-8H60.6V57.9z M62.6,51.9h14.6v4H62.6V51.9z"/>
		<path class="st2" d="M60.6,68.5h18.6v-8H60.6V68.5z M62.6,62.6h14.6v4H62.6V62.6z"/>
		<path class="st2" d="M60.6,79.2h18.6v-8H60.6V79.2z M62.6,73.2h14.6v4H62.6V73.2z"/>
		<path class="st2" d="M60.6,89.8h18.6v-8H60.6V89.8z M62.6,83.8h14.6v4H62.6V83.8z"/>
		<path class="st2" d="M101.1,92.5V79.8h0.7v-2h-8V60.6h1.3v-2H83.8V47.3h1.3v-2H54.6v2h1.3v11.3H44.6v2h1.3v17.3h-8v2h0.7v12.6h-2
			v2h66.4v-2H101.1z M45.9,92.5h-5.3V79.8h5.3V92.5z M55.9,92.5h-8v-4h4.7v-2h-4.7v-2h4.7v-2h-4.7v-2h4.7v-2h-4.7v-2h4.7v-2h-4.7v-2
			h4.7v-2h-4.7v-2h4.7v-2h-4.7v-2h4.7v-2h-4.7v-2h8V92.5z M81.8,92.5H57.9V47.3h23.9V92.5z M83.8,92.5V60.6h8v2h-4.7v2h4.7v2h-4.7v2
			h4.7v2h-4.7v2h4.7v2h-4.7v2h4.7v2h-4.7v2h4.7v2h-4.7v2h4.7v2h-4.7v2h4.7v4L83.8,92.5z M99.1,92.5h-5.3V79.8h5.3V92.5z"/>
	</g>
</g>
</svg>
