<svg height='100px' width='100px'  fill="#000000" xmlns="http://www.w3.org/2000/svg" xmlns:xlink="http://www.w3.org/1999/xlink" version="1.1" x="0px" y="0px" viewBox="0 0 128 128" style="enable-background:new 0 0 128 128;" xml:space="preserve"><style type="text/css">
	.st0{display:none;}
	.st1{display:inline;}
	.st2{fill:none;stroke:#000000;stroke-width:0.1;stroke-miterlimit:10;}
</style><g class="st0"><g class="st1"><rect class="st2" width="128" height="128"></rect><line class="st2" x1="0" y1="124" x2="128" y2="124"></line><line class="st2" x1="0" y1="120" x2="128" y2="120"></line><line class="st2" x1="0" y1="116" x2="128" y2="116"></line><line class="st2" x1="0" y1="112" x2="128" y2="112"></line><line class="st2" x1="0" y1="108" x2="128" y2="108"></line><line class="st2" x1="0" y1="104" x2="128" y2="104"></line><line class="st2" x1="0" y1="100" x2="128" y2="100"></line><line class="st2" x1="0" y1="96" x2="128" y2="96"></line><line class="st2" x1="0" y1="92" x2="128" y2="92"></line><line class="st2" x1="0" y1="88" x2="128" y2="88"></line><line class="st2" x1="0" y1="84" x2="128" y2="84"></line><line class="st2" x1="0" y1="80" x2="128" y2="80"></line><line class="st2" x1="0" y1="76" x2="128" y2="76"></line><line class="st2" x1="0" y1="72" x2="128" y2="72"></line><line class="st2" x1="0" y1="68" x2="128" y2="68"></line><line class="st2" x1="0" y1="64" x2="128" y2="64"></line><line class="st2" x1="0" y1="60" x2="128" y2="60"></line><line class="st2" x1="0" y1="56" x2="128" y2="56"></line><line class="st2" x1="0" y1="52" x2="128" y2="52"></line><line class="st2" x1="0" y1="48" x2="128" y2="48"></line><line class="st2" x1="0" y1="44" x2="128" y2="44"></line><line class="st2" x1="0" y1="40" x2="128" y2="40"></line><line class="st2" x1="0" y1="36" x2="128" y2="36"></line><line class="st2" x1="0" y1="32" x2="128" y2="32"></line><line class="st2" x1="0" y1="28" x2="128" y2="28"></line><line class="st2" x1="0" y1="24" x2="128" y2="24"></line><line class="st2" x1="0" y1="20" x2="128" y2="20"></line><line class="st2" x1="0" y1="16" x2="128" y2="16"></line><line class="st2" x1="0" y1="12" x2="128" y2="12"></line><line class="st2" x1="0" y1="8" x2="128" y2="8"></line><line class="st2" x1="0" y1="4" x2="128" y2="4"></line><line class="st2" x1="124" y1="0" x2="124" y2="128"></line><line class="st2" x1="120" y1="0" x2="120" y2="128"></line><line class="st2" x1="116" y1="0" x2="116" y2="128"></line><line class="st2" x1="112" y1="0" x2="112" y2="128"></line><line class="st2" x1="108" y1="0" x2="108" y2="128"></line><line class="st2" x1="104" y1="0" x2="104" y2="128"></line><line class="st2" x1="100" y1="0" x2="100" y2="128"></line><line class="st2" x1="96" y1="0" x2="96" y2="128"></line><line class="st2" x1="92" y1="0" x2="92" y2="128"></line><line class="st2" x1="88" y1="0" x2="88" y2="128"></line><line class="st2" x1="84" y1="0" x2="84" y2="128"></line><line class="st2" x1="80" y1="0" x2="80" y2="128"></line><line class="st2" x1="76" y1="0" x2="76" y2="128"></line><line class="st2" x1="72" y1="0" x2="72" y2="128"></line><line class="st2" x1="68" y1="0" x2="68" y2="128"></line><line class="st2" x1="64" y1="0" x2="64" y2="128"></line><line class="st2" x1="60" y1="0" x2="60" y2="128"></line><line class="st2" x1="56" y1="0" x2="56" y2="128"></line><line class="st2" x1="52" y1="0" x2="52" y2="128"></line><line class="st2" x1="48" y1="0" x2="48" y2="128"></line><line class="st2" x1="44" y1="0" x2="44" y2="128"></line><line class="st2" x1="40" y1="0" x2="40" y2="128"></line><line class="st2" x1="36" y1="0" x2="36" y2="128"></line><line class="st2" x1="32" y1="0" x2="32" y2="128"></line><line class="st2" x1="28" y1="0" x2="28" y2="128"></line><line class="st2" x1="24" y1="0" x2="24" y2="128"></line><line class="st2" x1="20" y1="0" x2="20" y2="128"></line><line class="st2" x1="16" y1="0" x2="16" y2="128"></line><line class="st2" x1="12" y1="0" x2="12" y2="128"></line><line class="st2" x1="8" y1="0" x2="8" y2="128"></line><line class="st2" x1="4" y1="0" x2="4" y2="128"></line></g></g><g><path d="M110.6,84.3V44.1c0-0.5-0.1-0.9-0.2-1.4l-11-33.1c-0.6-1.7-2.2-2.9-4.1-2.9H79.9c-0.1,0-0.1,0-0.2-0.1l-3-2.9   c-0.8-0.8-1.9-1.2-3-1.2H51.1c-1.1,0-2.2,0.4-3,1.3l-2.9,2.9c-0.1,0.1-0.1,0.1-0.2,0.1H32.7c-1.8,0-3.5,1.2-4.1,2.9l-11,33.1   c-0.1,0.4-0.2,0.9-0.2,1.4v40.2c0,6.3,5.1,11.4,11.4,11.4h7.4l-17.8,27.7l3.4,2.2l3.7-5.7h77.3l3.7,5.7l3.4-2.2L91.9,95.7h7.4   C105.5,95.7,110.6,90.6,110.6,84.3z M31.2,71c0-4.4,3.6-7.9,7.9-7.9s7.9,3.6,7.9,7.9c0,4.4-3.6,7.9-7.9,7.9S31.2,75.4,31.2,71z    M27.9,115.8l5.1-8H95l5.1,8H27.9z M92.4,103.9H35.6l5.3-8.2h46.3L92.4,103.9z M88.9,79.7c-4.4,0-7.9-3.6-7.9-7.9   c0-4.4,3.6-7.9,7.9-7.9s7.9,3.6,7.9,7.9C96.8,76.1,93.3,79.7,88.9,79.7z M95,43.4H33c-1.3,0-2.6-0.6-3.4-1.7   c-0.8-1.1-1.1-2.4-0.7-3.7l5.5-20.5c0.5-1.9,2.2-3.2,4.1-3.2h51.1c1.9,0,3.6,1.3,4.1,3.2L99.1,38c0.3,1.3,0.1,2.6-0.7,3.7   C97.6,42.8,96.4,43.4,95,43.4z"></path></g></svg>