<svg xmlns="http://www.w3.org/2000/svg" xmlns:xlink="http://www.w3.org/1999/xlink" version="1.1" x="0px" y="0px" viewBox="0 0 100 125" enable-background="new 0 0 100 100" xml:space="preserve"><path fill="#000000" d="M50.039,10.36c-13.484,0-28.448,9.796-28.448,28.611S45.187,90.51,50.039,90.51  c4.855,0,27.908-32.14,27.908-52.244C77.947,11.339,50.039,10.36,50.039,10.36z M49.768,58.715  c-10.771,0-19.501-8.732-19.501-19.502c0-10.772,8.73-19.503,19.501-19.503S69.27,28.441,69.27,39.213  C69.27,49.984,60.539,58.715,49.768,58.715z"/><path d="M54.756,29.027h-2.84v-0.582c0-0.283-0.23-0.514-0.514-0.514h-3.126c-0.283,0-0.514,0.23-0.514,0.514v0.582h-2.981  c-0.283,0-0.514,0.23-0.514,0.514v0.806c0,0.283,0.23,0.513,0.514,0.513h9.975c0.283,0,0.514-0.23,0.514-0.513v-0.806  C55.27,29.257,55.039,29.027,54.756,29.027z"/><path d="M56.587,48.43c-0.114-0.151-0.294-0.237-0.493-0.237H43.445c-0.199,0-0.379,0.086-0.493,0.237  c-0.114,0.15-0.15,0.347-0.097,0.54l0.176,0.63c0.089,0.32,0.406,0.56,0.738,0.56h12c0.332,0,0.648-0.24,0.736-0.559l0.178-0.633  C56.736,48.776,56.701,48.58,56.587,48.43z"/><path d="M58.824,39.372c-0.092-0.156-0.244-0.27-0.42-0.313l-8.324-2.046c-0.262-0.063-0.468-0.063-0.727,0.001l-8.221,2.044  c-0.178,0.044-0.326,0.155-0.418,0.313c-0.092,0.157-0.115,0.341-0.066,0.518l1.795,6.433c0.088,0.32,0.404,0.562,0.738,0.562  h13.176c0.332,0,0.649-0.241,0.738-0.56l1.795-6.433C58.939,39.716,58.916,39.527,58.824,39.372z M47.239,43.737  c-0.642,0-1.161-0.52-1.161-1.16c0-0.64,0.52-1.16,1.161-1.16c0.641,0,1.159,0.52,1.159,1.16  C48.398,43.218,47.88,43.737,47.239,43.737z M52.301,43.737c-0.641,0-1.16-0.52-1.16-1.16c0-0.64,0.521-1.16,1.16-1.16  c0.641,0,1.16,0.52,1.16,1.16C53.461,43.218,52.941,43.737,52.301,43.737z"/><path d="M55.822,31.646H43.716c-0.15,0-0.274,0.127-0.274,0.281v5.079c0,0.155,0.119,0.246,0.264,0.203L49.48,35.5  c0.145-0.043,0.381-0.043,0.526-0.001l5.826,1.705c0.146,0.042,0.266-0.05,0.266-0.204v-5.072  C56.098,31.773,55.973,31.646,55.822,31.646z M54.549,34.185c0,0.151-0.122,0.274-0.273,0.274h-9.011  c-0.15,0-0.274-0.123-0.274-0.274v-0.991c0-0.151,0.124-0.274,0.274-0.274h9.011c0.151,0,0.273,0.123,0.273,0.274V34.185z"/><text x="0" y="115" fill="#000000" font-size="5px" font-weight="bold" font-family="'Helvetica Neue', Helvetica, Arial-Unicode, Arial, Sans-serif">Created by Kaylen Yul Lee</text><text x="0" y="120" fill="#000000" font-size="5px" font-weight="bold" font-family="'Helvetica Neue', Helvetica, Arial-Unicode, Arial, Sans-serif">from the Noun Project</text></svg>