<svg id="Layer_1" data-name="Layer 1" xmlns="http://www.w3.org/2000/svg" viewBox="0 0 126.8 193.7"><defs><style>.cls-1{fill:#15294f;fill-rule:evenodd;}.cls-2{fill:#fff;}</style></defs><path class="cls-1" d="M63.4,0C28.4,0,0,29.2,0,65.1c0,7.4,3.1,16.6,7.8,27.7S18.7,116.5,25.3,129c13.2,25.2,28.1,50.5,34.2,62.3a4.44,4.44,0,0,0,3.9,2.4,4.32,4.32,0,0,0,3.9-2.4c6.1-11.8,20.9-37.1,34.2-62.3,6.6-12.6,12.8-25.2,17.5-36.2s7.8-20.3,7.8-27.7C126.8,29.3,98.5,0,63.4,0Z" transform="translate(0 0)"/><path id="Path_240" data-name="Path 240" class="cls-2" d="M38.3,26.5h4.4V50H38.1l-3.4-8.3a79.5,79.5,0,0,1-3.1-9.4h-.1c.1,2,.3,4.3.4,6.7s.2,4.7.2,6.6V50H27.8V26.5h4.5L35.7,35a79.5,79.5,0,0,1,3.1,9.4h.1c-.1-2.1-.3-4.4-.4-6.7s-.2-4.5-.2-6.6Z" transform="translate(0 0)"/><path id="Path_241" data-name="Path 241" class="cls-2" d="M55.1,33.6c0-2.1-.1-4.1-2.5-4.1-1.5,0-2.4.6-2.4,2.2,0,1.8,1.1,2.5,2.5,3.4A37.9,37.9,0,0,1,58,39a6.21,6.21,0,0,1,2,4.9c0,4.5-2.9,6.7-7.3,6.7-5.3,0-7.1-2.9-7.1-7.1V41.8H50v1.4c-.1,2.3.6,3.9,2.7,3.9a2.43,2.43,0,0,0,2.7-2.7,3.34,3.34,0,0,0-1.8-3.1c-2.3-1.8-5.2-3.1-6.9-5.4a6.63,6.63,0,0,1-1.1-3.6c.1-4.1,2.3-6.2,6.9-6.2,7,0,6.8,5.4,6.8,7.7H55.1Z" transform="translate(0 0)"/><path id="Path_242" data-name="Path 242" class="cls-2" d="M77.6,38.6c.4,2.4.6,5.3,1,8.3h.1a9.7,9.7,0,0,0,.1-1.7q.15-3,.6-6l1.8-12.8h4.6L81.5,49.9H76.2l-1.8-9.3c-.4-2.5-.6-5-1-7.5h-.1a64.23,64.23,0,0,1-1,7.5l-1.6,9.3H65.4L61,26.5h4.5l2.1,12.8q.45,3,.6,6a9.7,9.7,0,0,1,.1,1.7h.1c.3-3,.6-6,1-8.3l2.1-12.2h3.6Z" transform="translate(0 0)"/><path id="Path_243" data-name="Path 243" class="cls-2" d="M27.8,87.2V57.5H39.1c5.3,0,6.9,4.3,6.9,8.4,0,2.5-.7,5.3-2.7,7a9.82,9.82,0,0,1-6.2,1.8H33.4V87.1Zm5.5-16.8h3c2.4,0,4-1,4-4.6,0-3.4-1.3-3.9-4.5-3.9H33.3Z" transform="translate(0 0)"/><path id="Path_244" data-name="Path 244" class="cls-2" d="M46.3,76.3c.1-8,.1-13.1,8.2-13.1s8,5.2,8.1,13.1c.1,8.1-1.1,11.6-8.1,11.5-7,.1-8.3-3.4-8.2-11.5m5.4,3.2c0,2.9.3,4.1,2.9,4.1s2.7-1.3,2.7-4.1V71.7c0-2.2,0-4.5-2.7-4.5-2.9,0-2.9,2.2-2.9,4.5Z" transform="translate(0 0)"/><path id="Path_245" data-name="Path 245" class="cls-2" d="M69.9,67.9h0a7.41,7.41,0,0,1,2.2-3.3,5.13,5.13,0,0,1,3.4-1.3v6.4c-3-.3-5.3.4-5.3,3.9V87.1H64.9V63.8h5.2v4.1Z" transform="translate(0 0)"/><path id="Path_246" data-name="Path 246" class="cls-2" d="M86.9,87.2c-3.2.4-7.6.6-7.6-3.7V67.7H77V63.8h2.2V57.4h5.4v6.4h2.3v3.9H84.6V82.1c.1,1,1.6.9,2.3.8Z" transform="translate(0 0)"/><path id="Path_247" data-name="Path 247" class="cls-2" d="M94.5,79.5c-.4,4.3,1.3,4.2,2.5,4.2a2.05,2.05,0,0,0,2.2-2.6c-.1-1.3-1.6-2.1-2.7-2.8l-2.9-2c-2.7-1.8-4.5-4-4.5-7.4,0-3.6,2.9-5.7,8-5.7s7.6,2.7,7.5,7.8H99.2c.1-2.6-.6-3.6-2.5-3.6-1.3,0-2.3.6-2.3,1.9s1,2,2,2.7l4.4,3c1.3.8,3.5,3.1,3.7,4.6.4,4.1-.5,8.3-8,8.3-2.9,0-8.2-1.2-7.6-8.3Z" transform="translate(0 0)"/><path id="Path_248" data-name="Path 248" class="cls-2" d="M108.6,97a20.74,20.74,0,0,0-8.4-2.4c-6.6-.6-15,.5-23.9,1.7-7.8,1.1-16.1,2.2-24,2.2-8.8,0-17.2-1.4-24-5.8l-.6-.4v7l.2.1C33,102,39,103,45.4,103c9.6,0,20-2.2,29.7-4.2,9.4-2,18.2-3.8,25-3.5a19.3,19.3,0,0,1,8.1,2.3Z" transform="translate(0 0)"/></svg>