<svg xmlns="http://www.w3.org/2000/svg" width="330" height="335" viewBox="0 0 330 335">
  <g id="Group_223" data-name="Group 223" transform="translate(7622.39 16368.68)">
    <g id="Group_214" data-name="Group 214" transform="translate(-1566)">
      <path id="marker" d="M38.583,145.318c-10.633,35.141,6.255,85.19,36.279,110.747l127.6,108.617,115.091-97.968c53.464-45.454,63.239-116.219,23.62-170.99s-118.252-79.2-190-59.023C99.882,51.076,56.1,87.282,38.583,145.318Z" transform="translate(-6091.779 -16398.361)" fill="#f7a900"/>
    </g>
    <path id="Path_307" data-name="Path 307" d="M169.311,11.033c-7.817-7.733-28.53,0-37.519,8.893l-22.277,22.04L45.224,25.533c-8.989-3.093-18.369-1.16-24.231,4.833L7.9,43.32,74.34,76.96l-7.23,7.153a49.39,49.39,0,0,0-5.081,5.8L47.764,108.087l-23.45-.58-10.552,10.44,14.851,14.693,18.173,17.98,14.851,14.693,10.552-10.44-.586-23.2L89.973,117.56c1.954-1.547,3.908-3.287,5.862-5.027,2.54-2.513,6.253-5.993,7.23-7.153l34,65.734,13.093-12.953c6.058-5.993,7.817-15.08,4.885-23.974L138.436,70.58l22.082-22.427C169.311,39.26,177.323,18.766,169.311,11.033Z" transform="translate(-7561 -16308.671)"/>
  </g>
</svg>
