<svg xmlns="http://www.w3.org/2000/svg" width="330" height="335" viewBox="0 0 330 335">
  <g id="Group_224" data-name="Group 224" transform="translate(7622.39 15960.68)">
    <g id="Group_215" data-name="Group 215" transform="translate(-1566 408)">
      <path id="marker" d="M38.583,145.318c-10.633,35.141,6.255,85.19,36.279,110.747l127.6,108.617,115.091-97.968c53.464-45.454,63.239-116.219,23.62-170.99s-118.252-79.2-190-59.023C99.882,51.076,56.1,87.282,38.583,145.318Z" transform="translate(-6091.779 -16398.361)" fill="#f7a900"/>
    </g>
    <g id="Layer_2" data-name="Layer 2" transform="translate(-6741 -17120.752)">
      <g id="Group_216" data-name="Group 216" transform="translate(-807 1199.994)">
        <path id="Path_308" data-name="Path 308" d="M182.8,122.007c-5.768-4.348-15.123-4.348-20.891,0-14.647,10.547-33.452,17.216-53.573,19V89.064H142.81c8.159,0,14.774-4.983,14.774-11.131S150.969,66.8,142.81,66.8H108.338V41.535C119.92,36.5,125.566,26.226,122.1,16.494s-15.167-16.5-28.54-16.5-25.079,6.768-28.54,16.5,2.185,20,13.767,25.041V66.8H44.319c-8.159,0-14.774,4.983-14.774,11.131S36.16,89.064,44.319,89.064H78.791v51.944c-20.122-1.785-38.926-8.454-53.573-19-5.769-4.346-15.122-4.346-20.891,0s-5.769,11.393,0,15.74c20.213,14.678,46.5,23.687,74.464,25.523v3.71c0,6.147,6.614,11.131,14.774,11.131s14.774-4.983,14.774-11.131v-3.71c27.967-1.836,54.251-10.845,74.464-25.523C188.573,133.4,188.573,126.353,182.8,122.007ZM93.565,14.858c5.439,0,9.849,3.322,9.849,7.421S99,29.7,93.565,29.7s-9.849-3.322-9.849-7.421c.016-4.093,4.416-7.409,9.849-7.421Z" transform="translate(0 0.006)"/>
      </g>
    </g>
  </g>
</svg>
