<svg xmlns:dc="http://purl.org/dc/elements/1.1/" xmlns:cc="http://creativecommons.org/ns#" xmlns:rdf="http://www.w3.org/1999/02/22-rdf-syntax-ns#" xmlns:svg="http://www.w3.org/2000/svg" xmlns="http://www.w3.org/2000/svg" xmlns:sodipodi="http://sodipodi.sourceforge.net/DTD/sodipodi-0.dtd" xmlns:inkscape="http://www.inkscape.org/namespaces/inkscape" viewBox="0 0 100 125" version="1.1" x="0px" y="0px"><g transform="translate(0,-952.36216)"><path style="opacity:1;fill:#000000;fill-opacity:1;stroke:none;stroke-width:5;stroke-linecap:butt;stroke-linejoin:miter;stroke-miterlimit:4;stroke-dasharray:none;stroke-dashoffset:0;stroke-opacity:1" d="m 32.675,957.3622 -17.318,29.9961 17.318,29.9961 17.326,30.0078 17.324,-30.0078 17.319,-29.9961 -17.319,-29.9961 -34.634,0 -0.02,0 z m 4.941,8.5683 24.752,0 12.377,21.4278 -12.377,21.4277 -24.752,0 -12.374,-21.4277 12.374,-21.4278 z"/><path style="opacity:1;fill:#000000;fill-opacity:1;stroke:none;stroke-width:3;stroke-linecap:butt;stroke-linejoin:miter;stroke-miterlimit:4;stroke-dasharray:none;stroke-dashoffset:0;stroke-opacity:1" d="m 49.591093,973.23845 -0.416622,0.71862 0.234747,0.40901 -0.211484,0 -0.797292,1.3795 0.260125,0.45427 -0.645024,0 -1.983714,3.42835 0.541398,0.9337 -0.809981,0 0,1.05742 8.459331,0 0,-1.05742 -0.803636,0 0.541397,-0.9337 -1.983713,-3.42835 -0.645024,0 0.260124,-0.45427 -0.797292,-1.3795 -0.211483,0 0.234746,-0.40901 -0.416622,-0.71862 -0.831129,0 z m -0.524478,4.76662 1.880086,0 0.936871,1.62313 -0.537167,0.9337 -2.679494,0 -0.537167,-0.9337 0.936871,-1.62313 z"/><path style="color:#000000;font-style:normal;font-variant:normal;font-weight:normal;font-stretch:normal;font-size:medium;line-height:normal;font-family:sans-serif;text-indent:0;text-align:start;text-decoration:none;text-decoration-line:none;text-decoration-style:solid;text-decoration-color:#000000;letter-spacing:normal;word-spacing:normal;text-transform:none;direction:ltr;block-progression:tb;writing-mode:lr-tb;baseline-shift:baseline;text-anchor:start;white-space:normal;clip-rule:nonzero;display:inline;overflow:visible;visibility:visible;opacity:1;isolation:auto;mix-blend-mode:normal;color-interpolation:sRGB;color-interpolation-filters:linearRGB;solid-color:#000000;solid-opacity:1;fill:#000000;fill-opacity:1;fill-rule:evenodd;stroke:none;stroke-width:0.49999994;stroke-linecap:butt;stroke-linejoin:miter;stroke-miterlimit:4;stroke-dasharray:none;stroke-dashoffset:0;stroke-opacity:1;color-rendering:auto;image-rendering:auto;shape-rendering:auto;text-rendering:auto;enable-background:accumulate" d="m 49.742188,971.74609 0,1.70508 0.5,0 0,-1.70508 -0.5,0 z"/><path style="" d="m 46.663862,986.07499 -2.401913,21.14831 -1.238487,0 0,1.6084 13.939675,0 0,-1.6084 -1.243848,0 -2.154216,-21.14831 -6.901211,0 z m 2.659261,4.20956 1.340353,0 0.670177,1.1645 -0.670177,1.16439 -1.340353,0 -0.670177,-1.16439 0.670177,-1.1645 z m 0,4.40859 1.340353,0 0.670177,1.16439 -0.670177,1.16235 -1.340353,0 -0.670177,-1.16235 0.670177,-1.16439 z m 0.670177,8.65986 2.247504,1.2964 0,2.5739 -4.491792,0 0,-2.5739 2.244288,-1.2964 z" fill="#000000" fill-opacity="1" stroke="none"/><path style="opacity:1;fill:#000000;fill-opacity:1;stroke:none;stroke-width:0.5;stroke-linecap:butt;stroke-linejoin:miter;stroke-miterlimit:4;stroke-dasharray:none;stroke-dashoffset:0;stroke-opacity:1" d="m 44.899957,982.33894 0,0.83767 0.599406,0 1.434714,2.17802 6.119518,0 1.433642,-2.17802 0.599406,0 0,-0.83767 -10.186686,0 z m 1.702785,0.83767 1.533364,0 0.413901,1.34249 -1.063704,0 -0.883561,-1.34249 z m 2.429793,0 1.920458,0 -0.412829,1.34249 -1.093728,0 -0.413901,-1.34249 z m 2.819031,0 1.536581,0 -0.883561,1.34249 -1.067994,0 0.414974,-1.34249 z"/></g><text x="0" y="115" fill="#000000" font-size="5px" font-weight="bold" font-family="'Helvetica Neue', Helvetica, Arial-Unicode, Arial, Sans-serif">Created by P Thanga Vignesh</text><text x="0" y="120" fill="#000000" font-size="5px" font-weight="bold" font-family="'Helvetica Neue', Helvetica, Arial-Unicode, Arial, Sans-serif">from the Noun Project</text></svg>