<?xml version="1.0" encoding="utf-8"?>
<!-- Generator: Adobe Illustrator 24.2.1, SVG Export Plug-In . SVG Version: 6.00 Build 0)  -->
<svg version="1.1" id="Layer_1" xmlns="http://www.w3.org/2000/svg" xmlns:xlink="http://www.w3.org/1999/xlink" x="0px" y="0px"
	 viewBox="0 0 139.7 139.7" style="enable-background:new 0 0 139.7 139.7;" xml:space="preserve">
<style type="text/css">
	.st0{opacity:0.38;fill:#F5A91C;}
	.st1{fill:#F5A91C;}
	.st2{fill:#FFFFFF;}
</style>
<circle class="st0" cx="69.9" cy="69.9" r="69.9"/>
<circle class="st1" cx="69.9" cy="69.9" r="57.9"/>
<g>
	<path class="st2" d="M38.6,92.8c1.6,0,3.2,0.5,4.5,1.5c1.7,1.3,3.8,2,5.9,2c2.2,0,4.3-0.7,6-2c1.2-1,2.8-1.5,4.4-1.5
		c1.6,0,3.2,0.5,4.5,1.5c1.7,1.3,3.8,2,5.9,2c2.2,0,4.3-0.7,6-2c2.6-2,6.2-2,8.8,0c1.7,1.3,3.8,2,6,2s4.3-0.7,6-2
		c1.3-1,2.8-1.5,4.5-1.5c0.8,0,1.4-0.6,1.4-1.4c0-0.8-0.6-1.4-1.4-1.4c-2.2,0-4.3,0.7-6,2c-1.3,1-2.8,1.5-4.5,1.5h-1.1l4.7-15.6
		c0.2-0.6,0-1.2-0.4-1.6l-6.3-4.5V58.3c-0.1-3.2-2.6-5.8-5.8-5.9h-6.2V37.6c0-1.2-0.6-2.1-1.8-2.1H66c-1.2,0-1.8,0.9-1.8,2.1v14.8
		H58c-3.2,0.1-5.7,2.7-5.8,5.9v13.5l-6.3,4.5c-0.5,0.4-0.7,1-0.5,1.6l4.7,15.5H49c-1.6,0-3.1-0.5-4.4-1.5c-1.7-1.3-3.8-2-6-2
		c-0.8,0-1.4,0.6-1.4,1.4C37.2,92.1,37.8,92.7,38.6,92.8L38.6,92.8z M86.9,92.4l-0.7-0.4h0c-1.7-1.3-3.8-2-6-2c-2.1,0-4.2,0.7-5.9,2
		c-0.9,0.7-1.9,1.1-3,1.3V63.9L85,73.6c0.1,0.1,0.2,0.2,0.4,0.3l5.9,4.2L86.9,92.4z M72.7,38.3v4.2l-5.7,0v-4.2L72.7,38.3z M67,45.4
		h5.7v7.1H67V45.4z M55,58.3c0.1-1.6,1.4-2.9,3-3h23.8c1.6,0.1,2.9,1.4,3,3v11.5L70.8,60c-0.5-0.3-1.2-0.3-1.8,0l-14,9.8L55,58.3z
		 M48.4,78l20-14.1v29.4c-1.1-0.2-2.1-0.7-3-1.3c-1.7-1.3-3.8-2-6-2c-2.1,0-4.2,0.7-5.9,2l-0.6,0.4L48.4,78z"/>
</g>
</svg>
