<svg xmlns="http://www.w3.org/2000/svg" width="330" height="335" viewBox="0 0 330 335">
  <g id="Group_226" data-name="Group 226" transform="translate(7268.39 15960.68)">
    <g id="Group_213" data-name="Group 213" transform="translate(-1212 408)">
      <path id="marker" d="M38.583,145.318c-10.633,35.141,6.255,85.19,36.279,110.747l127.6,108.617,115.091-97.968c53.464-45.454,63.239-116.219,23.62-170.99s-118.252-79.2-190-59.023C99.882,51.076,56.1,87.282,38.583,145.318Z" transform="translate(-6091.779 -16398.361)" fill="#f7a900"/>
    </g>
    <g id="Group_219" data-name="Group 219" transform="translate(-6862 -15502.758)">
      <g id="Group_217" data-name="Group 217" transform="translate(-312 -407.082)">
        <path id="Path_309" data-name="Path 309" d="M179.856,70.417a2.054,2.054,0,0,0-.189-.114L148.5,54.959V28.837a4.1,4.1,0,0,0-4.272-3.914H105.12V18.041a3.877,3.877,0,0,0-2.208-3.429L76.429,1.242A4.577,4.577,0,0,0,74.367.757H33.729a4.1,4.1,0,0,0-4.272,3.914V24.926H5.563a4.1,4.1,0,0,0-4.272,3.914v9.645A4.1,4.1,0,0,0,5.563,42.4a4.1,4.1,0,0,0,4.272-3.914V32.753H29.459V60.891L10.569,159.826H5.563a3.929,3.929,0,1,0,0,7.828H110.807a3.929,3.929,0,1,0,0-7.828H99.7L80.809,60.88V32.751h59.147V54.959L108.786,70.3c-.081.039-.138.08-.205.119a3.843,3.843,0,0,0-2.047,3.327v37.494a4.1,4.1,0,0,0,4.272,3.914h66.843a4.1,4.1,0,0,0,4.272-3.914V73.751A3.845,3.845,0,0,0,179.856,70.417ZM38,8.583H73.274L96.585,20.354v4.57H38Zm34.27,48.727H46.406L72.271,39.3Zm-6.716,7.826L55.133,73.883l-10.42-8.748Zm2-32.384L38,53.334V32.751ZM36.592,68.933,48.81,79.193,31.926,93.365Zm.39,30.805L55.133,84.5,73.284,99.738Zm36.135,7.826L55.131,122.358,37.145,107.564H73.117Zm-44.56,3.452,20.186,16.6L21.036,150.411Zm26.576,21.859L87.9,159.826H22.374Zm6.392-5.258,20.188-16.606,7.523,39.4Zm-.069-48.425L73.68,68.931l4.666,24.441Zm82.771-17.454,16.451,8.1h-32.9Zm29.15,45.592h-58.3V77.663h58.3Z" transform="translate(0 0)"/>
        <path id="Path_310" data-name="Path 310" d="M63.829,56.675a2.1,2.1,0,0,0,2.1-2.1V45.841a2.1,2.1,0,0,0-4.2,0v8.734A2.1,2.1,0,0,0,63.829,56.675Z" transform="translate(65.546 43.393)"/>
        <path id="Path_311" data-name="Path 311" d="M71.591,56.675a2.1,2.1,0,0,0,2.1-2.1V45.841a2.1,2.1,0,0,0-4.2,0v8.734A2.1,2.1,0,0,0,71.591,56.675Z" transform="translate(73.964 43.393)"/>
        <path id="Path_312" data-name="Path 312" d="M79.353,56.675a2.1,2.1,0,0,0,2.1-2.1V45.841a2.1,2.1,0,0,0-4.2,0v8.734A2.1,2.1,0,0,0,79.353,56.675Z" transform="translate(91.79 43.393)"/>
        <path id="Path_313" data-name="Path 313" d="M34.357,7.057H25.236a2.1,2.1,0,1,0,0,4.2h9.121a2.1,2.1,0,0,0,0-4.2Z" transform="translate(26.552)"/>
      </g>
    </g>
  </g>
</svg>
