<svg height='100px' width='100px'  fill="#34C8FF" xmlns="http://www.w3.org/2000/svg" viewBox="0 0 64 64" x="0px" y="0px"><title>ship</title><g data-name="Layer 2"><path d="M40,14h2V9a1,1,0,0,0-1-1H23a1,1,0,0,0-1,1v5h4V12h4v2h4V12h4v2Z"></path><path d="M47.16,23.85l-1.17-7A1,1,0,0,0,45,16H19a1,1,0,0,0-1,.83l-1.17,7,1.27-.33,13-3.39.09,0,.14,0A2.3,2.3,0,0,1,32,20a3,3,0,0,1,.45,0h.08l13.4,3.49Z"></path><path d="M16.48,26l-2.12.55L8.75,28A1,1,0,0,0,8,29.22l5.41,23.46A3,3,0,0,1,11,54c-1.24,0-1.82-.6-2.75-1.66A5.36,5.36,0,0,0,4,50v2c1.24,0,1.82.6,2.75,1.66A5.35,5.35,0,0,0,11,56a5.36,5.36,0,0,0,4.25-2.34C16.17,52.6,16.76,52,18,52s1.82.6,2.75,1.66A5.36,5.36,0,0,0,25,56a5.35,5.35,0,0,0,4.25-2.34A4.82,4.82,0,0,1,31,52.18V22.23L18.61,25.46Z"></path><path d="M55.74,52.34C54.82,53.4,54.23,54,53,54a3.06,3.06,0,0,1-2.44-1.3L56,29.22A1,1,0,0,0,55.25,28l-5.6-1.46L47.52,26l-2.13-.55L33,22.23v30a4.88,4.88,0,0,1,1.74,1.48,5,5,0,0,0,8.5,0C44.17,52.6,44.75,52,46,52s1.82.6,2.75,1.66a5,5,0,0,0,8.51,0C58.18,52.6,58.76,52,60,52V50A5.38,5.38,0,0,0,55.74,52.34Z"></path></g></svg>