<svg xmlns="http://www.w3.org/2000/svg" xmlns:xlink="http://www.w3.org/1999/xlink" width="100" height="100" viewBox="0 0 100 100"><svg viewBox="0 0 99.999997 99.999997"><g transform="translate(-149.6453,-589.21878)"><path d="m 199.64552,591.21879 a 48.000099,48.000099 0 0 0 -48.00022,48.00022 48.000099,48.000099 0 0 0 48.00022,47.99977 48.000099,48.000099 0 0 0 47.99977,-47.99977 48.000099,48.000099 0 0 0 -47.99977,-48.00022 z m 0,5.42088 a 42.107528,42.578935 0 0 1 42.10718,42.57934 42.107528,42.578935 0 0 1 -42.10718,42.57887 42.107528,42.578935 0 0 1 -42.10763,-42.57887 42.107528,42.578935 0 0 1 42.10763,-42.57934 z" fill="#1A1A1A"></path></g></svg><g transform="translate(50 50) scale(0.69 0.69) rotate(0) translate(-50 -50)" style="fill:#1A1A1A"><svg fill="#1A1A1A" xmlns="http://www.w3.org/2000/svg" xmlns:xlink="http://www.w3.org/1999/xlink" version="1.1" x="0px" y="0px" viewBox="206 206 100 100" enable-background="new 206 206 100 100" xml:space="preserve"><g><path fill="#1A1A1A" d="M223.388,289.976v0.17h12.709v-0.17c0-1.126-0.433-1.792-0.609-1.87h-11.492   C223.822,288.184,223.388,288.85,223.388,289.976z"></path><path fill="#1A1A1A" d="M225.12,258.215v27.933h9.244v-27.933H225.12z M227.813,275.469c0,0.54-0.439,0.979-0.979,0.979   s-0.979-0.439-0.979-0.979v-15.674c0-0.54,0.439-0.979,0.979-0.979s0.979,0.439,0.979,0.979V275.469z M230.722,282.395   c0,0.542-0.439,0.979-0.979,0.979c-0.542,0-0.979-0.437-0.979-0.979v-22.599c0-0.54,0.437-0.979,0.979-0.979   c0.54,0,0.979,0.439,0.979,0.979V282.395z M233.63,275.469c0,0.54-0.439,0.979-0.979,0.979s-0.979-0.439-0.979-0.979v-15.674   c0-0.54,0.439-0.979,0.979-0.979s0.979,0.439,0.979,0.979V275.469z"></path><path fill="#1A1A1A" d="M238.877,293.974c0-1.126-0.433-1.792-0.609-1.87h-17.052c-0.176,0.078-0.609,0.744-0.609,1.868   c0,0.002,0,0.002,0,0.002v0.17h18.27V293.974L238.877,293.974z"></path><path fill="#1A1A1A" d="M236.097,254.217h-12.709v0.17c0,1.126,0.435,1.792,0.609,1.87h11.492c0.174-0.078,0.609-0.744,0.609-1.87   V254.217z"></path><path fill="#1A1A1A" d="M238.877,250.389v-0.17h-18.27v0.17c0,1.126,0.433,1.792,0.609,1.87h17.052   C238.445,252.181,238.877,251.515,238.877,250.389z"></path><path fill="#1A1A1A" d="M214.6,245.518c0,1.512,1.382,2.743,3.08,2.743c0.002,0,0.002,0,0.004,0h76.615c0.002,0,0.002,0,0.004,0   c1.715,0,3.096-1.232,3.096-2.743v-2.743H214.6V245.518z"></path><path fill="#1A1A1A" d="M249.644,289.976v0.17h12.711v-0.17c0-1.126-0.435-1.792-0.609-1.87h-11.492   C250.079,288.184,249.644,288.85,249.644,289.976z"></path><path fill="#1A1A1A" d="M256,211.779l-36.765,29.037h73.531L256,211.779z M256,238.016c-5.216,0-9.459-3.928-9.459-8.756   c0-4.826,4.243-8.754,9.459-8.754c5.216,0,9.459,3.928,9.459,8.754C265.459,234.089,261.216,238.016,256,238.016z"></path><path fill="#1A1A1A" d="M214.6,298.846c0,1.514,1.382,2.745,3.082,2.745c0.002,0,0.002,0,0.002,0h76.634   c1.653,0,3.031-1.194,3.082-2.665v-2.823h-82.8V298.846z"></path><path fill="#1A1A1A" d="M265.136,293.974c0-1.126-0.435-1.792-0.609-1.87h-17.054c-0.174,0.078-0.609,0.744-0.609,1.87v0.17h18.272   V293.974z"></path><path fill="#1A1A1A" d="M275.903,289.976v0.17h12.709v-0.17c0-1.126-0.433-1.792-0.609-1.87h-11.492   C276.338,288.184,275.903,288.85,275.903,289.976z"></path><path fill="#1A1A1A" d="M265.136,250.389v-0.17h-18.272v0.17c0,1.126,0.435,1.792,0.609,1.87h17.052   C264.701,252.181,265.136,251.515,265.136,250.389z"></path><path fill="#1A1A1A" d="M277.636,258.215v27.933h9.244v-27.933H277.636z M280.328,275.469c0,0.54-0.439,0.979-0.979,0.979   s-0.979-0.439-0.979-0.979v-15.674c0-0.54,0.439-0.979,0.979-0.979s0.979,0.439,0.979,0.979V275.469z M283.236,282.395   c0,0.542-0.439,0.979-0.979,0.979s-0.979-0.437-0.979-0.979l0.002-22.599c0-0.54,0.437-0.979,0.979-0.979   c0.54,0,0.979,0.439,0.979,0.979L283.236,282.395z M286.145,275.469c0,0.54-0.439,0.979-0.979,0.979   c-0.54,0-0.979-0.439-0.979-0.979v-15.674c0-0.54,0.439-0.979,0.979-0.979c0.54,0,0.979,0.439,0.979,0.979V275.469z"></path><path fill="#1A1A1A" d="M273.123,250.389c0,1.126,0.433,1.792,0.609,1.87h17.052c0.088-0.039,0.239-0.225,0.37-0.542   c0.129-0.317,0.239-0.766,0.239-1.328v-0.17h-18.27V250.389z"></path><path fill="#1A1A1A" d="M291.393,293.974c0-1.126-0.433-1.792-0.609-1.87h-17.052c-0.176,0.078-0.609,0.744-0.609,1.87v0.17h18.27   V293.974L291.393,293.974z"></path><path fill="#1A1A1A" d="M288.612,254.217h-12.709v0.17c0,1.126,0.435,1.792,0.609,1.87h11.492c0.174-0.078,0.609-0.744,0.609-1.87   V254.217L288.612,254.217z"></path><path fill="#1A1A1A" d="M262.356,254.385v-0.168h-12.711v0.17c0,1.126,0.435,1.792,0.611,1.87h11.49   c0.176-0.078,0.611-0.744,0.611-1.87C262.356,254.385,262.356,254.385,262.356,254.385z"></path><path fill="#1A1A1A" d="M251.377,258.215v27.933h9.246v-27.933H251.377z M254.069,275.469c0,0.54-0.439,0.979-0.979,0.979   s-0.979-0.439-0.979-0.979v-15.674c0-0.54,0.439-0.979,0.979-0.979s0.979,0.439,0.979,0.979V275.469z M256.979,282.395   c0,0.542-0.439,0.979-0.979,0.979s-0.979-0.437-0.979-0.979v-22.599c0-0.54,0.439-0.979,0.979-0.979s0.979,0.439,0.979,0.979   V282.395z M259.889,275.469c0,0.54-0.439,0.979-0.979,0.979c-0.54,0-0.979-0.439-0.979-0.979v-15.674   c0-0.54,0.439-0.979,0.979-0.979c0.54,0,0.979,0.439,0.979,0.979V275.469z"></path></g></svg></g></svg>