<svg xmlns="http://www.w3.org/2000/svg" width="330" height="335" viewBox="0 0 330 335">
  <g id="Group_232" data-name="Group 232" transform="translate(6900.39 16368.68)">
    <g id="Group_210" data-name="Group 210" transform="translate(-844)">
      <path id="marker" d="M38.583,145.318c-10.633,35.141,6.255,85.19,36.279,110.747l127.6,108.617,115.091-97.968c53.464-45.454,63.239-116.219,23.62-170.99s-118.252-79.2-190-59.023C99.882,51.076,56.1,87.282,38.583,145.318Z" transform="translate(-6091.779 -16398.361)" fill="#f7a900"/>
    </g>
    <g id="Group_231" data-name="Group 231" transform="translate(-6836 -16323.621)">
      <path id="Path_319" data-name="Path 319" d="M122.264,22.443c0-10.908-9.631-19.823-21.558-19.823S79.211,11.534,79.211,22.443c0,7.8,5.039,14.838,12.756,18V55.461h-10.4c-4.847,0-8.8,3.636-8.8,8.093s3.955,8.093,8.8,8.093h10.4v94.774C61.48,162.786,37.5,140.735,33.543,112.7h3.38a8.858,8.858,0,0,0,7.463-3.812,7.441,7.441,0,0,0,.383-7.859L32.012,77.571a8.573,8.573,0,0,0-7.845-4.281,8.642,8.642,0,0,0-7.845,4.223L3.565,100.972a7.441,7.441,0,0,0,.383,7.859,8.858,8.858,0,0,0,7.463,3.812h4.529c4.465,39.646,41.267,70.377,84.767,70.377s80.366-30.731,84.767-70.377H190a8.858,8.858,0,0,0,7.463-3.812,7.441,7.441,0,0,0,.383-7.859L185.09,77.513a8.758,8.758,0,0,0-7.845-4.223,8.642,8.642,0,0,0-7.845,4.223l-12.756,23.459a7.441,7.441,0,0,0,.383,7.859,8.858,8.858,0,0,0,7.463,3.812h3.38c-3.954,28.033-27.937,50.085-58.425,53.721V71.589h10.4c4.847,0,8.8-3.636,8.8-8.093s-3.954-8.093-8.8-8.093h-10.4V40.448C117.161,37.281,122.264,30.243,122.264,22.443Zm-21.558,8.093c-4.847,0-8.8-3.636-8.8-8.093s3.955-8.035,8.8-8.035,8.8,3.577,8.8,8.035S105.553,30.536,100.706,30.536Z" transform="translate(0 0)"/>
    </g>
  </g>
</svg>
