<svg xmlns="http://www.w3.org/2000/svg" width="330" height="335" viewBox="0 0 330 335">
  <g id="Group_233" data-name="Group 233" transform="translate(6478.39 16368.68)">
    <g id="Group_209" data-name="Group 209" transform="translate(-422)">
      <path id="marker" d="M38.583,145.318c-10.633,35.141,6.255,85.19,36.279,110.747l127.6,108.617,115.091-97.968c53.464-45.454,63.239-116.219,23.62-170.99s-118.252-79.2-190-59.023C99.882,51.076,56.1,87.282,38.583,145.318Z" transform="translate(-6091.779 -16398.361)" fill="#f7a900"/>
    </g>
    <path id="Path_323" data-name="Path 323" d="M151,162.766a3.722,3.722,0,0,0,3.576-3.853v-7.706A3.722,3.722,0,0,0,151,147.353h-5.96V58.729a3.722,3.722,0,0,0-3.576-3.853h-29.8V7.353A3.722,3.722,0,0,0,108.089,3.5h-59.6a3.722,3.722,0,0,0-3.576,3.853V29.188h-29.8a3.722,3.722,0,0,0-3.576,3.853V147.353H5.576A3.722,3.722,0,0,0,2,151.206v7.706a3.722,3.722,0,0,0,3.576,3.853ZM40.145,137.078H25.84V121.665h14.3Zm0-25.688H25.84V95.977h14.3Zm0-25.688H25.84V70.289h14.3Zm0-25.688H25.84V44.6h14.3Zm33.376,77.064h-14.3V121.665h14.3Zm0-25.688h-14.3V95.977h14.3Zm0-25.688h-14.3V70.289h14.3Zm0-25.688h-14.3V44.6h14.3Zm0-25.688h-14.3V18.913h14.3Zm23.84,102.752h-14.3V121.665h14.3Zm0-25.688h-14.3V95.977h14.3Zm0-25.688h-14.3V70.289h14.3Zm0-25.688h-14.3V44.6h14.3Zm0-25.688h-14.3V18.913h14.3Zm33.376,102.752h-14.3V121.665h14.3Zm0-25.688h-14.3V95.977h14.3Zm0-25.688h-14.3V70.289h14.3Z" transform="translate(-6391.578 -16320.5)"/>
  </g>
</svg>
