<?xml version="1.0" encoding="utf-8"?>
<!-- Generator: Adobe Illustrator 24.2.1, SVG Export Plug-In . SVG Version: 6.00 Build 0)  -->
<svg version="1.1" id="Layer_1" xmlns="http://www.w3.org/2000/svg" xmlns:xlink="http://www.w3.org/1999/xlink" x="0px" y="0px"
	 viewBox="0 0 139.7 139.7" style="enable-background:new 0 0 139.7 139.7;" xml:space="preserve">
<style type="text/css">
	.st0{opacity:0.38;fill:#15294F;enable-background:new    ;}
	.st1{fill:#15294F;}
	.st2{enable-background:new    ;}
	.st3{fill:#FFFFFF;}
</style>
<circle class="st0" cx="69.9" cy="69.9" r="69.9"/>
<circle class="st1" cx="69.9" cy="69.9" r="57.9"/>
<g class="st2">
	<path class="st3" d="M29.7,70.6V75h-2.5V62.5h4.3c1.2,0,2.2,0.4,3,1.2s1.1,1.8,1.1,3c0,1.2-0.4,2.2-1.1,2.9c-0.7,0.7-1.7,1.1-3,1.1
		H29.7z M29.7,68.5h1.7c0.5,0,0.9-0.2,1.1-0.5s0.4-0.8,0.4-1.4c0-0.6-0.1-1.1-0.4-1.5c-0.3-0.4-0.6-0.6-1.1-0.6h-1.8V68.5z"/>
	<path class="st3" d="M36.7,70.1c0-1.4,0.3-2.5,1-3.3s1.6-1.2,2.8-1.2c1.2,0,2.1,0.4,2.8,1.2c0.7,0.8,1,1.9,1,3.3v0.6
		c0,1.4-0.3,2.5-1,3.3c-0.7,0.8-1.6,1.2-2.8,1.2c-1.2,0-2.1-0.4-2.8-1.2s-1-1.9-1-3.3V70.1z M39.2,70.7c0,1.7,0.4,2.5,1.3,2.5
		c0.8,0,1.3-0.7,1.3-2.1l0-1c0-0.9-0.1-1.5-0.4-1.9c-0.2-0.4-0.6-0.6-1-0.6c-0.4,0-0.7,0.2-1,0.6c-0.2,0.4-0.3,1-0.3,1.9V70.7z"/>
	<path class="st3" d="M50.4,68L49.6,68c-0.7,0-1.1,0.3-1.4,0.9V75h-2.5v-9.3h2.3l0.1,1c0.4-0.8,0.9-1.2,1.6-1.2c0.3,0,0.5,0,0.7,0.1
		L50.4,68z"/>
	<path class="st3" d="M54.9,63.4v2.3h1.3v1.8h-1.3v4.6c0,0.4,0.1,0.6,0.2,0.8c0.1,0.1,0.3,0.2,0.6,0.2c0.2,0,0.4,0,0.6-0.1l0,1.9
		c-0.4,0.2-0.9,0.2-1.3,0.2c-1.6,0-2.4-0.9-2.4-2.7v-5h-1.1v-1.8h1.1v-2.3H54.9z"/>
	<path class="st3" d="M65.2,70.2l-1,1.3V75h-2.5V62.5h2.5v5.5l0.8-1.4l2.3-4.1h3.1L66.9,68l3.7,7h-3L65.2,70.2z"/>
	<path class="st3" d="M75.1,75.2c-1.3,0-2.2-0.4-2.9-1.1c-0.7-0.7-1.1-1.8-1.1-3.2v-0.7c0-1.5,0.3-2.6,1-3.4s1.6-1.2,2.8-1.2
		c1.2,0,2.1,0.4,2.6,1.1c0.6,0.8,0.9,1.9,0.9,3.3v1.2h-4.9c0,0.7,0.2,1.2,0.5,1.5c0.3,0.3,0.7,0.5,1.3,0.5c0.8,0,1.5-0.3,2-0.8
		l1,1.5c-0.3,0.4-0.7,0.7-1.3,1C76.4,75.1,75.8,75.2,75.1,75.2z M73.6,69.5H76v-0.2c0-0.6-0.1-1-0.3-1.3c-0.2-0.3-0.5-0.4-0.9-0.4
		s-0.7,0.2-0.9,0.5C73.7,68.3,73.6,68.8,73.6,69.5z"/>
	<path class="st3" d="M82.1,65.7l0.1,0.9c0.5-0.7,1.3-1,2.2-1c0.9,0,1.6,0.4,2,1.3c0.5-0.8,1.3-1.3,2.3-1.3c1.6,0,2.5,1.1,2.5,3.4
		V75h-2.4v-6c0-0.5-0.1-0.9-0.2-1.2c-0.1-0.2-0.4-0.3-0.8-0.3c-0.5,0-0.8,0.3-1,0.8l0,0.3V75h-2.4v-5.9c0-0.5-0.1-0.9-0.2-1.2
		c-0.1-0.2-0.4-0.4-0.8-0.4c-0.4,0-0.8,0.2-1,0.7V75h-2.4v-9.3H82.1z"/>
	<path class="st3" d="M100.2,70.7c0,1.5-0.2,2.6-0.7,3.4c-0.5,0.8-1.2,1.1-2.3,1.1c-0.8,0-1.5-0.4-2-1.1L95.2,75h-2.3V61.8h2.4v4.7
		c0.5-0.6,1.1-0.9,1.8-0.9c1,0,1.8,0.4,2.3,1.1s0.7,1.9,0.7,3.3V70.7z M97.8,70c0-1-0.1-1.6-0.3-2c-0.2-0.3-0.5-0.5-1-0.5
		c-0.5,0-0.9,0.2-1.1,0.7v4.3c0.2,0.4,0.6,0.7,1.1,0.7c0.5,0,0.8-0.2,1-0.5c0.2-0.3,0.3-0.9,0.3-1.8V70z"/>
	<path class="st3" d="M104.2,75h-2.5V61.8h2.5V75z"/>
	<path class="st3" d="M110.6,75c-0.1-0.1-0.1-0.4-0.2-0.7c-0.4,0.6-1,0.9-1.8,0.9c-0.8,0-1.4-0.3-1.9-0.8c-0.5-0.5-0.8-1.2-0.8-2
		c0-1,0.3-1.7,0.9-2.3s1.5-0.8,2.7-0.8h0.7v-0.8c0-0.4-0.1-0.7-0.2-0.9c-0.1-0.2-0.4-0.3-0.6-0.3c-0.6,0-0.9,0.4-0.9,1.1H106
		c0-0.9,0.3-1.6,1-2.1c0.6-0.6,1.5-0.8,2.5-0.8c1,0,1.8,0.3,2.4,0.8c0.6,0.5,0.8,1.3,0.8,2.3V73c0,0.8,0.1,1.4,0.3,1.9V75H110.6z
		 M109.1,73.3c0.3,0,0.5-0.1,0.7-0.2c0.2-0.1,0.3-0.2,0.4-0.4v-1.9h-0.6c-0.4,0-0.7,0.1-1,0.4c-0.2,0.3-0.4,0.6-0.4,1.1
		C108.3,72.9,108.6,73.3,109.1,73.3z"/>
</g>
</svg>
