<svg xmlns="http://www.w3.org/2000/svg" width="330" height="335" viewBox="0 0 330 335">
  <g id="Group_225" data-name="Group 225" transform="translate(7268.39 16368.68)">
    <g id="Group_212" data-name="Group 212" transform="translate(-1212)">
      <path id="marker" d="M38.583,145.318c-10.633,35.141,6.255,85.19,36.279,110.747l127.6,108.617,115.091-97.968c53.464-45.454,63.239-116.219,23.62-170.99s-118.252-79.2-190-59.023C99.882,51.076,56.1,87.282,38.583,145.318Z" transform="translate(-6091.779 -16398.361)" fill="#f7a900"/>
    </g>
    <g id="Group_222" data-name="Group 222" transform="translate(-7189.169 -16319.859)">
      <path id="Path_314" data-name="Path 314" d="M11.111,56.24a5.633,5.633,0,0,1,3.08-3.2H7.6v1.2a2,2,0,0,0,2,2Z" transform="translate(0 100.86)"/>
      <path id="Path_315" data-name="Path 315" d="M21.711,56.24h25.58a5.633,5.633,0,0,1,3.08-3.2H18.631A5.633,5.633,0,0,1,21.711,56.24Z" transform="translate(51.088 100.86)"/>
      <path id="Path_316" data-name="Path 316" d="M57.891,56.24H59.4a2.006,2.006,0,0,0,2-2v-1.2h-6.59A5.633,5.633,0,0,1,57.891,56.24Z" transform="translate(102.169 100.86)"/>
      <path id="Path_317" data-name="Path 317" d="M166.721,61.64H138.749c2.805-.75,4.65-1.991,4.65-3.4,0-2.292-4.854-4.15-10.843-4.15s-10.843,1.858-10.843,4.15c0,1.409,1.844,2.65,4.65,3.4H44.8c2.805-.75,4.65-1.991,4.65-3.4,0-2.292-4.854-4.15-10.843-4.15s-10.843,1.858-10.843,4.15c0,1.409,1.844,2.65,4.65,3.4H4.446c-1.075,0-1.947.336-1.947.75s.872.75,1.947.75H166.721c1.075,0,1.947-.336,1.947-.75S167.8,61.64,166.721,61.64Z" transform="translate(0 100.86)"/>
      <path id="Path_318" data-name="Path 318" d="M161.53,76.211H108.8V64.566h13.4c3.583,0,6.517-3.625,6.517-8.084,0-4.427-2.934-8.052-6.517-8.052h-4.8L89.948,10.672h76.775a2.209,2.209,0,0,0,1.947-2.406,2.23,2.23,0,0,0-1.947-2.406H4.448A2.211,2.211,0,0,0,2.5,8.266a2.191,2.191,0,0,0,1.947,2.406H81.2L53.78,48.43h-4.8c-3.609,0-6.517,3.625-6.517,8.052,0,4.459,2.908,8.084,6.517,8.084h13.4V76.211H9.641c-3.947,0-7.14,3.946-7.14,8.822v58.546c0,4.876,3.194,8.822,7.14,8.822H161.53c3.921,0,7.14-3.946,7.14-8.822V85.033C168.67,80.157,165.451,76.211,161.53,76.211ZM18.521,124.491H6.4V101.426H18.521Zm37.752,23.1H33.84V101.426H56.273ZM59,48.43,85.56,11.891,112.147,48.43H59Zm40.659,76.061H71.513V101.426H99.658v23.065Zm5.245-48.28H66.269V64.566H104.9Zm32.4,71.377H114.9V101.426h22.407Zm27.47-23.1H152.625V101.426h12.151Z" transform="translate(0 0)"/>
    </g>
  </g>
</svg>
