<svg id="Layer_1" data-name="Layer 1" xmlns="http://www.w3.org/2000/svg" viewBox="0 0 139.8 139.8"><defs><style>.cls-1,.cls-2{fill:#15294f;}.cls-1{opacity:0.38;isolation:isolate;}.cls-3{fill:#fff;}</style></defs><circle class="cls-1" cx="69.9" cy="69.9" r="69.9"/><circle class="cls-2" cx="69.9" cy="69.9" r="57.9"/><path id="Path_240" data-name="Path 240" class="cls-3" d="M51.7,42.8h3V58.9H51.6l-2.4-5.7a47.88,47.88,0,0,1-2.1-6.4h0c.1,1.4.2,3,.3,4.6s.1,3.2.1,4.5v3h-3V42.8h3.1L50,48.7a47.88,47.88,0,0,1,2.1,6.4h0c-.1-1.4-.2-3-.3-4.6s-.1-3.1-.1-4.5Z" transform="translate(0 0)"/><path id="Path_241" data-name="Path 241" class="cls-3" d="M63.2,47.7c0-1.4-.1-2.8-1.7-2.8-1,0-1.7.4-1.7,1.5s.8,1.7,1.7,2.3a31.76,31.76,0,0,1,3.7,2.7,4.39,4.39,0,0,1,1.4,3.4c0,3.1-2,4.6-5,4.6-3.6,0-4.9-2-4.9-4.9V53.3h3v1c0,1.6.4,2.7,1.9,2.7a1.69,1.69,0,0,0,1.9-1.9A2.25,2.25,0,0,0,62.3,53c-1.6-1.2-3.5-2.1-4.8-3.7a4.38,4.38,0,0,1-.8-2.5c0-2.8,1.6-4.3,4.8-4.3,4.8,0,4.7,3.7,4.7,5.3h-3Z" transform="translate(0 0)"/><path id="Path_242" data-name="Path 242" class="cls-3" d="M78.7,51.1c.3,1.6.4,3.7.7,5.7h0a4.87,4.87,0,0,1,.1-1.2c.1-1.4.2-2.8.4-4.1l1.2-8.8h3.1l-3,16.1H77.6l-1.2-6.4c-.3-1.7-.4-3.4-.7-5.2h0a46.33,46.33,0,0,1-.7,5.2l-1,6.5H70.4L67.3,42.8h3.1l1.4,8.8c.2,1.4.3,2.8.4,4.1a4.87,4.87,0,0,0,.1,1.2h0c.2-2.1.4-4.1.7-5.7l1.4-8.3h2.5Z" transform="translate(0 0)"/><path id="Path_243" data-name="Path 243" class="cls-3" d="M44.5,84.5V64.1h7.8c3.6,0,4.8,2.9,4.8,5.8a6.12,6.12,0,0,1-1.9,4.8A5.92,5.92,0,0,1,51,75.9H48.5v8.5ZM48.3,73h2.1c1.7,0,2.8-.7,2.8-3.2,0-2.3-.9-2.7-3.1-2.7H48.4V73Z" transform="translate(0 0)"/><path id="Path_244" data-name="Path 244" class="cls-3" d="M57.2,77c0-5.5.1-9,5.6-9s5.5,3.5,5.6,9-.8,8-5.6,7.9c-4.8.1-5.6-2.3-5.6-7.9m3.7,2.2c0,2,.2,2.8,2,2.8s1.8-.9,1.8-2.8V73.9c0-1.5,0-3.1-1.8-3.1-2,0-2,1.5-2,3.1Z" transform="translate(0 0)"/><path id="Path_245" data-name="Path 245" class="cls-3" d="M73.4,71.3h0A5.13,5.13,0,0,1,74.9,69a3.17,3.17,0,0,1,2.3-.9v4.4c-2.1-.2-3.6.3-3.7,2.7v9.3H69.8v-16h3.5v2.8Z" transform="translate(0 0)"/><path id="Path_246" data-name="Path 246" class="cls-3" d="M85.1,84.5c-2.2.3-5.2.4-5.2-2.5V71.1H78.4V68.4h1.5V64h3.7v4.4h1.6v2.7H83.6V81c.1.7,1.1.6,1.6.5v3Z" transform="translate(0 0)"/><path id="Path_247" data-name="Path 247" class="cls-3" d="M90.3,79.2c-.3,3,.9,2.9,1.7,2.9a1.42,1.42,0,0,0,1.5-1.8c0-.9-1.1-1.4-1.8-1.9l-2-1.4c-1.8-1.3-3.1-2.8-3.1-5.1,0-2.5,2-3.9,5.5-3.9s5.2,1.9,5.2,5.3H93.6c.1-1.8-.4-2.5-1.7-2.5-.9,0-1.6.4-1.6,1.3s.7,1.4,1.4,1.8l3,2.1c.9.5,2.4,2.1,2.5,3.1.3,2.8-.3,5.7-5.5,5.7-2,0-5.6-.8-5.2-5.7Z" transform="translate(0 0)"/><path id="Path_248" data-name="Path 248" class="cls-3" d="M100,91.2a14.1,14.1,0,0,0-5.7-1.6c-4.6-.4-10.3.3-16.4,1.1a129.7,129.7,0,0,1-16.5,1.5c-6.1,0-11.8-.9-16.5-4l-.4-.2v4.8l.1.1a26.08,26.08,0,0,0,12,2.5c6.6,0,13.8-1.5,20.4-2.9,6.4-1.3,12.5-2.6,17.1-2.4a13.78,13.78,0,0,1,5.5,1.5Z" transform="translate(0 0)"/></svg>