<?xml version="1.0" encoding="utf-8"?>
<!-- Generator: Adobe Illustrator 24.2.0, SVG Export Plug-In . SVG Version: 6.00 Build 0)  -->
<svg version="1.1" id="Layer_1" xmlns="http://www.w3.org/2000/svg" xmlns:xlink="http://www.w3.org/1999/xlink" x="0px" y="0px"
	 viewBox="0 0 139.7 139.7" style="enable-background:new 0 0 139.7 139.7;" xml:space="preserve">
<style type="text/css">
	.st0{opacity:0.38;fill:#15294F;enable-background:new    ;}
	.st1{fill:#15294F;}
	.st2{fill:#FFFFFF;}
</style>
<circle class="st0" cx="69.9" cy="69.9" r="69.9"/>
<circle class="st1" cx="69.9" cy="69.9" r="57.9"/>
<path class="st2" d="M90.1,74.8l-5.4,4.7l1.9,2.2l1.6-1.4c-1.1,8.6-8.1,15.4-16.8,16.2v-36h10.7v-2.9H71.4v-7.9
	c2.5-0.7,4.4-3,4.4-5.6c0-3.2-2.6-5.8-5.8-5.8c-3.3,0-5.8,2.6-5.8,5.8c0,2.7,1.8,5,4.4,5.7v7.9H57.8v2.9h10.7v36.1
	c-8.7-0.9-15.7-7.6-16.8-16.2l1.6,1.4l1.9-2.2L49.8,75l-5,5.8l2.2,1.9l1.7-2c1.3,10.6,10.2,18.7,20.9,19h0.3h0.3
	c10.7-0.3,19.6-8.5,20.9-19.1l1.7,2l2.3-1.9L90.1,74.8z M70,41.1c1.6,0,2.9,1.3,2.9,2.9c0,1.6-1.3,2.9-2.9,2.9s-2.9-1.3-2.9-2.9
	C67.1,42.3,68.4,41.1,70,41.1z"/>
</svg>
