<svg id="Layer_1" data-name="Layer 1" xmlns="http://www.w3.org/2000/svg" viewBox="0 0 139.8 139.8"><defs><style>.cls-1{fill:#4aa5ff;opacity:0.38;isolation:isolate;}.cls-2{fill:#0559d3;}.cls-3{fill:#fff;}</style></defs><circle class="cls-1" cx="69.9" cy="69.9" r="69.9"/><circle class="cls-2" cx="71.35" cy="69.85" r="57.9"/><path class="cls-3" d="M38.6,92.8a7.38,7.38,0,0,1,4.5,1.5,9.85,9.85,0,0,0,11.9,0,6.9,6.9,0,0,1,4.4-1.5,7.38,7.38,0,0,1,4.5,1.5,9.85,9.85,0,0,0,11.9,0,7.2,7.2,0,0,1,8.8,0,10,10,0,0,0,12,0,7.18,7.18,0,0,1,4.5-1.5,1.4,1.4,0,0,0,0-2.8,9.84,9.84,0,0,0-6,2,7.18,7.18,0,0,1-4.5,1.5H89.5l4.7-15.6a1.56,1.56,0,0,0-.4-1.6l-6.3-4.5V58.3a6,6,0,0,0-5.8-5.9H75.5V37.6c0-1.2-.6-2.1-1.8-2.1H66c-1.2,0-1.8.9-1.8,2.1V52.4H58a6,6,0,0,0-5.8,5.9V71.8l-6.3,4.5a1.42,1.42,0,0,0-.5,1.6l4.7,15.5H49a7.1,7.1,0,0,1-4.4-1.5,9.84,9.84,0,0,0-6-2,1.37,1.37,0,0,0-1.4,1.4,1.52,1.52,0,0,0,1.4,1.5Zm48.3-.4-.7-.4h0a9.85,9.85,0,0,0-11.9,0,6.72,6.72,0,0,1-3,1.3V63.9L85,73.6a1.38,1.38,0,0,0,.4.3l5.9,4.2ZM72.7,38.3v4.2H67V38.3ZM67,45.4h5.7v7.1H67ZM55,58.3a3.23,3.23,0,0,1,3-3H81.8a3.23,3.23,0,0,1,3,3V69.8L70.8,60A1.91,1.91,0,0,0,69,60L55,69.8ZM48.4,78l20-14.1V93.3a8.06,8.06,0,0,1-3-1.3,9.85,9.85,0,0,0-11.9,0l-.6.4Z" transform="translate(0.05 0.05)"/></svg>