<svg id="Layer_1" data-name="Layer 1" xmlns="http://www.w3.org/2000/svg" viewBox="0 0 139.8 139.8"><defs><style>.cls-1,.cls-2{fill:#15294f;}.cls-1{opacity:0.38;}.cls-1,.cls-3{isolation:isolate;}.cls-4{fill:#fff;}</style></defs><circle class="cls-1" cx="69.9" cy="69.9" r="69.9"/><circle class="cls-2" cx="69.9" cy="69.9" r="57.9"/><g class="cls-3"><path class="cls-4" d="M38.1,57.4a5.46,5.46,0,0,1-1.2,3.3,4.33,4.33,0,0,1-3.1,1.1,4.22,4.22,0,0,1-3.3-1.4,6,6,0,0,1-1.1-4V54.3a6,6,0,0,1,1.2-4,4.22,4.22,0,0,1,3.3-1.4A4.17,4.17,0,0,1,37,50a5.46,5.46,0,0,1,1.2,3.3H35.7a3.38,3.38,0,0,0-.4-1.8,1.67,1.67,0,0,0-1.4-.5c-.7,0-1.2.2-1.4.7a4.74,4.74,0,0,0-.4,2.3v2.4a5.61,5.61,0,0,0,.4,2.6,1.51,1.51,0,0,0,1.4.7,1.81,1.81,0,0,0,1.4-.5,2.65,2.65,0,0,0,.4-1.8Z"/><path class="cls-4" d="M39.3,56.7a4.83,4.83,0,0,1,1-3.3,3.87,3.87,0,0,1,5.6,0,4.83,4.83,0,0,1,1,3.3v.6a4.83,4.83,0,0,1-1,3.3,3.87,3.87,0,0,1-5.6,0,4.83,4.83,0,0,1-1-3.3Zm2.4.6c0,1.7.4,2.5,1.3,2.5s1.3-.7,1.3-2.1v-1a3.16,3.16,0,0,0-.4-1.9,1.1,1.1,0,0,0-1-.6,1.22,1.22,0,0,0-1,.6,4.39,4.39,0,0,0-.3,1.9v.6Z"/><path class="cls-4" d="M48.1,56.7a4.83,4.83,0,0,1,1-3.3,3.87,3.87,0,0,1,5.6,0,4.83,4.83,0,0,1,1,3.3v.6a4.83,4.83,0,0,1-1,3.3,3.87,3.87,0,0,1-5.6,0,4.83,4.83,0,0,1-1-3.3Zm2.4.6c0,1.7.4,2.5,1.3,2.5s1.3-.7,1.3-2.1v-1a3.16,3.16,0,0,0-.4-1.9,1.1,1.1,0,0,0-1-.6,1.22,1.22,0,0,0-1,.6,4.39,4.39,0,0,0-.3,1.9v.6Z"/><path class="cls-4" d="M60.3,58l-.7.7v2.9H57.2V48.4h2.4v7.2l.3-.4,1.7-2.8h2.9l-2.7,3.8,3,5.5H62Z"/><path class="cls-4" d="M69.8,59.1a.86.86,0,0,0-.3-.6,4.61,4.61,0,0,0-1.3-.7,5.05,5.05,0,0,1-2.1-1.3,2.27,2.27,0,0,1-.6-1.6,2.52,2.52,0,0,1,.9-2,3.57,3.57,0,0,1,2.3-.8,4.15,4.15,0,0,1,2.5.8,2.58,2.58,0,0,1,.9,2.1H69.7c0-.8-.3-1.1-.9-1.1a.85.85,0,0,0-.6.2,1.17,1.17,0,0,0-.2.7.55.55,0,0,0,.3.5,11.05,11.05,0,0,0,1.3.7,6.44,6.44,0,0,1,2.1,1.2,2.61,2.61,0,0,1,.6,1.8,2.52,2.52,0,0,1-.9,2,3.74,3.74,0,0,1-2.5.8,3.42,3.42,0,0,1-1.8-.4,3.18,3.18,0,0,1-1.2-1.1,2.82,2.82,0,0,1-.4-1.5h2.3a1.69,1.69,0,0,0,.3,1c.2.3.5.3.9.3A1,1,0,0,0,69.8,59.1Z"/><path class="cls-4" d="M81.6,57H80.3v4.6H77.8V49.1h4a3.66,3.66,0,0,1,2.9,1,3.71,3.71,0,0,1,1,2.8,3.66,3.66,0,0,1-1.8,3.5l2.2,5.1v.1H83.4Zm-1.2-2.1h1.4a1.29,1.29,0,0,0,1.1-.5,2,2,0,0,0,.4-1.4c0-1.3-.5-1.9-1.5-1.9H80.3v3.8Z"/><path class="cls-4" d="M87.5,49.9a1,1,0,0,1,.4-.9,1.53,1.53,0,0,1,1-.4,1.28,1.28,0,0,1,1,.4,1.49,1.49,0,0,1,.4.9,1,1,0,0,1-.4.9,1.53,1.53,0,0,1-1,.4,1.28,1.28,0,0,1-1-.4A1.22,1.22,0,0,1,87.5,49.9Zm2.6,11.7H87.6V52.3h2.5Z"/><path class="cls-4" d="M95,58.2l1.2-5.9h2.5l-2.5,9.3H93.9l-2.6-9.3h2.6Z"/><path class="cls-4" d="M103.7,61.8a3.84,3.84,0,0,1-2.9-1.1,4.42,4.42,0,0,1-1.1-3.2v-.7a4.94,4.94,0,0,1,1-3.4,3.36,3.36,0,0,1,2.8-1.2,3,3,0,0,1,2.6,1.1,5.39,5.39,0,0,1,.9,3.3v1.2h-4.9a2.07,2.07,0,0,0,.5,1.5,1.73,1.73,0,0,0,1.3.5,2.79,2.79,0,0,0,2-.8l1,1.5a3.45,3.45,0,0,1-1.3,1A6.8,6.8,0,0,1,103.7,61.8Zm-1.6-5.7h2.4v-.2a2.27,2.27,0,0,0-.3-1.3,1,1,0,0,0-.9-.4,1.05,1.05,0,0,0-.9.5A6.12,6.12,0,0,0,102.1,56.1Z"/><path class="cls-4" d="M113,54.6h-.9a1.42,1.42,0,0,0-1.4.9v6.1h-2.5V52.3h2.3l.1,1a1.77,1.77,0,0,1,1.6-1.2,1.48,1.48,0,0,1,.7.1Z"/></g><path class="cls-4" d="M39.83,74.4v9.44H38.61V74.4Z"/><path class="cls-4" d="M42.06,78.9c0-.71,0-1.28-.06-1.84h1.09l.07,1.12h0a2.5,2.5,0,0,1,2.24-1.27c.94,0,2.4.56,2.4,2.88v4H46.59V79.93c0-1.09-.4-2-1.57-2a1.74,1.74,0,0,0-1.65,1.26,1.91,1.91,0,0,0-.08.57v4.08H42.06Z"/><path class="cls-4" d="M51.25,75.11v2H53V78H51.25v3.65c0,.85.24,1.32.93,1.32a2.82,2.82,0,0,0,.71-.08l.06.92a3,3,0,0,1-1.09.17,1.68,1.68,0,0,1-1.33-.52,2.49,2.49,0,0,1-.48-1.76V78H49v-.94h1V75.44Z"/><path class="cls-4" d="M55,80.67A2.17,2.17,0,0,0,57.33,83a4.57,4.57,0,0,0,1.88-.35l.21.88a5.47,5.47,0,0,1-2.26.42,3.15,3.15,0,0,1-3.33-3.42c0-2,1.2-3.65,3.18-3.65,2.21,0,2.8,1.94,2.8,3.19a5.55,5.55,0,0,1,0,.57Zm3.61-.88a1.76,1.76,0,0,0-1.71-2,2,2,0,0,0-1.89,2Z"/><path class="cls-4" d="M61.33,79.18c0-.8,0-1.49,0-2.12h1.07l0,1.33h.05a2,2,0,0,1,1.88-1.48,1.25,1.25,0,0,1,.35,0v1.16a1.76,1.76,0,0,0-.42,0,1.73,1.73,0,0,0-1.65,1.58,3.34,3.34,0,0,0-.06.58v3.61H61.33Z"/><path class="cls-4" d="M66,78.9c0-.71,0-1.28-.06-1.84H67l.06,1.09h0a2.34,2.34,0,0,1,2.13-1.24,2,2,0,0,1,1.92,1.35h0a2.88,2.88,0,0,1,.76-.88,2.32,2.32,0,0,1,1.5-.47c.9,0,2.23.58,2.23,2.94v4H74.44V80c0-1.3-.47-2.08-1.47-2.08A1.59,1.59,0,0,0,71.51,79a2.18,2.18,0,0,0-.09.61v4.19H70.21V79.78c0-1.08-.48-1.86-1.41-1.86a1.84,1.84,0,0,0-1.63,1.83v4.09H66Z"/><path class="cls-4" d="M83.78,80.39A3.31,3.31,0,0,1,80.4,84a3.22,3.22,0,0,1-3.25-3.48,3.31,3.31,0,0,1,3.36-3.6A3.21,3.21,0,0,1,83.78,80.39Zm-5.38.07c0,1.49.85,2.61,2.06,2.61s2.06-1.11,2.06-2.63c0-1.15-.58-2.61-2-2.61S78.4,79.18,78.4,80.46Z"/><path class="cls-4" d="M91.18,73.89v8.2c0,.6,0,1.29.06,1.75H90.13l0-1.18h0A2.51,2.51,0,0,1,87.74,84c-1.64,0-2.9-1.38-2.9-3.44,0-2.26,1.38-3.64,3-3.64a2.28,2.28,0,0,1,2,1h0v-4ZM90,79.82a1.89,1.89,0,0,0-.06-.52,1.81,1.81,0,0,0-1.77-1.43c-1.28,0-2,1.12-2,2.62s.68,2.51,2,2.51A2,2,0,0,0,90,81Z"/><path class="cls-4" d="M97,83.84l-.1-.85h0a2.54,2.54,0,0,1-2.08,1,1.93,1.93,0,0,1-2.07-1.94c0-1.64,1.46-2.54,4.08-2.52v-.14a1.4,1.4,0,0,0-1.54-1.57,3.39,3.39,0,0,0-1.77.5l-.28-.81a4.15,4.15,0,0,1,2.23-.6c2.07,0,2.58,1.41,2.58,2.77v2.53a9,9,0,0,0,.11,1.63Zm-.18-3.46c-1.35,0-2.88.21-2.88,1.53a1.09,1.09,0,0,0,1.17,1.17A1.7,1.7,0,0,0,96.73,82a1.4,1.4,0,0,0,.07-.39Z"/><path class="cls-4" d="M100,73.89h1.23v10H100Z"/><path class="cls-4" d="M47.56,92.24H44.69v-1h7v1H48.8v8.4H47.56Z"/><path class="cls-4" d="M52.38,97.47a2.18,2.18,0,0,0,2.33,2.36,4.52,4.52,0,0,0,1.87-.35l.21.88a5.38,5.38,0,0,1-2.25.42,3.15,3.15,0,0,1-3.34-3.42c0-2,1.21-3.65,3.18-3.65,2.22,0,2.8,1.94,2.8,3.19a3.65,3.65,0,0,1,0,.57ZM56,96.59a1.75,1.75,0,0,0-1.71-2,2,2,0,0,0-1.89,2Z"/><path class="cls-4" d="M58.71,96c0-.8,0-1.49-.06-2.12h1.08l0,1.33h.06a2,2,0,0,1,1.87-1.48,1.37,1.37,0,0,1,.36,0v1.16a1.85,1.85,0,0,0-.43,0A1.74,1.74,0,0,0,60,96.45a3.39,3.39,0,0,0,0,.58v3.61H58.71Z"/><path class="cls-4" d="M63.34,95.7c0-.7,0-1.28-.05-1.84h1.07L64.42,95h0a2.34,2.34,0,0,1,2.13-1.24,2,2,0,0,1,1.92,1.36h0a2.79,2.79,0,0,1,.75-.89,2.38,2.38,0,0,1,1.5-.47c.9,0,2.23.58,2.23,2.94v4h-1.2V96.8c0-1.3-.48-2.08-1.47-2.08a1.59,1.59,0,0,0-1.46,1.12,1.85,1.85,0,0,0-.1.61v4.19h-1.2V96.58c0-1.08-.48-1.86-1.42-1.86a1.8,1.8,0,0,0-1.62,1.83v4.09H63.34Z"/><path class="cls-4" d="M76.39,92a.72.72,0,0,1-.78.75.73.73,0,0,1-.75-.75.75.75,0,0,1,.77-.77A.73.73,0,0,1,76.39,92ZM75,100.64V93.86h1.23v6.78Z"/><path class="cls-4" d="M78.29,95.7c0-.7,0-1.28-.05-1.84h1.09L79.4,95h0a2.49,2.49,0,0,1,2.24-1.27c.94,0,2.4.56,2.4,2.88v4H82.83V96.73c0-1.09-.4-2-1.57-2A1.74,1.74,0,0,0,79.61,96a1.64,1.64,0,0,0-.08.57v4.08H78.29Z"/><path class="cls-4" d="M89.82,100.64l-.1-.85h0a2.54,2.54,0,0,1-2.08,1,1.93,1.93,0,0,1-2.07-1.94c0-1.64,1.46-2.54,4.08-2.52v-.14a1.4,1.4,0,0,0-1.54-1.57,3.39,3.39,0,0,0-1.77.5L86,94.31a4.24,4.24,0,0,1,2.23-.6c2.07,0,2.58,1.41,2.58,2.77V99a9,9,0,0,0,.11,1.62Zm-.18-3.46c-1.35,0-2.88.21-2.88,1.53a1.09,1.09,0,0,0,1.17,1.17,1.7,1.7,0,0,0,1.64-1.13,1.4,1.4,0,0,0,.07-.39Z"/><path class="cls-4" d="M92.81,90.7H94v9.94H92.81Z"/></svg>