<?xml version="1.0" encoding="utf-8"?>
<!-- Generator: Adobe Illustrator 24.2.1, SVG Export Plug-In . SVG Version: 6.00 Build 0)  -->
<svg version="1.1" id="Layer_1" xmlns="http://www.w3.org/2000/svg" xmlns:xlink="http://www.w3.org/1999/xlink" x="0px" y="0px"
	 viewBox="0 0 139.7 139.7" style="enable-background:new 0 0 139.7 139.7;" xml:space="preserve">
<style type="text/css">
	.st0{opacity:0.38;fill:#15294F;enable-background:new    ;}
	.st1{fill:#15294F;}
	.st2{enable-background:new    ;}
	.st3{fill:#FFFFFF;}
</style>
<circle class="st0" cx="69.9" cy="69.9" r="69.9"/>
<circle class="st1" cx="69.9" cy="69.9" r="57.9"/>
<g class="st2">
	<path class="st3" d="M37,70.8c-0.1,1.4-0.5,2.5-1.2,3.3c-0.7,0.7-1.8,1.1-3.1,1.1c-1.4,0-2.5-0.5-3.3-1.4s-1.1-2.3-1.1-4v-2.1
		c0-1.7,0.4-3.1,1.2-4s1.9-1.4,3.3-1.4c1.4,0,2.4,0.4,3.1,1.1c0.7,0.8,1.1,1.9,1.2,3.3h-2.5c0-0.9-0.2-1.5-0.4-1.8
		c-0.2-0.3-0.7-0.5-1.4-0.5c-0.7,0-1.2,0.2-1.4,0.7c-0.3,0.5-0.4,1.3-0.4,2.3v2.4c0,1.2,0.1,2.1,0.4,2.6c0.3,0.5,0.8,0.7,1.4,0.7
		c0.7,0,1.1-0.2,1.4-0.5c0.3-0.3,0.4-0.9,0.4-1.8H37z"/>
	<path class="st3" d="M38.2,70.1c0-1.4,0.3-2.5,1-3.3s1.6-1.2,2.8-1.2c1.2,0,2.1,0.4,2.8,1.2c0.7,0.8,1,1.9,1,3.3v0.6
		c0,1.4-0.3,2.5-1,3.3c-0.7,0.8-1.6,1.2-2.8,1.2c-1.2,0-2.1-0.4-2.8-1.2s-1-1.9-1-3.3V70.1z M40.6,70.7c0,1.7,0.4,2.5,1.3,2.5
		c0.8,0,1.3-0.7,1.3-2.1l0-1c0-0.9-0.1-1.5-0.4-1.9c-0.2-0.4-0.6-0.6-1-0.6c-0.4,0-0.7,0.2-1,0.6c-0.2,0.4-0.3,1-0.3,1.9V70.7z"/>
	<path class="st3" d="M47,70.1c0-1.4,0.3-2.5,1-3.3s1.6-1.2,2.8-1.2c1.2,0,2.1,0.4,2.8,1.2c0.7,0.8,1,1.9,1,3.3v0.6
		c0,1.4-0.3,2.5-1,3.3c-0.7,0.8-1.6,1.2-2.8,1.2c-1.2,0-2.1-0.4-2.8-1.2s-1-1.9-1-3.3V70.1z M49.4,70.7c0,1.7,0.4,2.5,1.3,2.5
		c0.8,0,1.3-0.7,1.3-2.1l0-1c0-0.9-0.1-1.5-0.4-1.9c-0.2-0.4-0.6-0.6-1-0.6c-0.4,0-0.7,0.2-1,0.6c-0.2,0.4-0.3,1-0.3,1.9V70.7z"/>
	<path class="st3" d="M59.2,71.4l-0.7,0.7V75h-2.4V61.8h2.4v7.2l0.3-0.4l1.7-2.8h2.9l-2.7,3.8l3,5.5h-2.8L59.2,71.4z"/>
	<path class="st3" d="M68.7,72.5c0-0.2-0.1-0.4-0.3-0.6c-0.2-0.2-0.6-0.4-1.3-0.7c-1-0.4-1.7-0.8-2.1-1.3c-0.4-0.4-0.6-1-0.6-1.6
		c0-0.8,0.3-1.5,0.9-2c0.6-0.5,1.4-0.8,2.3-0.8c1,0,1.8,0.3,2.5,0.8c0.6,0.5,0.9,1.2,0.9,2.1h-2.4c0-0.8-0.3-1.1-0.9-1.1
		c-0.3,0-0.5,0.1-0.6,0.2s-0.2,0.4-0.2,0.7c0,0.2,0.1,0.4,0.3,0.5s0.6,0.4,1.3,0.7c1,0.4,1.7,0.8,2.1,1.2c0.4,0.5,0.6,1,0.6,1.8
		c0,0.8-0.3,1.5-0.9,2c-0.6,0.5-1.4,0.8-2.5,0.8c-0.7,0-1.3-0.1-1.8-0.4s-0.9-0.6-1.2-1.1s-0.4-1-0.4-1.5h2.3c0,0.4,0.1,0.7,0.3,1
		s0.5,0.3,0.9,0.3C68.3,73.4,68.7,73.1,68.7,72.5z"/>
	<path class="st3" d="M80.5,70.4h-1.3V75h-2.5V62.5h4c1.3,0,2.3,0.3,2.9,1c0.7,0.7,1,1.6,1,2.8c0,1.7-0.6,2.8-1.8,3.5l2.2,5.1V75
		h-2.7L80.5,70.4z M79.3,68.3h1.4c0.5,0,0.9-0.2,1.1-0.5c0.3-0.3,0.4-0.8,0.4-1.4c0-1.3-0.5-1.9-1.5-1.9h-1.5V68.3z"/>
	<path class="st3" d="M86.4,63.3c0-0.4,0.1-0.7,0.4-0.9c0.2-0.2,0.6-0.4,1-0.4s0.7,0.1,1,0.4c0.2,0.2,0.4,0.6,0.4,0.9
		c0,0.4-0.1,0.7-0.4,0.9c-0.2,0.2-0.6,0.4-1,0.4s-0.7-0.1-1-0.4S86.4,63.6,86.4,63.3z M89,75h-2.5v-9.3H89V75z"/>
	<path class="st3" d="M93.9,71.6l1.2-5.9h2.5L95.1,75h-2.3l-2.6-9.3h2.6L93.9,71.6z"/>
	<path class="st3" d="M102.6,75.2c-1.3,0-2.2-0.4-2.9-1.1s-1.1-1.8-1.1-3.2v-0.7c0-1.5,0.3-2.6,1-3.4c0.6-0.8,1.6-1.2,2.8-1.2
		c1.2,0,2.1,0.4,2.6,1.1c0.6,0.8,0.9,1.9,0.9,3.3v1.2H101c0,0.7,0.2,1.2,0.5,1.5c0.3,0.3,0.7,0.5,1.3,0.5c0.8,0,1.5-0.3,2-0.8l1,1.5
		c-0.3,0.4-0.7,0.7-1.3,1C103.8,75.1,103.2,75.2,102.6,75.2z M101,69.5h2.4v-0.2c0-0.6-0.1-1-0.3-1.3c-0.2-0.3-0.5-0.4-0.9-0.4
		s-0.7,0.2-0.9,0.5C101.2,68.3,101.1,68.8,101,69.5z"/>
	<path class="st3" d="M111.9,68L111,68c-0.7,0-1.1,0.3-1.4,0.9V75h-2.5v-9.3h2.3l0.1,1c0.4-0.8,0.9-1.2,1.6-1.2c0.3,0,0.5,0,0.7,0.1
		L111.9,68z"/>
</g>
</svg>
