<svg id="Layer_1" data-name="Layer 1" xmlns="http://www.w3.org/2000/svg" viewBox="0 0 139.8 139.8"><defs><style>.cls-1{fill:#58d118;opacity:0.38;isolation:isolate;}.cls-2{fill:#49aa0b;}.cls-3{fill:#fff;}</style></defs><circle class="cls-1" cx="69.9" cy="69.9" r="69.9"/><circle class="cls-2" cx="71" cy="69.85" r="57.9"/><path class="cls-3" d="M91.7,43.6A4.44,4.44,0,0,0,87.3,48v1.4a6.28,6.28,0,0,0-4-1.4h-31a4.35,4.35,0,0,0-4.4-4.3,4.44,4.44,0,0,0-4.4,4.4v47a1.11,1.11,0,0,0,1.1,1.1H51a1.11,1.11,0,0,0,1.1-1.1V92h31a6.28,6.28,0,0,0,4-1.4v4.6a1.11,1.11,0,0,0,1.1,1.1h6.4a1.11,1.11,0,0,0,1.1-1.1V48A3.89,3.89,0,0,0,91.7,43.6ZM93.8,48V93.8H89.7V48a2.11,2.11,0,0,1,2.1-2.1A2,2,0,0,1,93.8,48ZM87.4,58.3V81.4H80.5V58.3Zm-9.2,0V81.4H71V58.3Zm-9.5,0V81.4H61.5V58.3ZM52.4,56V50.2h31a4,4,0,0,1,4,4V56Zm0,25.4V58.3h6.9V81.4Zm35,2.3v1.9a4,4,0,0,1-4,4h-31V83.7ZM50.1,48V93.8H46V48a2.11,2.11,0,0,1,2.1-2.1A2,2,0,0,1,50.1,48Z"/></svg>