<?xml version="1.0" encoding="utf-8"?>
<!-- Generator: Adobe Illustrator 24.2.0, SVG Export Plug-In . SVG Version: 6.00 Build 0)  -->
<svg version="1.1" id="Layer_1" xmlns="http://www.w3.org/2000/svg" xmlns:xlink="http://www.w3.org/1999/xlink" x="0px" y="0px"
	 viewBox="0 0 139.7 139.7" style="enable-background:new 0 0 139.7 139.7;" xml:space="preserve">
<style type="text/css">
	.st0{opacity:0.38;fill:#F24483;enable-background:new    ;}
	.st1{fill:#E20C4E;}
	.st2{fill:#FFFFFF;}
</style>
<circle class="st0" cx="69.9" cy="69.9" r="69.9"/>
<circle class="st1" cx="69.9" cy="69.9" r="57.9"/>
<g>
	<path class="st2" d="M56.6,43.7c0-2.1-1.8-3.8-4.1-3.8h-6.1v12.5h2v-4.8h4.1C54.8,47.5,56.6,45.8,56.6,43.7z M48.5,41.8h4.1
		c1.1,0,2,0.9,2,1.9c0,1.1-0.9,1.9-2,1.9h-4.1V41.8z"/>
	<path class="st2" d="M80.7,62.9l-10.3,9.7l-8.5,1.3c-2.5,0.4-4.3,2.4-4.3,4.7v9.2H70c0.2,1.5,1,2.8,2.1,3.8H55.6V73.4h-2V56.8
		c5.3-1.3,9.2-5.8,9.2-11.1c0-6.3-5.5-11.5-12.2-11.5s-12.2,5.2-12.2,11.5c0,5.3,3.9,9.8,9.2,11.1v16.7h-2v18.2h-3.1v1.9h55.1v-1.9
		H82c1.1-1,1.8-2.3,2.1-3.8h17.4v-25H80.7z M40.3,45.6c0-5.3,4.6-9.6,10.2-9.6s10.2,4.3,10.2,9.6s-4.6,9.6-10.2,9.6
		S40.3,50.9,40.3,45.6z M49.5,57.1c0.3,0,0.7,0,1,0s0.7,0,1,0v16.4h-2V57.1z M53.6,75.4v1.9h-6.1v-1.9H53.6z M47.4,79.2h6.1v12.5
		h-6.1V79.2z M59.7,84h10.9c-0.3,0.6-0.5,1.2-0.6,1.9H59.7V84z M77,91.7c-2.8,0-5.1-2.2-5.1-4.8s2.3-4.8,5.1-4.8
		c2.8,0,5.1,2.2,5.1,4.8S79.9,91.7,77,91.7z M84.1,85.9c-0.1-0.7-0.3-1.3-0.6-1.9h4.8v-1.9h-6.1v0.1c-1.3-1.2-3.1-2-5.1-2
		s-3.8,0.8-5.1,2v-0.1H59.7v-3.5c0-1.4,1.1-2.6,2.6-2.8l9.2-1.4l10.1-9.5h17.9v17.3h-9.2V84h9.2v1.9H84.1z"/>
	<path class="st2" d="M97.5,66.7H82.7l-8.2,7.7h22.9L97.5,66.7L97.5,66.7z M95.4,72.5H79.5l4.1-3.8h11.8V72.5z"/>
	<path class="st2" d="M77,84c-1.7,0-3.1,1.3-3.1,2.9s1.4,2.9,3.1,2.9s3.1-1.3,3.1-2.9S78.7,84,77,84z M77,87.8c-0.6,0-1-0.4-1-1
		s0.5-1,1-1c0.6,0,1,0.4,1,1S77.6,87.8,77,87.8z"/>
	<rect x="90.3" y="76.3" class="st2" width="7.1" height="1.9"/>
	<rect x="38.3" y="91.7" class="st2" width="2" height="1.9"/>
	<rect x="99.5" y="91.7" class="st2" width="2" height="1.9"/>
</g>
</svg>
