<?xml version="1.0" encoding="utf-8"?>
<!-- Generator: Adobe Illustrator 24.2.0, SVG Export Plug-In . SVG Version: 6.00 Build 0)  -->
<svg version="1.1" id="Layer_1" xmlns="http://www.w3.org/2000/svg" xmlns:xlink="http://www.w3.org/1999/xlink" x="0px" y="0px"
	 viewBox="0 0 139.7 139.7" style="enable-background:new 0 0 139.7 139.7;" xml:space="preserve">
<style type="text/css">
	.st0{opacity:0.38;fill:#15294F;enable-background:new    ;}
	.st1{fill:#15294F;}
	.st2{enable-background:new    ;}
	.st3{fill:#FFFFFF;}
</style>
<circle class="st0" cx="69.9" cy="69.9" r="69.9"/>
<circle class="st1" cx="69.9" cy="69.9" r="57.9"/>
<g class="st2">
	<path class="st3" d="M31.6,70.6V75h-2.5V62.5h4.3c1.2,0,2.2,0.4,3,1.2s1.1,1.8,1.1,3s-0.4,2.2-1.1,2.9c-0.7,0.7-1.7,1.1-3,1.1
		L31.6,70.6L31.6,70.6z M31.6,68.5h1.7c0.5,0,0.9-0.2,1.1-0.5s0.4-0.8,0.4-1.4s-0.1-1.1-0.4-1.5c-0.3-0.4-0.6-0.6-1.1-0.6h-1.8v4
		H31.6z"/>
	<path class="st3" d="M38.6,70.1c0-1.4,0.3-2.5,1-3.3s1.6-1.2,2.8-1.2s2.1,0.4,2.8,1.2c0.7,0.8,1,1.9,1,3.3v0.6c0,1.4-0.3,2.5-1,3.3
		s-1.6,1.2-2.8,1.2s-2.1-0.4-2.8-1.2s-1-1.9-1-3.3V70.1z M41.1,70.7c0,1.7,0.4,2.5,1.3,2.5c0.8,0,1.3-0.7,1.3-2.1v-1
		c0-0.9-0.1-1.5-0.4-1.9c-0.2-0.4-0.6-0.6-1-0.6s-0.7,0.2-1,0.6c-0.2,0.4-0.3,1-0.3,1.9v0.6H41.1z"/>
	<path class="st3" d="M52.3,68h-0.8c-0.7,0-1.1,0.3-1.4,0.9V75h-2.5v-9.3H50l0.1,1c0.4-0.8,0.9-1.2,1.6-1.2c0.3,0,0.5,0,0.7,0.1
		L52.3,68z"/>
	<path class="st3" d="M56.8,63.4v2.3h1.3v1.8h-1.3v4.6c0,0.4,0.1,0.6,0.2,0.8c0.1,0.1,0.3,0.2,0.6,0.2c0.2,0,0.4,0,0.6-0.1v1.9
		c-0.4,0.2-0.9,0.2-1.3,0.2c-1.6,0-2.4-0.9-2.4-2.7v-5h-1.1v-1.8h1.1v-2.3L56.8,63.4L56.8,63.4z"/>
	<path class="st3" d="M63.6,75V62.5h3.9c1.3,0,2.3,0.3,3,0.9c0.7,0.6,1,1.4,1,2.6c0,0.6-0.1,1.2-0.4,1.6c-0.3,0.5-0.7,0.8-1.2,1
		c0.6,0.2,1,0.5,1.3,1s0.5,1.1,0.5,1.8c0,1.2-0.3,2.1-1,2.8C70,74.7,69,75,67.8,75H63.6z M66.2,67.7h1.3c1,0,1.5-0.5,1.5-1.5
		c0-0.6-0.1-1-0.3-1.2c-0.2-0.2-0.6-0.4-1.1-0.4h-1.3L66.2,67.7L66.2,67.7z M66.2,69.6V73h1.6c0.5,0,0.8-0.1,1-0.4s0.4-0.7,0.4-1.2
		c0-1.1-0.4-1.7-1.2-1.7h-1.8V69.6z"/>
	<path class="st3" d="M73.1,70.1c0-1.4,0.3-2.5,1-3.3s1.6-1.2,2.8-1.2c1.2,0,2.1,0.4,2.8,1.2c0.7,0.8,1,1.9,1,3.3v0.6
		c0,1.4-0.3,2.5-1,3.3s-1.6,1.2-2.8,1.2c-1.2,0-2.1-0.4-2.8-1.2c-0.7-0.8-1-1.9-1-3.3V70.1z M75.6,70.7c0,1.7,0.4,2.5,1.3,2.5
		c0.8,0,1.3-0.7,1.3-2.1v-1c0-0.9-0.1-1.5-0.4-1.9c-0.2-0.4-0.6-0.6-1-0.6s-0.7,0.2-1,0.6c-0.2,0.4-0.3,1-0.3,1.9L75.6,70.7
		L75.6,70.7z"/>
	<path class="st3" d="M85,63.4v2.3h1.3v1.8H85v4.6c0,0.4,0,0.6,0.2,0.8c0.1,0.1,0.3,0.2,0.6,0.2c0.2,0,0.4,0,0.6-0.1v1.9
		c-0.4,0.2-0.9,0.2-1.3,0.2c-1.6,0-2.4-0.9-2.4-2.7v-5h-1.1v-1.8h1.1v-2.3L85,63.4L85,63.4z"/>
	<path class="st3" d="M92.1,75c-0.1-0.1-0.1-0.4-0.2-0.7c-0.4,0.6-1,0.9-1.8,0.9s-1.4-0.3-1.9-0.8s-0.8-1.2-0.8-2
		c0-1,0.3-1.7,0.9-2.3c0.6-0.5,1.5-0.8,2.7-0.8h0.7v-0.8c0-0.4-0.1-0.7-0.2-0.9c-0.1-0.2-0.4-0.3-0.6-0.3c-0.6,0-0.9,0.4-0.9,1.1
		h-2.4c0-0.9,0.3-1.6,1-2.1c0.6-0.6,1.5-0.8,2.5-0.8s1.8,0.3,2.4,0.8s0.8,1.3,0.8,2.3V73c0,0.8,0.1,1.4,0.3,1.9V75H92.1z M90.6,73.3
		c0.3,0,0.5-0.1,0.7-0.2s0.3-0.2,0.4-0.4v-1.9h-0.6c-0.4,0-0.7,0.1-1,0.4s-0.4,0.6-0.4,1.1C89.8,72.9,90.1,73.3,90.6,73.3z"/>
	<path class="st3" d="M98.2,65.7l0.1,0.9c0.6-0.7,1.3-1.1,2.2-1.1c1.6,0,2.4,1.1,2.5,3.4V75h-2.5v-6c0-0.5-0.1-0.9-0.2-1.2
		c-0.2-0.2-0.4-0.4-0.8-0.4s-0.8,0.2-1,0.7V75H96v-9.3H98.2z"/>
	<path class="st3" d="M107.6,71l1.2-5.3h2.6l-3.1,10.7c-0.5,1.6-1.3,2.4-2.6,2.4c-0.3,0-0.6-0.1-1-0.2v-1.9h0.3
		c0.4,0,0.7-0.1,0.9-0.2c0.2-0.1,0.3-0.4,0.4-0.8l0.2-0.6l-2.7-9.4h2.6L107.6,71z"/>
</g>
</svg>
