<svg id="Layer_1" data-name="Layer 1" xmlns="http://www.w3.org/2000/svg" viewBox="0 0 351 126"><defs><style>.cls-1{fill:#b7b7dc;}.cls-1,.cls-2{stroke:#231f20;}.cls-1,.cls-2,.cls-3{stroke-miterlimit:10;}.cls-2,.cls-3{fill:#12123c;}.cls-3{stroke:#140d3c;}.cls-4{fill:#6d9799;}.cls-5{fill:#c4203b;}</style></defs><g id="Light"><rect class="cls-1" x="0.5" y="0.5" width="350" height="125"/></g><path class="cls-2" d="M350,97.57a268.05,268.05,0,0,0-51.25-3.78,275.08,275.08,0,0,0-55.56,7.09c-59,12.88-120,26.19-179,15.13A231.5,231.5,0,0,1,0,93.55V0H350Z" transform="translate(0.5 0.5)"/><path class="cls-3" d="M294.26,166.13" transform="translate(0.5 0.5)"/><path class="cls-4" d="M101.73,69.82H97.24L83,42.43V69.82H78.51V34.28H83L97.29,61.79V34.28h4.44Z" transform="translate(0.5 0.5)"/><path class="cls-4" d="M125,60.84a5.49,5.49,0,0,0-1.44-4.08,15,15,0,0,0-5.2-2.76,22.07,22.07,0,0,1-5.75-2.82,9.84,9.84,0,0,1-3-3.37,9.18,9.18,0,0,1-1-4.33,9.3,9.3,0,0,1,2.82-7,10.16,10.16,0,0,1,7.38-2.73,11,11,0,0,1,5.57,1.39,9.52,9.52,0,0,1,3.76,3.89,11.45,11.45,0,0,1,1.32,5.46H125a7.45,7.45,0,0,0-1.59-5.1,5.74,5.74,0,0,0-4.57-1.81,5.65,5.65,0,0,0-4.2,1.52,5.82,5.82,0,0,0-1.48,4.25,5,5,0,0,0,1.61,3.77,14.24,14.24,0,0,0,5,2.72c3.5,1.15,6,2.58,7.5,4.27a9.6,9.6,0,0,1,2.26,6.64,9,9,0,0,1-2.8,6.92,10.8,10.8,0,0,1-7.65,2.6A12.33,12.33,0,0,1,113.34,69a10.27,10.27,0,0,1-4.13-3.81,10.58,10.58,0,0,1-1.5-5.63h4.49a6.91,6.91,0,0,0,1.85,5.13,6.79,6.79,0,0,0,5,1.83A6,6,0,0,0,123.51,65,5.65,5.65,0,0,0,125,60.84Z" transform="translate(0.5 0.5)"/><path class="cls-4" d="M142.16,58.62l.46,4,.71-3.52L149,34.28h3.73l5.52,24.8L159,62.7l.51-4.11,4.35-24.31h4.47l-7.08,35.54h-4l-5.93-25.9-.37-2.1-.37,2.1-6.15,25.9h-4l-7.06-35.54h4.47Z" transform="translate(0.5 0.5)"/><path class="cls-5" d="M178.85,54.47V72.56h-5.22V26.35h13.25A11.38,11.38,0,0,1,196,30.21q3.31,3.85,3.32,10.27,0,6.66-3.16,10.26t-8.9,3.73Zm0-5h8a6.44,6.44,0,0,0,5.34-2.32c1.24-1.55,1.86-3.76,1.86-6.65a10.76,10.76,0,0,0-1.91-6.67,6.25,6.25,0,0,0-5.26-2.52h-8.06Z" transform="translate(0.5 0.5)"/><path class="cls-5" d="M204.28,53.81q0-7.5,3.27-11.86a10.27,10.27,0,0,1,8.64-4.36,10.38,10.38,0,0,1,8.64,4.25q3.27,4.26,3.35,11.58V57q0,7.47-3.25,11.81a10.87,10.87,0,0,1-17.3.13q-3.24-4.23-3.35-11.43ZM209.33,57a15.86,15.86,0,0,0,1.87,8.33,5.71,5.71,0,0,0,5,3q6.69,0,6.89-10.73V53.81a15.82,15.82,0,0,0-1.89-8.34,5.65,5.65,0,0,0-10,0,15.94,15.94,0,0,0-1.87,8.3Z" transform="translate(0.5 0.5)"/><path class="cls-5" d="M247.47,43.49a11.06,11.06,0,0,0-2.29-.22q-3.88,0-5.43,4.73V72.56H234.7V38.22h4.91l.09,3.49q2-4.12,5.74-4.12a4.17,4.17,0,0,1,2,.44Z" transform="translate(0.5 0.5)"/><path class="cls-5" d="M259.12,29.91v8.31h4.66v4.54h-4.66V64.08a6.35,6.35,0,0,0,.6,3.09,2.17,2.17,0,0,0,2.06,1,5.64,5.64,0,0,0,2-.38l-.05,4.74a10.13,10.13,0,0,1-3.52.63,5.15,5.15,0,0,1-4.57-2.38,12.25,12.25,0,0,1-1.57-6.73V42.76h-4.71V38.22h4.71V29.91Z" transform="translate(0.5 0.5)"/><path class="cls-5" d="M284.8,63.77a4.38,4.38,0,0,0-1.23-3.11,18,18,0,0,0-4.74-3,29.84,29.84,0,0,1-5.76-3.2,9,9,0,0,1-2.5-3,9.17,9.17,0,0,1-.82-4.05,10,10,0,0,1,17.05-6.82A10.48,10.48,0,0,1,289.54,48h-5a5.82,5.82,0,0,0-1.4-4,4.49,4.49,0,0,0-3.57-1.64,4.4,4.4,0,0,0-4.77,4.72,4,4,0,0,0,.93,2.75,16.19,16.19,0,0,0,4.47,2.75q5.63,2.44,7.66,4.79a8.7,8.7,0,0,1,2,5.92,9.52,9.52,0,0,1-2.78,7.17,10.2,10.2,0,0,1-7.42,2.69,10.45,10.45,0,0,1-7.83-3.08,10.73,10.73,0,0,1-3-7.81h5.09a6.65,6.65,0,0,0,1.57,4.48,6.3,6.3,0,0,0,8,.36A4.46,4.46,0,0,0,284.8,63.77Z" transform="translate(0.5 0.5)"/></svg>