<?xml version="1.0" encoding="utf-8"?>
<!-- Generator: Adobe Illustrator 24.2.1, SVG Export Plug-In . SVG Version: 6.00 Build 0)  -->
<svg version="1.1" id="Layer_1" xmlns="http://www.w3.org/2000/svg" xmlns:xlink="http://www.w3.org/1999/xlink" x="0px" y="0px"
	 viewBox="0 0 139.7 139.7" style="enable-background:new 0 0 139.7 139.7;" xml:space="preserve">
<style type="text/css">
	.st0{opacity:0.38;fill:#15294F;enable-background:new    ;}
	.st1{fill:#15294F;}
	.st2{enable-background:new    ;}
	.st3{fill:#FFFFFF;}
</style>
<circle class="st0" cx="69.9" cy="69.9" r="69.9"/>
<circle class="st1" cx="69.9" cy="69.9" r="57.9"/>
<g class="st2">
	<path class="st3" d="M52.7,69.6h-4v3.3h4.7V75h-7.2V62.5h7.2v2.1h-4.7v3h4V69.6z"/>
	<path class="st3" d="M57,65.7l0.1,0.9c0.6-0.7,1.3-1.1,2.2-1.1c1.6,0,2.4,1.1,2.5,3.4V75h-2.5v-6c0-0.5-0.1-0.9-0.2-1.2
		c-0.2-0.2-0.4-0.4-0.8-0.4c-0.4,0-0.8,0.2-1,0.7V75h-2.5v-9.3H57z"/>
	<path class="st3" d="M64,75v-7.5h-1.1v-1.8H64v-0.8c0-1,0.3-1.8,0.8-2.4c0.5-0.6,1.3-0.9,2.2-0.9c0.3,0,0.7,0.1,1.1,0.2l0,2
		c-0.2-0.1-0.4-0.1-0.6-0.1c-0.7,0-1.1,0.4-1.1,1.3v0.8H68v1.8h-1.5V75H64z"/>
	<path class="st3" d="M69.3,63.3c0-0.4,0.1-0.7,0.4-0.9c0.2-0.2,0.6-0.4,1-0.4s0.7,0.1,1,0.4c0.2,0.2,0.4,0.6,0.4,0.9
		c0,0.4-0.1,0.7-0.4,0.9c-0.2,0.2-0.6,0.4-1,0.4s-0.7-0.1-1-0.4C69.4,64,69.3,63.6,69.3,63.3z M71.8,75h-2.5v-9.3h2.5V75z"/>
	<path class="st3" d="M77.5,75.2c-1.3,0-2.2-0.4-2.9-1.1c-0.7-0.7-1.1-1.8-1.1-3.2v-0.7c0-1.5,0.3-2.6,1-3.4s1.6-1.2,2.8-1.2
		c1.2,0,2.1,0.4,2.6,1.1c0.6,0.8,0.9,1.9,0.9,3.3v1.2h-4.9c0,0.7,0.2,1.2,0.5,1.5c0.3,0.3,0.7,0.5,1.3,0.5c0.8,0,1.5-0.3,2-0.8
		l1,1.5c-0.3,0.4-0.7,0.7-1.3,1C78.8,75.1,78.2,75.2,77.5,75.2z M76,69.5h2.4v-0.2c0-0.6-0.1-1-0.3-1.3c-0.2-0.3-0.5-0.4-0.9-0.4
		s-0.7,0.2-0.9,0.5C76.1,68.3,76,68.8,76,69.5z"/>
	<path class="st3" d="M84.7,75h-2.5V61.8h2.5V75z"/>
	<path class="st3" d="M86.3,70.1c0-1.5,0.3-2.7,0.8-3.4c0.5-0.8,1.3-1.1,2.3-1.1c0.7,0,1.3,0.3,1.8,0.9v-4.7h2.5V75h-2.2l-0.1-0.9
		c-0.5,0.7-1.1,1.1-1.9,1.1c-1,0-1.7-0.4-2.2-1.1c-0.5-0.7-0.8-1.8-0.8-3.3V70.1z M88.8,70.7c0,0.9,0.1,1.6,0.3,1.9s0.5,0.5,1,0.5
		c0.5,0,0.8-0.2,1.1-0.6v-4.3c-0.2-0.5-0.6-0.7-1.1-0.7c-0.4,0-0.8,0.2-1,0.5c-0.2,0.4-0.3,1-0.3,1.9V70.7z"/>
</g>
</svg>
