<svg id="Layer_1" data-name="Layer 1" xmlns="http://www.w3.org/2000/svg" viewBox="0 0 139.8 139.8"><defs><style>.cls-1,.cls-2{fill:#f5a91c;}.cls-1{opacity:0.38;isolation:isolate;}.cls-3{fill:#fff;}</style></defs><circle class="cls-1" cx="69.9" cy="69.9" r="69.9"/><circle class="cls-2" cx="69.9" cy="69.9" r="57.9"/><path class="cls-3" d="M121.65,84.48l-17.42-16a1.62,1.62,0,0,0-1.54-.38L91.16,71.27a1.72,1.72,0,0,0-1.24,1.49l-.29,2.62L83.8,73.86V43.19H68.47V37.12h-19v6.07H34.43v58.93H55.15V92h8v10.13H83.79V75.84l5.62,1.46-.83,7.75a1.8,1.8,0,0,0,.56,1.51l17.24,15.69a1.65,1.65,0,0,0,1.11.43,1.63,1.63,0,0,0,1.26-.58l13-15.15a1.77,1.77,0,0,0,.42-1.27A1.7,1.7,0,0,0,121.65,84.48ZM49.49,86.57h-8V78.32h8Zm0-13.67h-8V64.66h8Zm0-13.66h-8V51h8Zm13.6,19.08v8.25h-8V78.32h8Zm0-5.41h-8V64.66h8Zm0-13.67h-8V51h8Zm13.6,27.33h-8V78.32h8Zm0-13.67h-8V64.66h8Zm0-13.66h-8V51h8Zm30.67,39.25L92,84.54l.69-6.41,2.56.65a2.77,2.77,0,0,0,2,2.49,2.68,2.68,0,0,0,3.25-2,2.78,2.78,0,0,0-2-3.37,2.66,2.66,0,0,0-2.83,1.08l-2.84-.72.2-1.88,9.54-2.61,15.49,14.2Z"/></svg>