<?xml version="1.0" encoding="utf-8"?>
<!-- Generator: Adobe Illustrator 24.2.0, SVG Export Plug-In . SVG Version: 6.00 Build 0)  -->
<svg version="1.1" id="Layer_1" xmlns="http://www.w3.org/2000/svg" xmlns:xlink="http://www.w3.org/1999/xlink" x="0px" y="0px"
	 viewBox="0 0 139.8 139.8" style="enable-background:new 0 0 139.8 139.8;" xml:space="preserve">
<style type="text/css">
	.st0{opacity:0.38;fill:#15294F;enable-background:new    ;}
	.st1{fill:#68A0B9;}
	.st2{fill:#FFFFFF;}
</style>
<circle class="st0" cx="69.9" cy="69.9" r="69.9"/>
<circle class="st1" cx="69.9" cy="69.9" r="57.9"/>
<g>
	<path class="st2" d="M38.1,57.4c0,1.2-0.4,2.4-1.2,3.3c-0.8,0.8-2,1.2-3.1,1.1c-1.3,0-2.5-0.5-3.3-1.4c-0.8-1.2-1.2-2.6-1.1-4v-2.1
		c-0.1-1.4,0.3-2.9,1.2-4c0.8-0.9,2-1.4,3.3-1.4c1.1-0.1,2.3,0.3,3.1,1.1c0.8,0.9,1.2,2.1,1.2,3.3h-2.5c0-0.6-0.1-1.2-0.4-1.8
		c-0.4-0.4-0.9-0.6-1.4-0.5c-0.7,0-1.2,0.2-1.4,0.7c-0.3,0.7-0.5,1.5-0.4,2.3v2.4c-0.1,0.9,0.1,1.8,0.4,2.6c0.3,0.5,0.8,0.7,1.4,0.7
		c0.5,0,1-0.1,1.4-0.5c0.3-0.5,0.5-1.2,0.4-1.8H38.1z"/>
	<path class="st2" d="M39.3,56.7c-0.1-1.2,0.3-2.4,1-3.3c1.5-1.5,3.9-1.6,5.5-0.1c0,0,0.1,0.1,0.1,0.1c0.7,0.9,1.1,2.1,1,3.3v0.6
		c0.1,1.2-0.3,2.4-1,3.3c-1.5,1.5-3.9,1.6-5.5,0.1c0,0-0.1-0.1-0.1-0.1c-0.7-0.9-1.1-2.1-1-3.3V56.7z M41.7,57.3
		c0,1.7,0.4,2.5,1.3,2.5s1.3-0.7,1.3-2.1v-1c0.1-0.7-0.1-1.3-0.4-1.9c-0.2-0.4-0.6-0.6-1-0.6c-0.4,0-0.8,0.2-1,0.6
		c-0.2,0.6-0.3,1.3-0.3,1.9v0.6H41.7z"/>
	<path class="st2" d="M48.1,56.7c-0.1-1.2,0.3-2.4,1-3.3c1.5-1.5,3.9-1.6,5.5-0.1c0,0,0.1,0.1,0.1,0.1c0.7,0.9,1.1,2.1,1,3.3v0.6
		c0.1,1.2-0.3,2.4-1,3.3c-1.5,1.5-3.9,1.6-5.5,0.1c0,0-0.1-0.1-0.1-0.1c-0.7-0.9-1.1-2.1-1-3.3V56.7z M50.5,57.3
		c0,1.7,0.4,2.5,1.3,2.5s1.3-0.7,1.3-2.1v-1c0.1-0.7-0.1-1.3-0.4-1.9c-0.2-0.4-0.6-0.6-1-0.6c-0.4,0-0.8,0.2-1,0.6
		c-0.2,0.6-0.3,1.3-0.3,1.9v0.6H50.5z"/>
	<path class="st2" d="M60.3,58l-0.7,0.7v2.9h-2.4V48.4h2.4v7.2l0.3-0.4l1.7-2.8h2.9l-2.7,3.8l3,5.5H62L60.3,58z"/>
	<path class="st2" d="M69.8,59.1c0-0.2-0.1-0.4-0.3-0.6c-0.4-0.3-0.8-0.5-1.3-0.7c-0.8-0.3-1.5-0.7-2.1-1.3c-0.4-0.4-0.6-1-0.6-1.6
		c0-0.8,0.3-1.5,0.9-2c0.6-0.5,1.5-0.8,2.3-0.8c0.9,0,1.8,0.3,2.5,0.8c0.6,0.5,0.9,1.3,0.9,2.1h-2.4c0-0.8-0.3-1.1-0.9-1.1
		c-0.2,0-0.4,0.1-0.6,0.2c-0.1,0.2-0.2,0.5-0.2,0.7c0,0.2,0.1,0.4,0.3,0.5c0.4,0.3,0.9,0.5,1.3,0.7c0.8,0.3,1.5,0.7,2.1,1.2
		c0.4,0.5,0.6,1.1,0.6,1.8c0,0.8-0.3,1.5-0.9,2c-0.7,0.6-1.6,0.8-2.5,0.8c-0.6,0-1.2-0.1-1.8-0.4c-0.5-0.3-0.9-0.6-1.2-1.1
		c-0.3-0.5-0.4-1-0.4-1.5h2.3c0,0.4,0.1,0.7,0.3,1c0.2,0.3,0.5,0.3,0.9,0.3C69.5,60,69.8,59.6,69.8,59.1z"/>
	<path class="st2" d="M81.6,57h-1.3v4.6h-2.5V49.1h4c1.1-0.1,2.1,0.3,2.9,1c0.7,0.8,1.1,1.8,1,2.8c0.1,1.4-0.6,2.8-1.8,3.5l2.2,5.1
		v0.1h-2.7L81.6,57z M80.4,54.9h1.4c0.4,0,0.8-0.2,1.1-0.5c0.3-0.4,0.4-0.9,0.4-1.4c0-1.3-0.5-1.9-1.5-1.9h-1.5L80.4,54.9L80.4,54.9
		z"/>
	<path class="st2" d="M87.5,49.9c0-0.3,0.1-0.7,0.4-0.9c0.3-0.3,0.6-0.4,1-0.4c0.4,0,0.7,0.1,1,0.4c0.2,0.2,0.4,0.6,0.4,0.9
		c0,0.3-0.1,0.7-0.4,0.9c-0.3,0.3-0.6,0.4-1,0.4c-0.4,0-0.7-0.1-1-0.4C87.6,50.6,87.5,50.2,87.5,49.9z M90.1,61.6h-2.5v-9.3h2.5
		V61.6z"/>
	<path class="st2" d="M95,58.2l1.2-5.9h2.5l-2.5,9.3h-2.3l-2.6-9.3h2.6L95,58.2z"/>
	<path class="st2" d="M103.7,61.8c-1.1,0.1-2.1-0.3-2.9-1.1c-0.8-0.9-1.2-2-1.1-3.2v-0.7c-0.1-1.2,0.3-2.4,1-3.4
		c0.7-0.8,1.7-1.3,2.8-1.2c1-0.1,2,0.3,2.6,1.1c0.7,1,1,2.1,0.9,3.3v1.2h-4.9c0,0.5,0.1,1.1,0.5,1.5c0.3,0.3,0.8,0.5,1.3,0.5
		c0.7,0,1.5-0.3,2-0.8l1,1.5c-0.3,0.4-0.8,0.8-1.3,1C105,61.7,104.3,61.8,103.7,61.8z M102.1,56.1h2.4v-0.2c0-0.5-0.1-0.9-0.3-1.3
		c-0.2-0.3-0.6-0.4-0.9-0.4c-0.4,0-0.7,0.2-0.9,0.5C102.2,55.2,102.1,55.6,102.1,56.1z"/>
	<path class="st2" d="M113,54.6h-0.9c-0.6,0-1.2,0.3-1.4,0.9v6.1h-2.5v-9.3h2.3l0.1,1c0.2-0.7,0.9-1.2,1.6-1.2c0.2,0,0.5,0,0.7,0.1
		L113,54.6z"/>
</g>
<path class="st2" d="M39.8,74.4v9.4h-1.2v-9.4H39.8z"/>
<path class="st2" d="M42.1,78.9c0-0.7,0-1.3-0.1-1.8h1.1l0.1,1.1l0,0c0.5-0.8,1.3-1.3,2.2-1.3c0.9,0,2.4,0.6,2.4,2.9v4h-1.2v-3.9
	c0-1.1-0.4-2-1.6-2c-0.8,0-1.4,0.5-1.7,1.3c-0.1,0.2-0.1,0.4-0.1,0.6v4.1h-1.2V78.9z"/>
<path class="st2" d="M51.2,75.1v2H53V78h-1.8v3.7c0,0.8,0.2,1.3,0.9,1.3c0.2,0,0.5,0,0.7-0.1l0.1,0.9c-0.3,0.1-0.7,0.2-1.1,0.2
	c-0.5,0-1-0.2-1.3-0.5C50.2,83,50,82.3,50,81.7V78h-1v-0.9h1v-1.6L51.2,75.1z"/>
<path class="st2" d="M55,80.7c-0.1,1.2,0.8,2.2,2,2.3c0.1,0,0.2,0,0.3,0c0.6,0,1.3-0.1,1.9-0.3l0.2,0.9c-0.7,0.3-1.5,0.4-2.3,0.4
	c-1.7,0.1-3.2-1.2-3.3-3c0-0.2,0-0.3,0-0.5c0-2,1.2-3.7,3.2-3.7c2.2,0,2.8,1.9,2.8,3.2c0,0.2,0,0.4,0,0.6L55,80.7z M58.6,79.8
	c0.1-1-0.5-1.9-1.5-2c-0.1,0-0.1,0-0.2,0c-1.1,0.1-1.9,0.9-1.9,2H58.6z"/>
<path class="st2" d="M61.3,79.2c0-0.8,0-1.5,0-2.1h1.1v1.3h0c0.2-0.9,1-1.5,1.9-1.5c0.1,0,0.2,0,0.3,0v1.2c-0.1,0-0.3,0-0.4,0
	c-0.9,0-1.6,0.7-1.7,1.6c0,0.2-0.1,0.4-0.1,0.6v3.6h-1.2V79.2z"/>
<path class="st2" d="M66,78.9c0-0.7,0-1.3-0.1-1.8H67l0.1,1.1l0,0c0.4-0.8,1.2-1.3,2.1-1.2c0.9,0,1.6,0.5,1.9,1.3l0,0
	c0.2-0.3,0.4-0.6,0.8-0.9c0.4-0.3,1-0.5,1.5-0.5c0.9,0,2.2,0.6,2.2,2.9v4h-1.2V80c0-1.3-0.5-2.1-1.5-2.1c-0.7,0-1.2,0.5-1.5,1.1
	c-0.1,0.2-0.1,0.4-0.1,0.6v4.2h-1.2v-4c0-1.1-0.5-1.9-1.4-1.9c-0.9,0.1-1.6,0.9-1.6,1.8v4.1H66V78.9z"/>
<path class="st2" d="M83.8,80.4c0.2,1.8-1.2,3.4-3,3.6c-0.1,0-0.3,0-0.4,0c-1.8,0-3.2-1.4-3.3-3.2c0-0.1,0-0.2,0-0.3
	c-0.2-1.8,1.2-3.4,3-3.6c0.1,0,0.2,0,0.4,0c1.8,0,3.2,1.4,3.3,3.1C83.8,80.2,83.8,80.3,83.8,80.4z M78.4,80.5c0,1.5,0.8,2.6,2.1,2.6
	s2.1-1.1,2.1-2.6c0-1.2-0.6-2.6-2-2.6S78.4,79.2,78.4,80.5z"/>
<path class="st2" d="M91.2,73.9v8.2c0,0.6,0,1.3,0.1,1.8h-1.1v-1.2l0,0c-0.5,0.9-1.4,1.4-2.4,1.3c-1.6,0-2.9-1.4-2.9-3.4
	c0-2.3,1.4-3.6,3-3.6c0.8,0,1.6,0.3,2,1l0,0v-4L91.2,73.9z M90,79.8c0-0.2,0-0.4-0.1-0.5c-0.2-0.8-0.9-1.4-1.8-1.4
	c-1.3,0-2,1.1-2,2.6s0.7,2.5,2,2.5c1-0.1,1.8-1,1.8-2V79.8z"/>
<path class="st2" d="M97,83.8L96.9,83l0,0c-0.5,0.6-1.3,1-2.1,1c-1.1,0.1-2-0.7-2.1-1.8c0-0.1,0-0.1,0-0.2c0-1.6,1.5-2.5,4.1-2.5
	v-0.1c0.1-0.8-0.4-1.5-1.2-1.6c-0.1,0-0.2,0-0.3,0c-0.6,0-1.2,0.2-1.8,0.5l-0.3-0.8c0.7-0.4,1.4-0.6,2.2-0.6c2.1,0,2.6,1.4,2.6,2.8
	v2.5c0,0.5,0,1.1,0.1,1.6H97z M96.8,80.4c-1.3,0-2.9,0.2-2.9,1.5c0,0.6,0.4,1.1,1,1.2c0.1,0,0.1,0,0.2,0c0.7,0,1.4-0.4,1.6-1.1
	c0-0.1,0.1-0.3,0.1-0.4L96.8,80.4z"/>
<path class="st2" d="M100,73.9h1.2v10H100V73.9z"/>
<path class="st2" d="M47.6,92.2h-2.9v-1h7v1h-2.9v8.4h-1.2V92.2z"/>
<path class="st2" d="M52.4,97.5c-0.1,1.2,0.8,2.3,2,2.4c0.1,0,0.2,0,0.3,0c0.6,0,1.3-0.1,1.9-0.3l0.2,0.9c-0.7,0.3-1.5,0.4-2.2,0.4
	c-1.7,0.1-3.2-1.2-3.3-2.9c0-0.2,0-0.3,0-0.5c0-2,1.2-3.7,3.2-3.7c2.2,0,2.8,1.9,2.8,3.2c0,0.2,0,0.4,0,0.6H52.4z M56,96.6
	c0.1-1-0.5-1.8-1.5-2c-0.1,0-0.2,0-0.2,0c-1.1,0.1-1.9,0.9-1.9,2H56z"/>
<path class="st2" d="M58.7,96c0-0.8,0-1.5-0.1-2.1h1.1v1.3h0.1c0.2-0.9,1-1.5,1.9-1.5c0.1,0,0.2,0,0.4,0v1.2c-0.1,0-0.3,0-0.4,0
	c-0.8,0.1-1.5,0.7-1.6,1.6c0,0.2,0,0.4,0,0.6v3.6h-1.3V96z"/>
<path class="st2" d="M63.3,95.7c0-0.7,0-1.3,0-1.8h1.1l0.1,1.1l0,0c0.4-0.8,1.2-1.3,2.1-1.2c0.9,0,1.6,0.5,1.9,1.4l0,0
	c0.2-0.3,0.4-0.6,0.8-0.9c0.4-0.3,1-0.5,1.5-0.5c0.9,0,2.2,0.6,2.2,2.9v4h-1.2v-3.9c0-1.3-0.5-2.1-1.5-2.1c-0.7,0-1.3,0.5-1.5,1.1
	c-0.1,0.2-0.1,0.4-0.1,0.6v4.2h-1.2v-4.1c0-1.1-0.5-1.9-1.4-1.9c-0.9,0.1-1.6,0.9-1.6,1.8v4.1h-1.1V95.7z"/>
<path class="st2" d="M76.4,92c0,0.4-0.3,0.7-0.7,0.8c0,0-0.1,0-0.1,0c-0.4,0-0.7-0.3-0.8-0.7c0,0,0,0,0,0c0-0.4,0.3-0.8,0.7-0.8
	c0,0,0,0,0,0C76,91.2,76.4,91.5,76.4,92C76.4,92,76.4,92,76.4,92z M75,100.6v-6.8h1.2v6.8H75z"/>
<path class="st2" d="M78.3,95.7c0-0.7,0-1.3-0.1-1.8h1.1l0.1,1.1l0,0c0.5-0.8,1.3-1.3,2.2-1.3c0.9,0,2.4,0.6,2.4,2.9v4h-1.2v-3.9
	c0-1.1-0.4-2-1.6-2c-0.8,0-1.4,0.5-1.7,1.3c-0.1,0.2-0.1,0.4-0.1,0.6v4.1h-1.2V95.7z"/>
<path class="st2" d="M89.8,100.6l-0.1-0.8l0,0c-0.5,0.6-1.3,1-2.1,1c-1.1,0.1-2-0.7-2.1-1.8c0-0.1,0-0.1,0-0.2
	c0-1.6,1.5-2.5,4.1-2.5v-0.1c0.1-0.8-0.4-1.5-1.2-1.6c-0.1,0-0.2,0-0.3,0c-0.6,0-1.2,0.2-1.8,0.5L86,94.3c0.7-0.4,1.4-0.6,2.2-0.6
	c2.1,0,2.6,1.4,2.6,2.8V99c0,0.5,0,1.1,0.1,1.6L89.8,100.6z M89.6,97.2c-1.3,0-2.9,0.2-2.9,1.5c0,0.6,0.4,1.1,1,1.2
	c0.1,0,0.1,0,0.2,0c0.7,0,1.4-0.4,1.6-1.1c0-0.1,0.1-0.3,0.1-0.4V97.2z"/>
<path class="st2" d="M92.8,90.7H94v9.9h-1.2V90.7z"/>
</svg>
