<svg id="Layer_1" data-name="Layer 1" xmlns="http://www.w3.org/2000/svg" viewBox="0 0 139.8 139.8"><defs><style>.cls-1,.cls-2{fill:#f5a91c;}.cls-1{opacity:0.38;isolation:isolate;}.cls-3{fill:#fff;}</style></defs><circle class="cls-1" cx="69.9" cy="69.9" r="69.9"/><circle class="cls-2" cx="69.9" cy="69.9" r="57.9"/><polygon class="cls-3" points="47 67.63 48.81 74.11 52.79 70.86 49.03 67.03 47 67.63"/><polygon class="cls-3" points="62.62 67.63 60.59 67.03 56.83 70.86 60.81 74.11 62.62 67.63"/><path class="cls-3" d="M58.85,64.91V63.3a10.48,10.48,0,0,1-8.08,0v1.61l4,4.12Z"/><polygon class="cls-3" points="54.81 72.74 51.59 75.37 54.02 77.85 55.6 77.85 58.03 75.37 54.81 72.74"/><path class="cls-3" d="M65.59,53.12a10.4,10.4,0,0,1-.1,1.37h.1a2.75,2.75,0,0,0,0-5.5Z"/><path class="cls-3" d="M44,43.5h1.35a6.16,6.16,0,0,0,5.15-2.8l1.26-1.92,1.13.87A18.82,18.82,0,0,0,64.21,43.5h1.34l0,1.37v1.38a5.29,5.29,0,0,1,2.69.76V38.17a5.85,5.85,0,0,0-4.37-5.7l-.36-.09L61.8,30.59A11.77,11.77,0,0,0,53.33,27a12.13,12.13,0,0,0-12,12.23V47A5.29,5.29,0,0,1,44,46.25Z"/><polygon class="cls-3" points="54.52 80.59 52.49 88.84 57.13 88.84 55.1 80.59 54.52 80.59"/><path class="cls-3" d="M62.89,46.2a21.48,21.48,0,0,1-10.43-3.53,8.86,8.86,0,0,1-5.73,3.47v7a8.08,8.08,0,1,0,16.16,0Z"/><path class="cls-3" d="M71,84.51l-1.15.78a4.29,4.29,0,0,1-2.51.8,4.46,4.46,0,0,1-4.42-4.5v-.74a4.53,4.53,0,0,1,1.89-3.69l8.73-5.92a6.58,6.58,0,0,0-2-1l-6.28-1.85L62.28,78.84l-2.13-1.75-2.5,2.55,2.25,9.2H70l1,.52Z"/><path class="cls-3" d="M73.67,82.68v8.06l7,3.59-7,3.6v8.77H103.3v-24L88.48,72.63Zm21.78-2.85,2.24,1.53-2.2,3.36h5.12V104H76.36V98.46h2.7v2.74H97.91V87.46H93.7L86,99.24l-5.2-5.31L82.7,92l2.88,2.94,4.88-7.47H79.06v2.75h-2.7V84.72H92.25Z"/><polygon class="cls-3" points="70.97 92.44 70.97 96.23 74.7 94.33 70.97 92.44"/><path class="cls-3" d="M110.65,79.41l-22.17-15L66.29,79.43a1.76,1.76,0,0,0-.7,1.42v.74a1.73,1.73,0,0,0,1.72,1.75,1.69,1.69,0,0,0,1-.32L88.48,69.33,108.67,83a1.69,1.69,0,0,0,1,.32,1.73,1.73,0,0,0,1.72-1.75v-.74A1.77,1.77,0,0,0,110.65,79.41Z"/><path class="cls-3" d="M41.34,83.34H44v5.5h5.69L52,79.64l-2.5-2.55-2.13,1.75L44.41,68.39l-6.28,1.85a6.87,6.87,0,0,0-4.87,6.6V93h5.58a5.48,5.48,0,0,1,2.5-3.36Z"/><path class="cls-3" d="M44,54.49h.1a10.4,10.4,0,0,1-.1-1.37V49a2.75,2.75,0,0,0,0,5.5Z"/><rect class="cls-3" x="49.42" y="91.59" width="18.86" height="5.5"/><path class="cls-3" d="M41.34,94.33A2.72,2.72,0,0,0,44,97.08h2.7V91.59H44A2.72,2.72,0,0,0,41.34,94.33Z"/></svg>