<?xml version="1.0" encoding="utf-8"?>
<!-- Generator: Adobe Illustrator 24.2.0, SVG Export Plug-In . SVG Version: 6.00 Build 0)  -->
<svg version="1.1" id="Layer_1" xmlns="http://www.w3.org/2000/svg" xmlns:xlink="http://www.w3.org/1999/xlink" x="0px" y="0px"
	 viewBox="0 0 139.7 139.7" style="enable-background:new 0 0 139.7 139.7;" xml:space="preserve">
<style type="text/css">
	.st0{opacity:0.38;fill:#F5A91C;enable-background:new    ;}
	.st1{fill:#F5A91C;}
	.st2{fill:#FFFFFF;}
</style>
<circle class="st0" cx="69.3" cy="69.9" r="69.9"/>
<circle class="st1" cx="69.3" cy="69.9" r="57.9"/>
<g>
	<path class="st2" d="M70.2,83.2h0.2l2.3-0.5h0.2v0.2l1,5.2c0.1,0.4,0.4,0.7,0.9,0.7c0.1,0,0.1,0,0.2,0c0.2,0,0.4-0.2,0.6-0.4
		c0.1-0.2,0.2-0.4,0.1-0.7l-1-5.2v-0.2h0.2l1.8-0.4h0.2l0.1,0.2l1.2,4.6c0.1,0.4,0.5,0.7,0.9,0.7c0.1,0,0.2,0,0.2,0
		c0.5-0.1,0.8-0.6,0.6-1.1l-1.2-4.5l-0.1-0.3l0.3-0.1l1.5-0.3h0.2l0.1,0.2l1.5,4.3c0.1,0.4,0.5,0.6,0.8,0.6c0.1,0,0.2,0,0.3,0
		c0.2-0.1,0.4-0.2,0.5-0.4c0.1-0.2,0.1-0.5,0-0.7l-1.4-4l-0.1-0.3l0.3-0.1l0.8-0.2c0.2,0,0.4-0.2,0.6-0.4c0.1-0.2,0.2-0.4,0.1-0.7
		c-0.1-0.4-0.4-0.7-0.9-0.7c-0.1,0-0.1,0-0.2,0l-13.8,2.8l0,0l0,0l-13.8-2.8c-0.1,0-0.1,0-0.2,0c-0.4,0-0.8,0.3-0.9,0.7
		c-0.1,0.5,0.2,0.9,0.7,1l0.7,0.1l0.3,0.1l0,0.4l-1.4,4c-0.1,0.2-0.1,0.5,0,0.7s0.3,0.4,0.5,0.4c0.1,0,0.2,0,0.3,0
		c0.4,0,0.7-0.2,0.8-0.6l1.5-4.3l0.1-0.2H58l1.5,0.3l0.3,0.1l-0.1,0.3l-1.2,4.5c-0.1,0.5,0.2,1,0.6,1.1c0.1,0,0.2,0,0.2,0
		c0.4,0,0.8-0.3,0.9-0.7l1.2-4.6l0.1-0.2h0.2l1.8,0.4h0.2v0.2l-1,5.2c0,0.2,0,0.5,0.1,0.7s0.3,0.3,0.6,0.4c0.1,0,0.1,0,0.2,0
		c0.4,0,0.8-0.3,0.9-0.7l1-5.2v-0.2h0.2l2.4,0.5h0.2v0.2v7.3c0,0.5,0.4,0.9,0.9,0.9s0.9-0.4,0.9-0.9v-7.3v-0.1H70.2z"/>
	<path class="st2" d="M63.6,64.8c0.5,2.7,2.9,4.7,5.7,4.7c2.8,0,5.2-2,5.7-4.7v-0.2h0.2h10c0.5,0,0.9-0.4,0.9-0.9s-0.4-0.9-0.9-0.9
		h-10H75v-0.2c-0.5-2.7-2.9-4.7-5.7-4.7s-5.2,2-5.7,4.7v0.2h-0.2h-10c-0.5,0-0.9,0.4-0.9,0.9s0.4,0.9,0.9,0.9h10h0.2L63.6,64.8z
		 M69.3,59.7c2.2,0,4,1.8,4,4s-1.8,4-4,4s-4-1.8-4-4S67.1,59.7,69.3,59.7z"/>
	<path class="st2" d="M98,104.6L80.6,93l-0.5-0.3l0.5-0.1L90,90c0.6-0.2,1.1-0.6,1.4-1.2s0.3-1.2,0.1-1.8l-2.3-6.8V80l0.2-0.1
		c1.1-0.6,2.8-2.1,2.8-4.8V60c0-2.4-1.8-4-3.5-4.7l-0.2-0.1V55v-8c0.3-2.4-1.3-4.5-3.7-5.1l-7.2-1.8h-0.2v-0.2V39
		c0-2.7-2.2-5.6-5.4-5.6h-5.7c-2.8,0-5.4,2.7-5.4,5.6v1v0.2h-0.2l-7,1.8c-2.4,0.6-3.9,2.7-3.7,5.1v8v0.2l-0.2,0.1
		c-1.7,0.7-3.5,2.3-3.5,4.7v15.1c0,2.9,2,4.3,2.8,4.8l0.2,0.1l-0.1,0.2L47.1,87c-0.2,0.6-0.1,1.3,0.1,1.8c0.3,0.6,0.8,1,1.4,1.1
		l9.3,2.6l0.5,0.1L58,93l-17.4,11.6c-0.4,0.3-0.5,0.8-0.2,1.2c0.2,0.2,0.4,0.4,0.7,0.4c0.2,0,0.3-0.1,0.5-0.2l7.1-4.7h0.1h0.1h40.9
		h0.1H90l7.1,4.7c0.1,0.1,0.3,0.2,0.5,0.2c0.3,0,0.6-0.1,0.7-0.4C98.5,105.5,98.4,104.9,98,104.6z M76.2,41.7L76.2,41.7
		c0.2,0.1,0.3,0.1,0.5,0.1l0,0h0.1l7.7,1.9c1.5,0.4,2.5,1.7,2.3,3.2V47v7.4v0.3l-0.3-0.1l-16.1-3.4h-0.2V51V40.5v-0.3l0.3,0.1
		L76.2,41.7L76.2,41.7z M62.9,39.4v-0.3c0-1.7,1.7-3.8,3.6-3.8h5.7c2.1,0,3.6,2,3.6,3.8v0.3v0.3l-0.3-0.1l-5.6-1.4
		c-0.2-0.1-0.4-0.1-0.6-0.1s-0.4,0-0.6,0.1l-5.6,1.4l-0.3,0.1L62.9,39.4z M54.2,43.7L54.2,43.7L54.2,43.7L54.2,43.7l14-3.5l0.3-0.1
		v0.3V51v0.2h-0.2l-16.1,3.4l-0.3,0.1v-0.3V47v-0.1C51.6,45.4,52.6,44.1,54.2,43.7z M49.1,88.3c-0.1,0-0.3-0.1-0.3-0.3
		c-0.1-0.2-0.1-0.3,0-0.4l2.6-7.7c0.1-0.2,0.1-0.5-0.1-0.7c-0.1-0.2-0.3-0.4-0.5-0.4c-0.3-0.1-2.6-0.9-2.6-3.6V60.1
		c0-1.7,1.6-3,3.3-3.3L69.3,53h0.1h0.1l17.8,3.8c1.6,0.3,3.3,1.6,3.3,3.3v15.1c0,2.5-2.3,3.5-2.6,3.6c-0.5,0.2-0.7,0.7-0.6,1.1
		l2.6,7.7c0,0.2,0,0.3,0,0.4c-0.1,0.1-0.2,0.2-0.3,0.3l-20.1,5.6h-0.1h-0.1L49.1,88.3z M57.6,95.5l2.4-1.6c0.1-0.1,0.2-0.2,0.3-0.4
		l0.1-0.2l0.2,0.1l7.4,2.1l1.3,0.4l1.3-0.4l7.4-2.1l0.2-0.1l0.1,0.2c0.1,0.2,0.2,0.3,0.3,0.4l2.4,1.6l0.7,0.5h-0.8H70.7h-0.9l0,0H68
		H57.8H57L57.6,95.5z M86.4,99.6H52.3h-0.8l0.7-0.5l2.1-1.4l0.1-0.1h0.1c0.1,0,0.1,0,0.2,0h29.7h0.1h0.1l2.1,1.4l0.7,0.5L86.4,99.6
		L86.4,99.6z"/>
</g>
<path class="st1" d="M140.3,23.4L140.3,23.4L140.3,23.4z"/>
</svg>
