<?xml version="1.0" encoding="utf-8"?>
<!-- Generator: Adobe Illustrator 24.2.0, SVG Export Plug-In . SVG Version: 6.00 Build 0)  -->
<svg version="1.1" id="Layer_1" xmlns="http://www.w3.org/2000/svg" xmlns:xlink="http://www.w3.org/1999/xlink" x="0px" y="0px"
	 viewBox="0 0 139.7 139.7" style="enable-background:new 0 0 139.7 139.7;" xml:space="preserve">
<style type="text/css">
	.st0{opacity:0.38;fill:#F5A91C;enable-background:new    ;}
	.st1{fill:#F5A91C;}
	.st2{fill:#FFFFFF;}
</style>
<circle class="st0" cx="69.3" cy="69.9" r="69.9"/>
<circle class="st1" cx="69.3" cy="69.9" r="57.9"/>
<path class="st1" d="M140.3,23.4L140.3,23.4L140.3,23.4z"/>
<path class="st2" d="M104.4,58.4c-0.5,0-0.9,0.4-0.9,0.9c0,2.3-1.8,4.2-4.1,4.2s-4.1-1.9-4.1-4.2c0-0.5-0.4-0.9-0.9-0.9
	s-0.9,0.4-0.9,0.9c0,2.3-1.8,4.2-4.1,4.2s-4.1-1.9-4.1-4.2c0-0.5-0.4-0.9-0.9-0.9c-0.5,0-0.9,0.4-0.9,0.9c0,2.3-1.8,4.2-4.1,4.2
	c-2.3,0-4.1-1.9-4.1-4.2c0-0.5-0.4-0.9-0.9-0.9s-0.9,0.4-0.9,0.9c0,2.1-1.5,3.8-3.4,4.1v-8.9c3-0.4,5.4-3.1,5.4-6.3
	c0-3.5-2.8-6.4-6.3-6.4c-3.4,0-6.3,2.9-6.3,6.4c0,3.2,2.4,5.8,5.4,6.3v8.8c-1.8-0.4-3.1-2.1-3.1-4c0-0.5-0.4-0.9-0.9-0.9
	s-0.9,0.4-0.9,0.9c0,2.3-1.8,4.2-4.1,4.2s-4.1-1.9-4.1-4.2c0-0.5-0.4-0.9-0.9-0.9c-0.5,0-0.9,0.4-0.9,0.9c0,2.3-1.8,4.2-4.1,4.2
	c-2.3,0-4.1-1.9-4.1-4.2c0-0.5-0.4-0.9-0.9-0.9s-0.9,0.4-0.9,0.9c0,2.3-1.8,4.2-4.1,4.2c-2.3,0-4.1-1.9-4.1-4.2
	c0-0.5-0.4-0.9-0.9-0.9c-0.5,0-0.9,0.4-0.9,0.9c0,3.3,2.6,6,5.9,6c2.1,0,4-1.2,5-2.9c1.1,1.7,2.9,2.9,5,2.9c2.1,0,4-1.2,5-2.9
	c1.1,1.7,2.9,2.9,5,2.9c2.1,0,4-1.2,5-2.9c0.9,1.4,2.3,2.4,4,2.8v4.5h-8.5c-0.5,0-0.9,0.4-0.9,0.9c0,0.5,0.4,0.9,0.9,0.9h8.5V103
	c0,0.1,0,0.1,0,0.2c-11.4-0.4-20.4-10-20.6-21.5l2.1,2.2c0.2,0.2,0.4,0.3,0.6,0.3c0.2,0,0.4-0.1,0.6-0.3c0.4-0.4,0.4-0.9,0-1.3
	l-3.7-3.8c-0.4-0.4-0.9-0.4-1.2,0l-3.7,3.8c-0.4,0.4-0.4,0.9,0,1.3c0.4,0.4,0.9,0.4,1.2,0l2.2-2.2C45.9,94.5,56.2,105,69,105
	s23.1-10.5,23.2-23.4l2.2,2.2c0.2,0.2,0.4,0.3,0.6,0.3s0.4-0.1,0.6-0.3c0.4-0.4,0.4-0.9,0-1.3L92,78.8c-0.4-0.4-0.9-0.4-1.2,0
	L87,82.6c-0.4,0.4-0.4,0.9,0,1.3c0.4,0.4,0.9,0.4,1.2,0l2.1-2.2c-0.2,11.7-9.2,21.1-20.6,21.5c0-0.1,0-0.1,0-0.2V71.5h8.7
	c0.5,0,0.9-0.4,0.9-0.9c0-0.5-0.4-0.9-0.9-0.9H70v-4.4c1.8-0.2,3.4-1.3,4.3-2.8c1.1,1.7,2.9,2.9,5,2.9c2.1,0,4-1.2,5-2.9
	c1.1,1.7,2.9,2.9,5,2.9c2.1,0,4-1.2,5-2.9c1.1,1.7,2.9,2.9,5,2.9c3.3,0,5.9-2.7,5.9-6C105.3,58.9,104.8,58.4,104.4,58.4z M64.6,48.4
	c0-2.5,2-4.6,4.5-4.6c2.5,0,4.5,2.1,4.5,4.6s-2,4.6-4.5,4.6C66.6,52.9,64.6,50.9,64.6,48.4z"/>
</svg>
