<?xml version="1.0" encoding="utf-8"?>
<!-- Generator: Adobe Illustrator 24.2.0, SVG Export Plug-In . SVG Version: 6.00 Build 0)  -->
<svg version="1.1" id="Layer_1" xmlns="http://www.w3.org/2000/svg" xmlns:xlink="http://www.w3.org/1999/xlink" x="0px" y="0px"
	 viewBox="0 0 139.8 139.8" style="enable-background:new 0 0 139.8 139.8;" xml:space="preserve">
<style type="text/css">
	.st0{opacity:0.38;fill:#15294F;enable-background:new    ;}
	.st1{fill:#68A0B9;}
	.st2{fill:#FFFFFF;}
	.st3{fill:none;}
	.st4{font-family:'MyriadPro-Regular';}
	.st5{font-size:12px;}
</style>
<circle class="st0" cx="69.9" cy="69.9" r="69.9"/>
<circle class="st1" cx="69.9" cy="69.9" r="57.9"/>
<g>
	<path class="st2" d="M52.7,49.9h-4v3.3h4.7v2.1h-7.2V42.8h7.2v2.1h-4.7v3h4V49.9z"/>
	<path class="st2" d="M57,46l0.1,0.9c0.5-0.7,1.3-1.1,2.2-1.1c1.6,0,2.4,1.1,2.5,3.4v6.1h-2.5v-6c0-0.4-0.1-0.8-0.2-1.2
		c-0.3-0.5-0.9-0.6-1.4-0.3c-0.2,0.1-0.4,0.3-0.4,0.6v6.9h-2.5V46H57z"/>
	<path class="st2" d="M64,55.3v-7.5h-1.1V46H64v-0.8c0-0.9,0.3-1.7,0.8-2.4c0.6-0.6,1.4-0.9,2.2-0.9c0.4,0,0.7,0.1,1.1,0.2v2
		C67.9,44,67.7,44,67.5,44c-0.7,0-1.1,0.4-1.1,1.3v0.8H68v1.8h-1.5v7.4H64z"/>
	<path class="st2" d="M69.2,43.6c0-0.3,0.1-0.7,0.4-0.9c0.3-0.3,0.6-0.4,1-0.4s0.7,0.1,1,0.4c0.2,0.2,0.4,0.6,0.4,0.9
		c0,0.3-0.1,0.7-0.4,0.9c-0.3,0.3-0.6,0.4-1,0.4s-0.7-0.1-1-0.4C69.4,44.3,69.2,43.9,69.2,43.6z M71.8,55.3h-2.5V46h2.5V55.3z"/>
	<path class="st2" d="M77.4,55.5c-1.1,0.1-2.1-0.3-2.9-1.1c-0.8-0.9-1.2-2-1.1-3.2v-0.7c-0.1-1.2,0.3-2.4,1-3.4
		c0.7-0.8,1.7-1.2,2.8-1.2c1-0.1,2,0.3,2.6,1.1c0.7,1,1,2.1,0.9,3.3v1.2h-4.9c0,0.5,0.1,1.1,0.5,1.5c0.3,0.3,0.8,0.5,1.3,0.5
		c0.7,0,1.5-0.3,2-0.8l1,1.5c-0.3,0.4-0.8,0.8-1.3,1C78.7,55.4,78.1,55.5,77.4,55.5z M76,49.8h2.4v-0.2c0-0.5-0.1-0.9-0.3-1.3
		c-0.2-0.3-0.6-0.4-0.9-0.4c-0.4,0-0.7,0.2-0.9,0.5C76,48.8,75.9,49.3,76,49.8z"/>
	<path class="st2" d="M84.7,55.3h-2.5V42.1h2.5V55.3z"/>
	<path class="st2" d="M86.2,50.4C86.1,49.2,86.4,48,87,47c0.5-0.8,1.4-1.2,2.3-1.1c0.7,0,1.4,0.3,1.8,0.9v-4.7h2.5v13.2h-2.2
		l-0.1-0.9c-0.4,0.7-1.1,1.1-1.9,1.1c-0.9,0-1.7-0.4-2.2-1.1c-0.6-1-0.9-2.1-0.8-3.3v-0.7H86.2z M88.8,51c-0.1,0.6,0.1,1.3,0.3,1.9
		c0.2,0.3,0.6,0.5,1,0.5s0.9-0.2,1.1-0.6v-4.3c-0.2-0.5-0.6-0.7-1.1-0.7c-0.4,0-0.8,0.2-1,0.5c-0.2,0.6-0.3,1.3-0.3,1.9V51z"/>
</g>
<rect x="37.6" y="69.9" class="st3" width="64.7" height="66"/>
<text transform="matrix(1 0 0 1 42.1927 78.4195)" class="st2 st4 st5">Intermodal </text>
<text transform="matrix(1 0 0 1 48.1927 92.8195)" class="st2 st4 st5">Logistics </text>
<text transform="matrix(1 0 0 1 53.0927 107.2195)" class="st2 st4 st5">Centre</text>
</svg>
