<svg id="Layer_1" data-name="Layer 1" xmlns="http://www.w3.org/2000/svg" viewBox="0 0 139.8 139.8"><defs><style>.cls-1,.cls-2{fill:#15294f;}.cls-1{opacity:0.38;}.cls-1,.cls-3{isolation:isolate;}.cls-4{fill:#fff;}</style></defs><circle class="cls-1" cx="69.9" cy="69.9" r="69.9"/><circle class="cls-2" cx="69.9" cy="69.9" r="57.9"/><g class="cls-3"><path class="cls-4" d="M52.65,49.9h-4v3.3h4.7v2.1h-7.2V42.8h7.2v2.1h-4.7v3h4Z"/><path class="cls-4" d="M57,46l.1.9a2.79,2.79,0,0,1,2.2-1.1c1.6,0,2.4,1.1,2.5,3.4v6.1h-2.5v-6a3.73,3.73,0,0,0-.2-1.2,1,1,0,0,0-1.8.3v6.9h-2.5V46Z"/><path class="cls-4" d="M64,55.3V47.8h-1.1V46H64v-.8a3.65,3.65,0,0,1,.8-2.4,2.79,2.79,0,0,1,2.2-.9,5.16,5.16,0,0,1,1.1.2v2a1.27,1.27,0,0,0-.6-.1c-.7,0-1.1.4-1.1,1.3v.8H68v1.8h-1.5v7.4Z"/><path class="cls-4" d="M69.25,43.6a1,1,0,0,1,.4-.9,1.53,1.53,0,0,1,1-.4,1.28,1.28,0,0,1,1,.4,1.49,1.49,0,0,1,.4.9,1,1,0,0,1-.4.9,1.53,1.53,0,0,1-1,.4,1.28,1.28,0,0,1-1-.4A1.09,1.09,0,0,1,69.25,43.6Zm2.5,11.7h-2.5V46h2.5Z"/><path class="cls-4" d="M77.45,55.5a3.84,3.84,0,0,1-2.9-1.1,4.42,4.42,0,0,1-1.1-3.2v-.7a4.94,4.94,0,0,1,1-3.4,3.49,3.49,0,0,1,2.8-1.2,3,3,0,0,1,2.6,1.1,5.39,5.39,0,0,1,.9,3.3v1.2h-4.9a2.07,2.07,0,0,0,.5,1.5,1.73,1.73,0,0,0,1.3.5,2.79,2.79,0,0,0,2-.8l1,1.5a3.45,3.45,0,0,1-1.3,1A5.82,5.82,0,0,1,77.45,55.5ZM76,49.8h2.4v-.2a2.27,2.27,0,0,0-.3-1.3,1,1,0,0,0-.9-.4,1.05,1.05,0,0,0-.9.5A2.21,2.21,0,0,0,76,49.8Z"/><path class="cls-4" d="M84.65,55.3h-2.5V42.1h2.5Z"/><path class="cls-4" d="M86.25,50.4a6.08,6.08,0,0,1,.8-3.4,2.49,2.49,0,0,1,2.3-1.1,2.27,2.27,0,0,1,1.8.9V42.1h2.5V55.3h-2.2l-.1-.9a2.26,2.26,0,0,1-1.9,1.1,2.53,2.53,0,0,1-2.2-1.1,5.71,5.71,0,0,1-.8-3.3v-.7Zm2.5.6a4.09,4.09,0,0,0,.3,1.9,1.1,1.1,0,0,0,1,.5,1.25,1.25,0,0,0,1.1-.6V48.5a1.08,1.08,0,0,0-1.1-.7,1.23,1.23,0,0,0-1,.5,4.39,4.39,0,0,0-.3,1.9Z"/></g><path class="cls-4" d="M39.83,70.35v9.44H38.61V70.35Z"/><path class="cls-4" d="M42.06,74.84c0-.7,0-1.27-.06-1.83h1.09l.07,1.12h0a2.5,2.5,0,0,1,2.24-1.27c.94,0,2.4.56,2.4,2.88v4.05H46.59V75.88c0-1.09-.4-2-1.57-2a1.74,1.74,0,0,0-1.65,1.26,1.91,1.91,0,0,0-.08.57v4.08H42.06Z"/><path class="cls-4" d="M51.25,71.06v2H53V74H51.25V77.6c0,.85.24,1.32.93,1.32a2.82,2.82,0,0,0,.71-.08l.06.92a3,3,0,0,1-1.09.17,1.68,1.68,0,0,1-1.33-.52,2.49,2.49,0,0,1-.48-1.76V74H49V73h1V71.38Z"/><path class="cls-4" d="M55,76.62A2.17,2.17,0,0,0,57.33,79a4.57,4.57,0,0,0,1.88-.35l.21.88a5.47,5.47,0,0,1-2.26.42,3.15,3.15,0,0,1-3.33-3.42c0-2,1.2-3.65,3.18-3.65,2.21,0,2.8,1.94,2.8,3.19a5.55,5.55,0,0,1,0,.57Zm3.61-.88a1.76,1.76,0,0,0-1.71-2,2,2,0,0,0-1.89,2Z"/><path class="cls-4" d="M61.33,75.12c0-.79,0-1.48,0-2.11h1.07l0,1.33h.05a2,2,0,0,1,1.88-1.48,1.25,1.25,0,0,1,.35,0v1.16a1.76,1.76,0,0,0-.42,0,1.73,1.73,0,0,0-1.65,1.58,3.34,3.34,0,0,0-.06.58v3.61H61.33Z"/><path class="cls-4" d="M66,74.84c0-.7,0-1.27-.06-1.83H67l.06,1.09h0a2.34,2.34,0,0,1,2.13-1.24,2,2,0,0,1,1.92,1.35h0a2.88,2.88,0,0,1,.76-.88,2.3,2.3,0,0,1,1.5-.47c.9,0,2.23.58,2.23,2.94v4H74.44V76c0-1.3-.47-2.09-1.47-2.09A1.6,1.6,0,0,0,71.51,75a2.18,2.18,0,0,0-.09.61v4.19H70.21V75.73c0-1.08-.48-1.87-1.41-1.87a1.85,1.85,0,0,0-1.63,1.84v4.09H66Z"/><path class="cls-4" d="M83.78,76.34a3.31,3.31,0,0,1-3.38,3.6,3.22,3.22,0,0,1-3.25-3.48,3.31,3.31,0,0,1,3.36-3.6A3.21,3.21,0,0,1,83.78,76.34Zm-5.38.07c0,1.49.85,2.61,2.06,2.61s2.06-1.11,2.06-2.63c0-1.15-.58-2.61-2-2.61S78.4,75.12,78.4,76.41Z"/><path class="cls-4" d="M91.18,69.84V78c0,.6,0,1.29.06,1.75H90.13l0-1.18h0a2.51,2.51,0,0,1-2.31,1.33c-1.64,0-2.9-1.38-2.9-3.44,0-2.26,1.38-3.64,3-3.64a2.28,2.28,0,0,1,2,1h0v-4ZM90,75.77a1.89,1.89,0,0,0-.06-.52,1.81,1.81,0,0,0-1.77-1.43c-1.28,0-2,1.12-2,2.62s.68,2.51,2,2.51A2,2,0,0,0,90,77Z"/><path class="cls-4" d="M97,79.79l-.1-.85h0a2.54,2.54,0,0,1-2.08,1A1.93,1.93,0,0,1,92.69,78c0-1.64,1.46-2.54,4.08-2.52v-.15a1.4,1.4,0,0,0-1.54-1.56,3.39,3.39,0,0,0-1.77.5l-.28-.81a4.15,4.15,0,0,1,2.23-.6c2.07,0,2.58,1.41,2.58,2.77v2.54a9,9,0,0,0,.11,1.62Zm-.18-3.46c-1.35,0-2.88.21-2.88,1.53A1.09,1.09,0,0,0,95.09,79a1.7,1.7,0,0,0,1.64-1.13,1.4,1.4,0,0,0,.07-.39Z"/><path class="cls-4" d="M100,69.84h1.23v10H100Z"/><path class="cls-4" d="M45.77,87.15H47v8.42h4v1H45.77Z"/><path class="cls-4" d="M58.28,93.14a3.31,3.31,0,0,1-3.38,3.6,3.22,3.22,0,0,1-3.25-3.48A3.31,3.31,0,0,1,55,89.66,3.21,3.21,0,0,1,58.28,93.14Zm-5.38.07c0,1.49.85,2.61,2.06,2.61S57,94.71,57,93.19c0-1.15-.58-2.61-2-2.61S52.9,91.93,52.9,93.21Z"/><path class="cls-4" d="M65.67,89.81c0,.49-.06,1-.06,1.86v3.94a4,4,0,0,1-1,3.1,3.63,3.63,0,0,1-2.47.81A4.39,4.39,0,0,1,59.93,99l.3-.94a3.84,3.84,0,0,0,2,.53c1.26,0,2.19-.66,2.19-2.37v-.75h0a2.43,2.43,0,0,1-2.16,1.13,3,3,0,0,1-2.88-3.3c0-2.3,1.5-3.6,3-3.6a2.26,2.26,0,0,1,2.12,1.17h0l.06-1Zm-1.28,2.68a1.62,1.62,0,0,0-.07-.56,1.77,1.77,0,0,0-1.72-1.31c-1.18,0-2,1-2,2.57,0,1.33.68,2.43,2,2.43a1.8,1.8,0,0,0,1.71-1.26,2.15,2.15,0,0,0,.09-.66Z"/><path class="cls-4" d="M68.94,87.91a.76.76,0,0,1-1.52,0,.75.75,0,0,1,.77-.78A.73.73,0,0,1,68.94,87.91Zm-1.37,8.68V89.81H68.8v6.78Z"/><path class="cls-4" d="M70.68,95.33a3.2,3.2,0,0,0,1.62.49c.9,0,1.32-.45,1.32-1s-.35-.91-1.26-1.25c-1.22-.43-1.8-1.1-1.8-1.91a2.09,2.09,0,0,1,2.34-2,3.33,3.33,0,0,1,1.67.42l-.31.89a2.58,2.58,0,0,0-1.38-.39c-.73,0-1.14.42-1.14.92s.41.82,1.29,1.15c1.18.45,1.78,1,1.78,2,0,1.19-.93,2-2.54,2a3.87,3.87,0,0,1-1.9-.46Z"/><path class="cls-4" d="M77.87,87.86v2h1.77v.94H77.87V94.4c0,.85.24,1.32.93,1.32a2.82,2.82,0,0,0,.71-.08l.06.92a3,3,0,0,1-1.09.17,1.68,1.68,0,0,1-1.33-.52,2.49,2.49,0,0,1-.48-1.76v-3.7h-1v-.94h1V88.19Z"/><path class="cls-4" d="M82.4,87.91a.77.77,0,0,1-1.53,0,.75.75,0,0,1,.77-.78A.74.74,0,0,1,82.4,87.91ZM81,96.59V89.81h1.23v6.78Z"/><path class="cls-4" d="M89.13,96.34a4.53,4.53,0,0,1-1.95.39,3.22,3.22,0,0,1-3.37-3.46,3.44,3.44,0,0,1,3.64-3.6,4.1,4.1,0,0,1,1.71.35l-.28,1a2.87,2.87,0,0,0-1.43-.32,2.56,2.56,0,0,0,0,5.1,3.4,3.4,0,0,0,1.51-.34Z"/><path class="cls-4" d="M90.4,95.33a3.24,3.24,0,0,0,1.63.49c.89,0,1.31-.45,1.31-1s-.34-.91-1.26-1.25c-1.21-.43-1.79-1.1-1.79-1.91a2.09,2.09,0,0,1,2.34-2,3.33,3.33,0,0,1,1.67.42L94,91a2.65,2.65,0,0,0-1.39-.39c-.73,0-1.13.42-1.13.92s.4.82,1.29,1.15c1.17.45,1.78,1,1.78,2,0,1.19-.93,2-2.54,2a3.91,3.91,0,0,1-1.91-.46Z"/><path class="cls-4" d="M58.14,113.08a5.89,5.89,0,0,1-2.49.45A4.41,4.41,0,0,1,51,108.75a4.7,4.7,0,0,1,4.93-5,5.2,5.2,0,0,1,2.24.42l-.3,1a4.49,4.49,0,0,0-1.9-.39c-2.21,0-3.69,1.41-3.69,3.89,0,2.31,1.34,3.8,3.63,3.8a5,5,0,0,0,2-.39Z"/><path class="cls-4" d="M60.16,110.22a2.17,2.17,0,0,0,2.32,2.36,4.57,4.57,0,0,0,1.88-.35l.21.88a5.47,5.47,0,0,1-2.26.42A3.15,3.15,0,0,1,59,110.11c0-2,1.2-3.65,3.18-3.65,2.21,0,2.8,1.94,2.8,3.19a5.55,5.55,0,0,1,0,.57Zm3.61-.88a1.76,1.76,0,0,0-1.71-2,2,2,0,0,0-1.89,2Z"/><path class="cls-4" d="M66.48,108.45c0-.71,0-1.28,0-1.84h1.09l.07,1.12h0a2.49,2.49,0,0,1,2.24-1.27c.94,0,2.39.56,2.39,2.88v4H71v-3.91c0-1.09-.4-2-1.57-2a1.74,1.74,0,0,0-1.65,1.26,1.64,1.64,0,0,0-.08.57v4.08H66.48Z"/><path class="cls-4" d="M75.68,104.66v2h1.77v.94H75.68v3.65c0,.84.24,1.32.93,1.32a2.82,2.82,0,0,0,.71-.08l.06.92a3,3,0,0,1-1.09.17A1.72,1.72,0,0,1,75,113a2.51,2.51,0,0,1-.47-1.76v-3.7h-1v-.94h1V105Z"/><path class="cls-4" d="M79.43,110.22a2.18,2.18,0,0,0,2.33,2.36,4.61,4.61,0,0,0,1.88-.35l.21.88a5.47,5.47,0,0,1-2.26.42,3.14,3.14,0,0,1-3.33-3.42c0-2,1.2-3.65,3.18-3.65,2.21,0,2.8,1.94,2.8,3.19a5.55,5.55,0,0,1,0,.57Zm3.62-.88a1.76,1.76,0,0,0-1.71-2,2,2,0,0,0-1.89,2Z"/><path class="cls-4" d="M85.76,108.73c0-.8,0-1.49-.05-2.12h1.07l0,1.33h0a2,2,0,0,1,1.88-1.48,1.25,1.25,0,0,1,.35,0v1.16a1.76,1.76,0,0,0-.42,0A1.72,1.72,0,0,0,87,109.2a3.34,3.34,0,0,0-.06.58v3.61H85.76Z"/></svg>