<svg xmlns="http://www.w3.org/2000/svg" xmlns:xlink="http://www.w3.org/1999/xlink" width="100" height="100" viewBox="0 0 100 100"><svg viewBox="0 0 99.999997 99.999997"><g transform="translate(-149.6453,-589.21878)"><path d="m 199.64552,591.21879 a 48.000099,48.000099 0 0 0 -48.00022,48.00022 48.000099,48.000099 0 0 0 48.00022,47.99977 48.000099,48.000099 0 0 0 47.99977,-47.99977 48.000099,48.000099 0 0 0 -47.99977,-48.00022 z m 0,5.42088 a 42.107528,42.578935 0 0 1 42.10718,42.57934 42.107528,42.578935 0 0 1 -42.10718,42.57887 42.107528,42.578935 0 0 1 -42.10763,-42.57887 42.107528,42.578935 0 0 1 42.10763,-42.57934 z" fill="#1A1A1A"></path></g></svg><g transform="translate(50 50) scale(0.69 0.69) rotate(0) translate(-50 -50)" style="fill:#1A1A1A"><svg fill="#1A1A1A" xmlns="http://www.w3.org/2000/svg" xmlns:xlink="http://www.w3.org/1999/xlink" version="1.1" x="0px" y="0px" viewBox="0 0 69 69" style="enable-background:new 0 0 69 69;" xml:space="preserve"><g><g><g><path d="M63.7511,27.78802h-20.31v-3.63h5.16003c1.37994,0,2.50995-1.13,2.50995-2.52002c0-1.38-1.13-2.51001-2.50995-2.51001     h-1.84003L36.17517,7.36255H65.7489c0.41406,0,0.75-0.33594,0.75-0.75s-0.33594-0.75-0.75-0.75h-62.5     c-0.41406,0-0.75,0.33594-0.75,0.75s0.33594,0.75,0.75,0.75h29.56812L22.24109,19.12799h-1.83997     c-1.39001,0-2.51001,1.13-2.51001,2.51001c0,1.39001,1.12,2.52002,2.51001,2.52002h5.15997v3.63h-20.31     c-1.52002,0-2.75,1.22998-2.75,2.75c0,10.41532,0,7.38601,0,18.25c0,1.51996,1.22998,2.75,2.75,2.75h1.60004v2.69995     c0,1.52002,1.22998,2.75,2.75,2.75h2.04999c-0.10999,0.40002-0.17004,0.82001-0.17004,1.25     c0,1.31976,0.52991,2.52954,1.3996,3.39948H3.2489c-0.41406,0-0.75,0.33594-0.75,0.75s0.33594,0.75,0.75,0.75     c28.86149,0,50.92785,0,62.5,0c0.41406,0,0.75-0.33594,0.75-0.75s-0.33594-0.75-0.75-0.75h-9.62738     c0.86969-0.86993,1.3996-2.07971,1.3996-3.39948c0-0.42999-0.06-0.84998-0.16998-1.25h2.04999c1.51996,0,2.75-1.22998,2.75-2.75     v-2.69995h1.59998c1.51001,0,2.75-1.23004,2.75-2.75c0-10.84349,0-7.85246,0-18.25     C66.5011,29.01801,65.26111,27.78802,63.7511,27.78802z M34.49109,7.73798l10.25,11.39001H24.26111L34.49109,7.73798z      M19.39111,21.638c0-0.56,0.45001-1.01001,1.01001-1.01001c8.29463,0,19.9151,0,28.20001,0     c0.56,0,1.00995,0.45001,1.00995,1.01001s-0.44995,1.02002-1.00995,1.02002c-10.56797,0-17.66769,0-28.20001,0     C19.84113,22.65802,19.39111,22.198,19.39111,21.638z M27.0611,24.15802h14.88v3.63h-14.88V24.15802z M4.0011,35.64801h4.66998     v7.19H4.0011V35.64801z M12.98108,58.23798c0-0.44,0.09003-0.85999,0.25-1.25h6.36005c0.15997,0.39001,0.23999,0.81,0.23999,1.25     c0,1.86823-1.52722,3.39642-3.41455,3.39948H16.4057C14.51831,61.6344,12.98108,60.1062,12.98108,58.23798z M49.06067,61.63745     H19.94153c0.85968-0.86993,1.38959-2.07971,1.38959-3.39948c0-0.42999-0.06-0.84998-0.16998-1.25h26.66998     c-0.10999,0.40002-0.16998,0.82001-0.16998,1.25C47.66113,59.55774,48.19098,60.76752,49.06067,61.63745z M56.02112,58.23798     c0,1.86823-1.53723,3.39642-3.42456,3.39948h-0.01086c-1.88739-0.00305-3.42456-1.53125-3.42456-3.39948     c0-0.44,0.08997-0.85999,0.25-1.25h6.35999C55.93109,57.37799,56.02112,57.79797,56.02112,58.23798z M60.65112,54.23798     c0,0.69-0.56,1.25-1.25,1.25c-10.31502,0-39.28732,0-49.79999,0c-0.69,0-1.25-0.56-1.25-1.25v-2.69995     c17.46935,0,34.89201,0,52.29999,0V54.23798z M23.21112,50.03802h-8.64001V35.64801h8.64001V50.03802z M54.42108,50.03802     h-8.62994V35.64801h8.62994V50.03802z M63.7511,50.03802c-0.27725,0-7.99843,0-7.83002,0V34.89801     c0-0.41003-0.32996-0.75-0.75-0.75H45.04114c-0.41003,0-0.75,0.33997-0.75,0.75v15.14001H24.71112V34.89801     c0-0.41003-0.34003-0.75-0.75-0.75H13.82111c-0.40997,0-0.75,0.33997-0.75,0.75v15.14001c-0.28639,0-8.30924,0-7.82001,0     c-0.69,0-1.25-0.56-1.25-1.25v-4.45001h5.41998c0.41003,0,0.75-0.34003,0.75-0.75v-8.69c0-0.41003-0.33997-0.75-0.75-0.75H4.0011     v-3.60999c0-0.69,0.56-1.25,1.25-1.25c9.33331,0,51.60349,0,58.5,0c0.69,0,1.25,0.56,1.25,1.25v3.60999h-5.42999     c-0.40997,0-0.75,0.33997-0.75,0.75v8.69c0,0.40997,0.34003,0.75,0.75,0.75h5.42999v4.45001     C65.0011,49.47803,64.4411,50.03802,63.7511,50.03802z M65.0011,42.83801h-4.67999v-7.19h4.67999V42.83801z"></path><path d="M40.67108,34.14801H28.33112c-0.41003,0-0.75,0.33997-0.75,0.75v8.69c0,0.40997,0.33997,0.75,0.75,0.75h12.33997     c0.41003,0,0.75-0.34003,0.75-0.75v-8.69C41.42108,34.48798,41.08112,34.14801,40.67108,34.14801z M39.92108,42.83801H29.08112     v-7.19h10.83997V42.83801z"></path></g></g></g></svg></g></svg>